<mxfile host="app.diagrams.net" agent="Mozilla/5.0 (Macintosh; Intel Mac OS X 10_15_7) AppleWebKit/537.36 (KHTML, like Gecko) Chrome/132.0.0.0 Safari/537.36" version="26.0.11">
  <diagram name="第 1 页" id="k01e4RX_n0aVrbSr2U8S">
    <mxGraphModel dx="737" dy="487" grid="1" gridSize="10" guides="1" tooltips="1" connect="1" arrows="1" fold="1" page="1" pageScale="1" pageWidth="827" pageHeight="1169" math="0" shadow="0">
      <root>
        <mxCell id="0" />
        <mxCell id="1" parent="0" />
        <mxCell id="TbX4qZF48fod9gwZH-tJ-2" value="" style="shape=image;verticalLabelPosition=bottom;labelBackgroundColor=default;verticalAlign=top;aspect=fixed;imageAspect=0;image=data:image/png,iVBORw0KGgoAAAANSUhEUgAAAgwAAAIYCAYAAAABwbSCAAAACXBIWXMAAAsTAAALEwEAmpwYAAAgAElEQVR4nOy9eYxk+VXv+b1bxI3lxr7mvlVlVXVXL0W7G8/4DQ8/wDDA8F6DAT9vYLexZ7oZLIxsywbcLF7EHwiBG4MAjRiJNyPhp5EYhOZJjLEeCOz20La7u7buqszKyj0jImPfbtyIO390nV+duJXm2bjb7u46HylVlZER9/7ujcg853fO95wDCIIgCIIgCIIgCIIgCIIgCIIgCIIgCIIgCIIgCIIgCIIgCIIgCIIgCIIgCIIgCIIgCIIgCIIgCIIgCIIgCIIgCIIgCIIgCIIgCIIgCIIgCIIgCIIgCIIgCIIgCIIgCIIgCIIgCIIgCIIgCIIgCIIgCIIgCIIgCIIgCIIgCIIgCIIgCIIgCIIgCIIgCIIgCIIgCIIgCIIgCIIgCIIgCIIgCIIgCIIgCIIgCIIgCIIgCIIgCIIgCIIgCIIgCIIgCIIgCIIgCIIgCIIgCIIgCIIgCIIgCIIgCIIgCIIgCIIgCIIgCIIgCIIgCIIgCIIgCIIgCIIgCIIgCIIgCIIgCIIgCIIgCIIgCIIgCIIgCIIgCIIgCIIgCIIgCIIgCIIgCIIgCIIgCIIgCIIgCIIgCIIgCIIgCIIgCIIgCIIgCIIgCIIgCIIgCIIgCIIgCIIgCIIgCIIgCIIgCIIgCIIgCIIgCIIgCIIgCIIgCIIgCIIgCIIgCIIgCIIgCIIgCIIgCIIgCIIgCIIgCIIgCIIgCIIgCIIgCIIgCIIgCIIgCIIgCIIgCIIgCIIgCIIgCIIgCIIgCIIgCIIgCP8atO/2AgRBEL5TfOQjH9FisZiWSqU0wzB03/d113W1cDis6boO3/cBAMfHx5PhcDjxPA+WZU3G47E/mUzQarX8p556yv8uX4YgfFcQh0EQhNclv/iLv6g7jhOybTttGEbeNM1CLBbLpNNpJ5PJRE3TtD3Pi4xGIyMSiegAdM/zMJlMxsfHx2PP80a+73uWZY0AuL7vj7rd7nAwGPT7/f5gNBp1+/1+azAYNDudTqNWq3Xb7bbb7/fHg8HA9zwPX//618W5EF43iMMgCMLrhscff9zK5/OFUql0XyaTeci27fVIJJIfj8dJwzBilmXZ4XDYSiaTpmVZ+nA41AHooVAImqZpo9EIk8nE7/V6/ng8nnie54dCIR+A7/v+2HXdieu6Y8/zvPF47I3HY3c8Hg9d1x0MBoPecDjsjsfj1mg0OvY878DzvO3RaHRzOBzueZ7XGA6Hg8FgMH7qqacm3+17JQjfKuIwCILwmuSXfumX9EQiEY5Go4VIJLIwGo3OJpPJBzKZzKlcLleOx+NZ0zTj4XDY8n3fME1TMwxDM00T4XBYMwwDo9EIAGBZFgBgPB5jMplgPB7D931MJhMYhgEA8H0f4/HYH4/H9Dx/MplgMpn4nuf5o9FoMh6PJ5PJxJtMJkPf94eTyaTv+35H07Su7/vN0WhUH41G+8PhcHcymey3Wq1Kt9s9Pj4+rtXr9Wa1Wu0fHx97f/M3fyORCeFVhzgMgiC8pnjnO9+p5/P5bKFQeCiRSHxvJBI5E4lEFi3LKmYymWQ2m41mMhkzEolovu9rhmHAMAzoug4A0DRNOQXkGNi2DQDqsVsRB5imqXQNmvbSn0v6fjKZDhJMJhP1s1vOhn/r+L7v+/5kMhmPRqNRv98fdrvdQa/X6zcajU6r1Wq0Wq1ao9E4arVaR91ud9d13Y3xeHzD87xar9frtlqt8V//9V9LVEL4riIOgyAIr3re//736+FwOFwoFOZzudz3ZzKZNxcKhfV0Ol0Mh8NxwzDChmEYkUhEC4fDiEQi8DwP/X4fk8kE4XAYhmEoR2EwGKDf72M0GsH3fSQSCei6Dtd1MRqNkEqlEA6HlSOhadodDgOhadqUo0DP48+dTCbKUZlMJnBdF67r+r1eb+J53th13ZHneaPRaDTyfX+gaVrXMIz2YDDoVKvV2sHBwc3j4+NL7Xb7ar/f3x+Px53xeNwfj8ej0WjkjUajSbfb9f/yL/9SIhPCK4Y4DIIgvGp573vfqxcKhXyxWHzAMIw3lkqlN6RSqTOJRCKfz+ftdDptmKap6boOXdeVUfZ9H81mE/V6Hd1uF6ZpKsM+mUwwHA7R6XQwGAwwHo+RTCZhmiaGw6FyGEKhEMLhsIpMEOQ8cAfC930VxbAsC7ZtIxwOqwgFVWAYhgHTNKHruopu3Ep1AABPhfi+7/uDwWBSr9e9w8PDXqvVavd6vVa32225rtvwfX8fQMWyrJqu681ut9tpt9st13XrmqZVJ5NJw3Xd7nA4dDudjt9ut/3Pf/7z4lAI/2rEYRAE4VXHz/7sz+pzc3P5crn874rF4g+USqXztm3PZjKZpOM4YcuytGg0qtm2rXbxpmliNBphOByi1+thd3cX29vbODo6Ujt7MvSj0QidTge9Xg+u6yIajcKyLEwmE3iep1ISuq6r1ANFDyzLgmVZyuiTkTdNE9FoFPF4HLlcDvl8HrFYbMrBCIfDcBznjsgFHZs7F7TmwWBAzo3vuq4/HA79yWTiARj6vu/quj4C4DabzVGz2RxOJpOeYRhdXdc7/X6/3e12W41Go9rtdrcHg8H14XB4s9vtVgaDQdcwjPGf/dmfSapD+KYQh0EQhFcFb3/727XV1dVILpebH4/HjyQSibek0+kHyuXyTLFYjMbjcdNxHNUvwfM8+L6vogRkYLvdLhqNBm7evImtrS3s7OxgMBhgMpmoaMF4PEa/30en08FoNIJpmjAMQxntW+WVADAlgtR1HaFQSD2fHAzf9xEOhxGLxZBKpVAul1EulxGPx5VTYBgGbNtGLpdDLBZTEQlyTCzLmopAkHPCnR3DMKbSHhShAOA3Gg00m03fdV0/FApNAEz6/f640+l4zWZz2O/3+67rdjzP64xGo/ZoNGqEw+F9y7Kuh0KhjVAodKhpWmM0GjV6vV671WoNm82m/4lPfEKiEgIAcRgEQXgV8K53vSuSTqfPLi0tvXlxcfGNyWTybDwen3EcJ5ZKpfRYLKbZtg3DMDAej+G6LprNJhqNBhqNBrrdLnq9HsbjMXq9HtrtNiqVCg4PD1GpVJQDQFEBz/MwHA4xHA4xHo+ndvkUNQAwFWWgn/PUBqUTNE1TKQyKIsTjcdi2rYw//TyVSqmIhm3bsCwL4XAY8XgcsVgMtm0jGo0iEokgEokoZ4EcEsuyYJqmuncUYen3+xgOh7jVbAoAMBqN4LouBoMBblVyYDwe+57nTXzfH5mmOdR1vev7ftv3/ZbrunXXdfd7vd5us9ncbrfbL9RqtRc6nU716Oho9Cd/8ifiPNzFiMMgCMJ3hccee0zL5XJWPB5fyuVyP5lIJH6wUCisFovFTD6ft8PhsH6rFFIZ/Ha7rQxgpVLBwcEBDg4O0Gw20Wq1pgSNnU4HnU4H/X5/SohIwkbXdafEiuQoeJ4HAKDqinA4rJwEeg4rrbxDm0ARCZ4CsSwLoVAIoVAI0WgU4XBYRRTosWQyiVQqhVgsBsdx4DgOotGockgcx0E6nVZOBZ2TIh10PbZtI51OIxQKTWkkyMmh6wWUYNO/9f1kMpl4o9HI7fV6g0aj0et2u81ut3vYbrefHw6Hf39wcPDPo9Go0u/33SeffFJSGXcZ4jAIgvAd5Yd/+Ie1UqkUPXXq1Ln5+fl/k8vlvi+VSt1n23YxmUyGU6mURjtwAPA8D+12G81mEzs7O+h0Ouh2u6hWq6hWq6hUKqjX62i1Wur54/EYw+GQdtYAoKIHnufBdV2Mx2OQWJLSELd24DBNU2kVQqGQeg5FN8iBIcPL0xmUpqBUBQB1PHJA6Hzj8VgZ/mg0ilgshmg0OhWh6Pf7AIBUKoV8Po9UKoV4PA7HcRCJRJTD4Ps+QqEQMpkMFhYWkEgk7hBn8oqOk9A0DZ7nYTAYoNfr+bd0E95oNGp7nne4s7Oz1Ww2Lw0Gg2dN07zYbrc39vf3W7/9278tzsNdgDgMgiB8x3jsscdC+Xz+nlQq9aMzMzP/Zm5u7vTs7Gy+WCzahmHoZDzJmLqui36/r5yDq1evotlsotvtol6vo9lsotlsqooHAFNGezgcKgPJ0xFkzCmKQM6E67qYTCZTwkbLspTRDUYXgJNLLmlnz9MY1ADKMAy4rovhcIhut6uOS84LOQ/RaBS2bWMwGMD3fSSTSeRyOWSzWSSTSRVtoHJQAIhGo5iZmcH6+jpSqZS6Nq6V0HVdrYUiFLRmctIoOsKuw/c8z79x44ZbqVS6nU6nZhjGzX6//1y9Xv+vlUrly7u7u0d/+Id/KI7D6xhxGARBeEV573vfq83Pz9u5XG4pnU7/cCaT+ZFIJHImkUhks9lsyHEcw3EctbsdjUYYDAao1WpKo1CpVNBoNLC7u4tGo4Fer4dWq4V+v49+v68cDEoHkFMwHA4BQBlsLmYEoHb3pmmqckva9VNU4V/akXN4mJ+MMx2HUhUU7aA13mpFPbVuACp94TgOACgngiIPkUhE6Rl830ev11Ovy2azWFhYgG3byiEIhULqX9JO2LaNeDw+lbpIJBKIRCLqOfQ4rX9vbw/1eh3D4XASCoVcz/PanU5nv1arPVev1//fer3+pfF4vFOtVnu/+7u/K87D6wxxGARBeMX4hV/4BatUKi2Vy+W3lMvl75+ZmXkgl8uVEolE2LIsnXa3AFRJJFU5HBwc4OjoCLVaDfV6HZ1OB81mE+12W2kTyCGgHTSJ/kajEUajkYok8NQDFypSqiAUCgGASlXwaglq7gTcTj1wTQQw3QWSzsfTEBQF4KkMXvVAayKHxTRN2LaNZDKJcDisKjOo3JOEj77vw3VddLtdtW7SMPAOl6SbICEliS+TySSi0ahaTyqVQiqVguM4iMViU9djWRZqtRr6/T5M06Sf+67rjqvVar/RaOwdHR1d9jzvy81m8x9ardbFw8PDlszNeP0gDoMgCC87jz32mHbu3Lns3Nzcj2az2Z/MZDLnHMcpOI4TjUajeiQSAfCSgW6322g0GqhWqzg+PkatVkOz2VT/drtdVdFwK7eOTqejDDBVGWiahsFgoASNXJTI20KPx+OpGRLkMNDPeFdGchjotbyJEz8m/T+YiuDaBtJTUM8G+uLwn8fjcSSTSbXjp7V5njclrnRdF51OR0UndF1X94P3fwiFQohEIsr5iMViiEQisG1bOU+O4yCVSiGdTiOZTGI0GkHTNMRiMaTTaXW/o9EostmsStvcek/GrusOXNetHR0dbe/u7j59eHj4nw8ODr7abrcHUmHx2kccBkEQXjY+/elP64VCIR+JRB6KxWI/USqV/vtUKrWYzWbDtm0bvCPjaDRCq9VCrVZT1Q77+/uoVqtotVqqIoKEiCRWJKeBDDmVJhqGoTo1cocBuN2+mac9JpOJ2rXzCAQ5ALTrp2MEHyMnIdhlkpdb0rkBYDgcKmeEUgPcqAd7MpCwMRqNwjRNlX5xXXeq/JN0Hjx6wY8NQKUjqLqCOzPkMFmWhUgkgng8jnQ6jXQ6jeFwqCIPxWIRlmWpXhOFQkHpLIDbXSrH4/Hk4ODAu3btWn1/f/9yp9P5O9/3/67b7T5br9c7v/d7vycRh9co5n/7KYIgCP8yjz76qLa8vGwnEomHZ2Zm/qdEIvGmeDy+ls1mnVgsZsbjcRWWHwwGGA6HU70SdnZ2UKlUlFZhMBig2+2qdAAZY3IGeMkiGVraJdOESV5OyAV89FrexInC+WT8gammSCq0zx0CXn3BX8c1CcHOjbyPAwkdg2JESmVQO2v6ngScFIVgBlodn6dP6NzUu4I/Rs+nNVAEwjAMRKNRpR0ZDAYwDAPJZBK9Xk91sqSGVxSNoMjFLSdE7/V6oXg8nk8mk8l4PL7qed7/EIlE/qumaX/9/ve//9If//EfD7+jH1DhZUEcBkEQvi0+9rGPWblcbj6Xy/3E/Pz8o0tLS6fS6XTKegkNmC7XazQaqNVqqFar2N7exsHBAfb29lTfBIoe8Lw8GdZgUyVeyki7aP4YfQW7Q9LuGsCUU0FGmr+WvgcwdVxunMng80gDHZf/nDsuvDKCHBLSHVCqgkc4ANwhnOS6DDon3Seuj6DXkT4CgErp+L6P4XCoKiQo5UOVJ5Zl4VYXSSQSCdUnol6vo1AooFwuK90DNaq6NfBLT6VSdiKRmB2Px/l+v386lUo9HIvF/q+PfOQj/8U0zaNPfvKTo1f20ym8nBj/7acIgiDcycc//nH9scceK506deotCwsLj5XL5UeLxeK5QqHgOI5jWpalkWH2PA/dbhdHR0fY2dnB9vY2dnZ2cHh4iIODA9RqtSmHgfQK3OjynTv/PzA95yGoP+DpAwrb87QDjxqcJGikn1PlBQ/98ygE73HAHQXedpqOzVMkPFICYKpCA4AaYjUajdSETe7M0BqD0ZTgevg9ofQO/znvQ0HOBZ1vOBzCdV30ej30+3202230+330ej3VWbPb7aoUEvXKAICZmRktlUqZjuM48Xh8Np1On8lkMsvpdFp/5JFHatlsdnDx4kXRN7wGEIdBEIRvmV/91V+1VldXH1xdXf3A/Pz8u8rl8sOFQqGYSqUs27Y1HtYnA1KpVHDz5k1cv34dN2/exP7+vtq5drtddLtdDAYDJQ7kzgIdi++keRSAjCftnnmlBEUUAEzt1vkxycCeRFD3EHQSgmkR7hTwPg9BZ4HOT4/z+RHcmaFQP6VzuK6DN4DijaL463lEg+4JpXX4eoLdK6lrJlWe0LhwGoZFFS2tVguNRgPHx8cqKtFqtbjDgEQiAcdxtFQqZWUymazjOGvhcPicaZpLmqbVzp8/f/z00097385nUnjlkZSEIAjfNL//+79vLCwszNi2/UOO4/yHQqFwIZPJ5KLRqMHTD2QEaVd8fHyM3d1d3Lx5U6UhyOi4rquEe1QNETR8PE/PHQcAU4aTVP3kRHCCugWuKQj+jM4dfG1QD8GvN9jAiUcuePkoP1ZQ20AVH6TFADCl3aDICzkvJ2k1+BdP4fDnEcHoCHfIaGAXiTQpzUFpCj7Ai8Z51+t11Ot1JaJMJBLq+m9dlzYej03bttPRaPQB27YX4/H4qV6v91dra2tf2N3d3f6d3/kd99v8mAqvEBJhEAThm+KXf/mXw4VC4XvOnTv3npmZmf9YLpcfyGQyqVgsZtDMh6DR7Ha7aDab2N3dxcbGBm7evKkEjhTGpvA4jZqmqADP+dMumuf0+S6dOxhkYHkPBToWPZ87DFTeGBQn8nPwpkeU6z9JsMjvQTD6wV8TdDB0XVc9EuLxOMLh8B1Nn3q9nhqyRZEG+uKpFtJA8MgBXQs/b/Ba+f2mNASlhegeENwhonQTddzkg8AMw0A2m1WVKHR/TNPUIpGIkU6nY4VCYSadTp8bDodr/X5/srCwcGia5nBvb++V+BgL3wbiMAiC8C/ygQ98QHvf+96XeuSRR350ZWXlf52ZmfnBWCy2EI1Gw5Zl6WRAeTXDcDhUI6Y3NjZw8eJFXL16Fbu7u9QpcKoskc934A4AgDvSD0HtQFCDwPUGPMrA8/1BjQE3sDxFoeu66oiYyWTUREkujuTXTvBoCMHHWQejGtRcib74/IrJZKL0ApQe4PBj8XNwo86fx9fE4Q4F3QPDMFTUg7fIJoeMXsfTHpSqIPFkr9dTzbdIE0Glo5FIRLNt2wqHw+lQKLScSqXOZjKZTDqd3r3//vs7Tz/99Pib/6QKrzTiMAiC8A35xCc+YZ47d25pbW3tbbOzsz+fSqXeEAqFUoZhmAA0XspIhpoqIfb393H9+nVsbm7ixRdfxOHhIQaDgSrjo9bFAKZSE0GhHv8CMPV/ghs4eg5FJE4y5hR1CLZvDqYJDMOAbduq9wCVD9JxeDtqYLrjIzfUXPxIa+QRBmr9TC2b6TUULSGHgbQLvMoj6ACcpEkI/pzrKcjx4ekJ+pccBj5bA7idBqJUQzweV22lAaj23p1OR+lUWq2W0lDQum8NztJ0XdcjkUg4FArlDcNYDYVCy4lEQnv44Yera2tr/WeeeUZEka8CxGEQBOFEnnzySXN9ff3+xcXF/2V+fv4n0+n0Gcuyos1mUyX3eVUC9VbY29vDzZs3ceXKFVy5cgVbW1uoVCrwfR/xeBzZbFYNTgKgGjiR00DGi0cOANzhSACY2uVzA8qfc5KgMZgWOKl6gYw7GXJqoHSSCJLKGYNRCnJM+MwKXmJJzzdNU6UkeL8HAErsSGkIej6/Vv4VrOoICjVZWmBq8FTQEeNpFu7k8J/RWO5yuYyFhQXkcrmp+Ra8nTdVVFBzLRK5klNi27Zm27Zh27Zj2/ZyNBo9nUgkyr7vHy0vLx8/88wz0vDpu4yIHgVBmOLxxx/XHnzwwUihUHjD/Pz8e8vl8g9EIpHMaDSyms2mtre3h3Q6jUwmo3bDg8EAx8fHqFQq2NjYwPb2NjY2NlCtVjEajWCaJnK5HIrFosppd7td7OzsTGkXaPdJYj5g2rjz9ASAqZA+/ZxeQ7MWgjl73mCJh9J5B0TeFwGAEgFyESZFDYKOzElpDXIUuOMS3OXTefr9vlojFz/SerhDdZLDwNfCS0j5+U/qGxF0GPh9o5QRpSZoOFYikUA2m8XS0hKWl5cRDodRrVaxu7sLAKhWq+j1eiry1Gw2VRtwaje9traGcrmMTCYD0zS1TCZjxuPx5GAweKDT6cw7jrOWTqf/8/z8/N/1+/3qZz7zGUlTfJeQCIMgCFO84x3vSK2urv6PxWLxsXK5/G/T6XRuMpmY3W5Xa7fbaDabsG1bKee73S62t7dx/fp1XL9+HS+++CJ2d3fRarUQDoeRTqdRLpdRKBRQKBSQzWaRSCSg67qaSnl4eKgchpNy7fwxbmj5Th2A0hwkEgk11ZF3MeRGk7+Of891DeREUGqAqjhol0yvI4cAmE6ZUOUDnfsbXQ85Kb7vT/WfoAgOrYXOE9RtcAeAH59ey9MKdBw+5yKYwuHRCACqJJO0BxQRicViyGQyWFhYUIaf5l+YpjmVeqJKD+ClsleaODocDpVTAbw0cTMej2vRaNQMhUJR0zTnTdM8E4vFSvF4vHHhwoXqF7/4RXEavgtIhEEQBMXnPve56IULF35iZmbmF8Lh8NlYLOb4vm9Q+ZznebBtG5PJRIWZ6/U6rl69iuvXr6NarWI4HCIUCiGfz6NYLKpBRrquqwFI4XAYvu/DcRzVujhoAIPiR+4g8J00dwAsy1JzDiKRiNrZUoUB9REINoTihpIbX13X75hNwasryBExTVMJ/oLllOR88KhDMPJBryWNAhnbSCSCaDSqhKHU06LdbqvUCBHsJEmOADkZ3Cmhe8fbU/P7wcWNPMpA5ZR0n+i84XAYiUQCs7OzGI/HyOVyyGQyqqMntf9uNBqYTCYqvVKv11GpVBCNRrGysoK1tTXMzc1hZmaGhmQZ5XLZcRznfLfbLbfb7VOlUulPf+3Xfu2L+/v7/T/90z8VbcN3EHEYBEHA5z73OX19fb1oGMaPlUqln0un0/frum6Px2N9OBwqQ0vq+EqlAtd1Ua1WUalUsLW1hYODA7iuC8dxkMvlsLKyglwuh3g8rqIRt3LVKs8dLA2k3TYP/QfD5MFZCHz+AoW5y+UyIpGI2r02m00At50DbrTJQAZ310EBI+2yPc9TDgAvpeQiSkp9UH6eHuPn5k4Sd1b4NfM0AF0jNVCyLGtKnEmREZ6+oTVyB4iuj5o9cWeBO0VcB3JShQp3nkj8SLoUWm8mk0E+n0cymYRlWdjZ2VENpkhjUa/Xp1I75Ewkk0mqUNGy2azlOE4xHo9/v2VZWU3TTjcajb8pFovXP/nJT0q04TuEOAyCcJfztre9TSsUCjPZbPYd8Xj8pzOZzKlwOBwZjUbacDhUYWMyVEdHRzg8PES1WsXR0RGazSb6/T5830c2m8XKygrm5uawsrICTdNUqoEMejQaxWQyUd0fW62WEvOdVJrIDTkv4SSDRYaUBHiZTAbpdBrRaBTD4RDhcFiJMklkxyMAfNcf1AYEowE8rcDD+LQmnmLgUQhyBLhegAwmv146H3V27Pf7qpETN/rkcNG56R5QrwjueATTH9zp8jxPzZGwbVtdD71n3Kkh54f3rAAwdb2UwrBtW6We6L2gtdFQK+qRQUPGjo6OMJlMcHx8jOPjY+TzeeTzeZTLZaTTaZimqScSiYRpmg/Ztl3c2dm5p16v/6cPf/jDX97Y2Oh//vOfl2jDK4w4DIJwF/OZz3xGm5ubK62urr6jXC6/PRwOr9q2HdY0TSODQumIWq2GZrOJGzduYG9vD0dHR+j1ephMJkin08hmsyiXy1hfX8fs7CyKxaJq6NPv99XQIsuyVHRif38fx8fHU7thz/Om8vTc6FEqIzhPgdIdlPMPphHo+cB0oyc6LhlDXvJH18/D8nyCJHC7CyMZ7mC4/iRDza+V6yqCbZnJqaLroXPz9XAHhM7HxYy8rJSMfFCsOZlM7nCcaB0kRqV0TzabRSwWo3QBisUi5ubmkM1mEQ6H1RrIqSCdA43WdhwHrVYLR0dHaLfbqnkXOY2Hh4eqd8Px8TGazSZGoxF6vR6dQ3Mcx45Go6u6rmc0TVstl8t/sbq6+jenTp06+vSnPy3RhlcQcRgE4S7lYx/7mH7PPfcsLiws/GyhUHib4zirhmGEdV3Xgo2SqtUqNjc3UalU1LCofr+PSCSCVCqF+fl5zMzMYHZ2FktLS8hkMkqf4Ps+bNtGLpdDNBqF7/sqt72zs4Pj4+MTQ+A8vE6dFilawJ/Ld/5UoqlpmtJauK6LRqOBbreL4XA4Je4Dbuf+aa10XL7bBqB6MtBERvoZj46cFCGh3D8XRQJQRpRPiaRIDd17Shv0ej3V/TFYMklpEm7wgykdLsoEMJWK4MJRPlrbNE3lMFCkZHZ2FslkUk0FLRaLWF5exszMDKLRqDo+f08Mw0AikUA4HEYqlcJoNML+/j52dnawtbWlIg50z6jpF2CQDncAACAASURBVL13ruuiVqthZWWFohZaOBw28vl81rbtR5rNZrrRaJw2TfOvnnzyyWeefPLJ/sv5eyLcRhwGQbgLefzxx7WFhYVyuVz+uUKh8NOO4ywZhhHyPE/jdfK1Wg07Ozt47rnnsL29jUajAdM0lVagVCphZmYGMzMzKBaLyOfzqseCaZqIx+Nqp5tOp6HrOvr9vpovUa/X0ev17giT85y+aZrKUJPojs+WoF02zaDwPA+dTkcZYqrk4PMXyOhyXQFFJEijANwWAHJHIFgeCUynE+j7YL6fnAZyIMjZIl3CeDyG67pqfXQcElJ6njclXOSRAPo5XQNvsMRfyyMdQYEkOQxUAUGpI7pm27aVLiUSicD3faTTaczNzSGVSsG27W/4eaNKFXIqqOcEpWtCoRCazaaafEk6Brov3W4XlmUpAeut+6al02k7FoudcxwnPx6Pz6VSqf/tU5/61P9z8eLF/l/8xV9IiuJlRhwGQbjL+NjHPqY//PDD84lE4u3pdPqno9Hosmma1mg00qiSwHVdNJtNVSZ55coVtNtt6LqOxcVFJJNJOI6DhYUFzM7OIpvNwnEcNQeBogN8kFI4HMZgMFAhaL7jp3B2cKdOxoQfkwweiQnJYJLOgnQK3KhTmoMcEL6DpwgBGVYSUpIxCzZbCjZW4o2NeHQgWMFB5yOnxbZtRCKRqXQA8FLkgRwfamTFqxl4pICnF7jDFUwt0DEIrmug66DoAh2LIg10L0OhEFKpFHK5HBzHURUzQQeHjs/hZZ4A4DgOgJccCXqPb9y4oXpy0IwR4HbaxzRN5VB4nodkMol4PK6Fw2FL07TSzMzM9zmO4yQSidTCwsJ/OX/+/MFHP/pRSVG8jIjDIAh3ET/2Yz+mlUql2Xw+/45isfi2dDq9FAqFrOFwqFFOudFoKEHilStXcPnyZRweHiIUCqFQKGBubg7FYhGZTAYzMzMoFApKm8AbFJFIkXbrZFjIYaBdJDBtYMiAUmQhGo0qwwJgqvSRIgOkIwhOZgRuNynioXae4yejTMbYNE0yRiptwHfsNCiLRHtBp4AbR/oZL6uk6gmuP+AdLqkZFh9hzY9HRplfW9BhAW6nPnhVRlDUSd9zx4yPBqf7RscLdo+k0khN05SzSOcMpmf4WsgBpLQRtdumcx8cHKh7RY4TaVdGoxFisZiacXGriZSez+djyWTyIdu2k7qur7mu+5/e/e53X/7zP/9zcRpeJsRhEIS7hA9+8IPa6dOnM2fPnv2Zubm5t2Wz2RUAoV6vp1HzpHq9rvLLh4eH2NzcVF35ZmdncerUKdx///0ol8tIJBJwHEelCrjhJGPId8NcRNnv95WBpx4EvJEQ7cDj8bjaxeq6rhwMOg8vseSGk0cAaMdNYXmKEPBplqR5iMfjSCaTWFhYQCaTUY2H6DpoTgYZNOpNwfUQvDKC7+Ip9cFTE61WS3V3pP4QvMES5faDsyOCKYRQKKQcD7qnwfQDT0/QFz8O9ZwYDAbqHLZtT/WWsG0bzWZTpSRI+7GysoJYLIZEIqHWyB2G4P95J825uTk4jqOEs5cvX1b3udvtIhqNwnEc1Z8iFoup95MiEbeiI1osFouYpnnOcZxMNpud9X3/s+fPn3/2V37lV4Yv6y/TXYp0ehSEu4BPfepT+j333DO3tLT0tkKh8K5kMrmm63q41+tpx8fHyknY29vDxsYGNjY2sLe3h16vB9M0cebMGdx33304deoU1tbWVG09dfQLdhk8yWDQDpFmCly5cgWHh4fo9/tTKQPa7dq2rSILXIAYnI/AxXvBSESwIRM3ulwrQaJM6li4traGhYUFlMtl5PN5FAoF5PN5pFIpJBKJqdJCWhdv6MQHTVGfiGB0gdpN0xdFROj4XJcRrKggB4V3bQxGEYJRCZ6e4GkOvkaebqH7TDt8mmlBfS2o6VKj0QBwO71AIlHgZL0H3X96nMpBo9GoihpQ2ga4HdXh6aJUKqVSKDwaMx6PNV3XjUgkEtc0bc73/XnHcToPPfTQQTqddi9evPiy/l7dbYjDIAivc97znvdo9957b2FxcfFdhULh3Y7jnJ5MJuFms6lVKhXs7+9jf38f29vb2N7extbWFvb39zEajZBOp7GysoI3vOENuO+++7C0tIRCoaBK5XhqALhzPkIwp82rL65cuaLK60jsR8aWmhVRF0hKO5BOgTsBPCzPhX3BXT0J7SgcTpimiVQqhcXFRdxzzz04d+4cFhcXUSwWkUqlkEwmkUgkkEwmkUwmkc1mEY/HlSiQwuTk9PBx2XRuPteCDDsZwWDFBwkDg7M1gu2c6XG6VjKovP8CcGcZKXdkyFjT8QFMHYO/Z3wCJXWbbLfbqk8HRUn6/b4y+Py6g3DHkt4/mk9B951SHBRxoFQWldCSk0I9K0jcatu2HolEbNu2Z3VdX/Rf4ubq6mr/q1/96svye3U3IikJQXgd8+EPf1i777778rOzsz8zOzv7H8Ph8KnxeGw1Gg2tVquhVquhUqmgVqthb28Ph4eHODo6Qr/fRzqdxtLSEs6dO4cHH3wQS0tLSCQSU50DTzIEHG60eIkkqe4pneG67lRnRN6VMFgVQcfjaQAe4aCdNEUcqBcA5b3JCeE7+0wmg8XFRaytrWFlZUVFTgConTitz/dfmrqZyWRUaoG+eHg/KIqkqAKVYvJ18tdRpIGnWcgBOakyguA/4xUQAE6cHUGP8d4QwT4SFBUi/Qlv4kTPoeZPFHWgyZVLS0vI5XJIJBJKH8EbPgW1GfTeUyvxfD4Px3FUl9BqtYrj42O02221HnovaVYFiWuj0ShisZheKBQSoVDoEcMwMqZpZmdmZv6PaDS6/Qd/8AdSQfGvQCIMgvA65fHHH9cuXLgws7Ky8rZcLvfuRCJxajQahY+Pj7W9vT0cHBxgf39fNWGienhd1xGLxTA/P48HHngAFy5cwNLSkmrVy+v2gZPHRxN8N0yNiPb29nDjxg0899xzODg4QL//Utk8GXPukPBcNzULIoeCGxva2ZMBIVW94ziYn5/HysoKlpaWMD8/j7m5OZRKJZVmyGQymJ2dxfz8PBYWFpDNZqdC88EZEoZhqJJIHmEYDAZTVQwU3eCO0ElTOOnayYHi94siFCQK5L0ZToooBKsoAEyJOCnNQ1EQPhiLR4e4c0FaD54K4qkRcoAo6tBoNNBsNtHtdtHr9abeS3LCgmvk56WIDFWREBRdaLVaqNfrUxqKYMqG7sOtkdmmaZoZ0zTnQ6GQMR6PX1hfX+99+ctfFqfhW0QcBkF4HfKBD3xAO3v2bPLee+99V6FQ+LloNHra8zy7Wq1qN2/exM2bN7G3t6fEjSS+i8ViKJfLWFpawvr6Ou69916cPXtWRRaA6bTDNyqj449PJi8NG6pUKrhx4wYuXryIS5cu4eLFi6ppE41LJmeA90HgxpDvtDm0G+ephnw+j4WFBZw9exanTp3C/Pw8isWi6hlRLBZRKpWQz+cxMzODXC6HdDoN27aVEaQdfLDZUzgcRjweV8bb93202221q+cVG8Dtpk/cqPH5D5TD51UKlK8nh4EiA7xlMzfgweoLmu2Qz+exvLysqlvS6bSqAOFiVR6NoJ/x94CnQbhTQ5EOmttB3T273S4ajcZUFQsvbT2pkoJHHciJooFlVLHheR5qtRpGoxH6/b5KU5FDQo4loNI6mu/7umVZqVAotBAKhUKJROL6Aw880P7iF7/4Lf5m3d2IwyAIrzM+/vGPa/fff3++XC7/1MLCws9HIpF1AOFGo6FVKhVQdOHo6Ag7OzuoVCrwPE+NKl5aWlLixvn5eeRyuTuGLAF31tYDmDLk9H/XdXF8fIyrV68qR2FjYwO7u7vodDoAoBwGyqeTCp63dAYw1UOB4EabDF0kEsHc3BxWV1dx+vRpzM7OIpPJIJFIKD0C/ZtKpVQPiaB4kIsBCQqF84ZLAHB8fKyMI62Hv46cIXK8aO0k8qQIyWAwUP0peL8Jen6wLBLAVIqAnuc4DvL5PObm5rC+vq4cplQqpUog6Xq5XoKXnnInketSgi23KfJBTg2VzHY6namqGLqfVDoavEfcGSXHgtJK5EQAL0Ub+CTSfr8/1X6aOoq2Wi10Oh24rqtpmmZEo1EnEoksOo5jzczM3CwUCo1//Md//GZ+rQSIwyAIryt+/Md/XDtz5kyqVCo9msvlHksmk2fG47E9GAw00ivs7e1hb29PiR273S7i8ThmZmawsLCA9fV1rK2tYXZ2Frlc7l8UNwZ3+vx7EqK1221sbGzgmWeewfPPP49r165hb28P9XpdzSkgo0A7SS7k45EFvuslA8bD8rZtq1312toaTp8+jcXFRWQyGRWOp3NRyJt29iTQ47t2nvvnQ6sIfj/IYRgOh6q6gdbKOz3ScXhXSfrZZDJRzYt4SoL3WQCmR1nTvQmmOwqFAhYXF7G8vIz19XWUSiXkcjnVdIuMNgDVRIucJG7Mg5oVWjsXRhL0PKrw6HQ6KtowHL5U2UjH49fCX89THvTZCPZdIGeJohiNRkOVo9q2jWQyiclkgsPDQ9VB0jAMOI6jp1KpRCQSWQiFQpFarfbigw8+2PqHf/iHf90v3F2GOAyC8Drisccei+Tz+R9KJBLvM03z/mq1GqnValqj0UC9Xkej0cDe3h6uX7+O/f19TCYvDY46deoU7rnnHqyvr2N9fR3lcnmqB0Iw5RBMR5DhIP1Ar9dDrVbD9vY2Njc38dWvfhVf//rXsb29jWazqcLIZOgoukA7W5o+mUgkkMvl1OTDaDR6R+dFrrSPRCKYnZ3FmTNn1K46nU6r0DsXA9IOmaIE/Fh0PB5R4c4CGTbKt4dCIVBLbSobJYPK5znQ8cixcF1XOQTUo2IwGNzRSfIkASd35KhC45ZRRDabxdraGtbX17G6uoq5uTkkk0kSA6pIC72/3W5X9ZSg95H3lwhGkggujgwKMnkZLE09rdfrqh2467p3CGHpXByKStC153I5lEolJJNJ6LqObreLer2OdruNZrOJwWCgUju8zfSt90uzLMuwLMsxTXMegJnL5a7fd999rS984Qvf9u/f6x1xGAThdcJHP/pRe3l5+XsNw/gAgIe73W7s6OhIpz/O/X5fTYjc2tpCt9tFoVDA8vIyzp07h/X1dSwuLmJmZgbxePyO8PlJOgWKAnS7XVViV6/XcXR0hN3dXVy9ehXXrl3D888/j5s3b6pQMi+LPKnMLx6Po1QqYXZ2FnNzcyiXyyqcTtEBvjOlMHosFsPS0hLuvfdeJdQM5uL57p6MdjB/zp0HbgjpMXJaeCoBgNI+UCdI3q2RR2i4RiIcDkPTNKUBoGZSFI4nA5/NZpHL5ZDJZFRagXL85LxEIhFks1nMzc3h9OnTWFpawuzs7FTVh2EYiEaj6jHf91Gv19VUUeq7wBs70bp5RUqwSobuER/YRecjZ4g+H9R+nCJM/Pj888a/KJWRSqWQz+cRjUZVhcdgMFDXMBgMVNUE3X/SOFiWRes0hsNhQtf1ku/77mAweDGTyfSfffbZb/v38PWMlFUKwuuAD33oQ3omkzkVCoV+vtVqvfHw8DDuuq7ODcNwOMTOzg62t7cxHA6RTCZx7tw5tRun0H0sFpsyrry3AUHqeSpN3N/fVz0Vms0m2u22ck6azSb29/fRbreVgQiG/WmXTCWL6XQaa2trKJfLakCTaZqqZXWlUsHu7i4ODw+V3gGAMiblcllVO/DdMm/kxEPrQV0GVQTQYwTfDfMIhG3bKJfL6Pf7U6O1qUsiANWlkmsAgpUGtOum0Dpdz8zMDPL5PBKJhHKABoMBms0mGo0Gjo6O4LouQqGQEnsuLi4im83Ctu0pISU5OKFQCOl0GoPBQE2g5G2qeaUIFysCt9tEE+T4kaNB//L0g6ZpGAwGqFarcF0X+/v7uHz5Ms6ePYvFxUXMz8+jVCohGo2qqhB+3+k++76vZnBQ34Z4PI5Lly6hUqng5s2bMAwD2WxWOZkUlSE9TbvdRr/fNxYWFlaSyeQ7lpeX25qm/Z+JRKL11FNPSfXEN0AcBkF4jfPBD35Qy2QyxXg8/lOe531fv99P1et1w/M8VQMPvCQU29/fR6vVguM4KBQKOH36NM6cOYPV1VVks1kV5uaNf/iOm5fYUe19s9nE5uYmtra2UK1WVci5Vquh0+mg1+spw8nFesFmS7TzzeVymJubU5UNjuMogzEcDlVTH27Y+/2+6gBIX5FIRKUJyLjRv9xp4FEEumbuMJCRDKYs6L7SY8lkEjMzM/B9H71ejwvuppwHfh5yOngFAeXtE4kESqWSMv7UXZN2yXT/G40GkskkhsMhdF1XEYZcLodYLAZd16dEjeQEUoqDz83gszVoEBVdI+9eGYzA0HMoNUL/p1bX/LW+76PRaKBWq8EwDPR6PRwfH6uGTxRB4eWzwd4QmqYhnU6rqAFdVyQSweHhIXZ3d5VjQNoNcsJovPat34OQ4zinM5nMeyORSDcWi/3fTz31VPOV+l19rSMpCUF4jfMjP/Ij8VQq9ROxWOydnuctep5nWZalkVMwmUzQbDaxsbGBra0tGIaB2dlZrK6u4oEHHlDOQlCvEKzrJ9X74eEh9vb2lD5hc3MT165dw8bGBo6OjlCv19FqtZTYjHLyZCx4oyJufHO5HJaWllTPhHK5rPQHXGhIO0uCQvihUAilUglzc3OYn59HOBxWKYegUC8YbQBuCwq54p/0FFyExyMj9DoSC5IhphQDTzPw9tG8uoG6GQK3ezc4joNSqYSzZ89ibW0Ny8vLKJVKyGQySrBIgk2q8HAcZ8phokoIcgB5+SVFdUzThOu62N3dnYoSDYfDqUhQMGXDS0MpHcPLL3l05qSGWnStk8lE6SdIv+F53h2TQgke7aGfm6aphKt0zdSNstVqqdJLTdPUsCuaynprfUY0Gs2m0+l8q9U6KhaLG1/+8pdlYNUJiMMgCK9hnnjiCWt5efl7UqnUE7Ztn/c8LxoOh7VcLodisYhIJIJqtYrNzU288MILqNVqyOVyOHfuHE6fPo177rkHpVJpqjoBuO0skJGnQUnVahVXr17F5cuX8fzzz+PKlSvY2NjAzZs3cXh4SKFeJTSjkkOei+bVAnSOVCqFlZUVnDt3DqdOncLs7Cwcx1GpFCqdox0raQfI4NHjuVwO5XIZhUIBpmliMBhMCRu5fiJYmhjULAC3uzQGhZ/cEPLHaYAV6Qpc10W73Ua321U5e+5g8EFVdF7DMJTzdP/992N5eVmVhUajUbUWEgLG43EkEgnEYjHVspqqQehe8/eA33u6f+Qs0AAy2u1zB4A7D/x4dO+4eBTAlJPF23vTe05iT/pcHR4eqr4NwV4VPPrCj08OF4k4U6kUotGoKuXc39/H8fExWq0WAEyNWx+Px+h2u5hMJprjOEY+n8/pup4KhULPvfGNb6z97d/+7XQJiCAOgyC8Vnn00Ue1tbW15WKx+N5MJvOD0WjUsSxLpx1mOBzG8fExbt68ievXr2Nrawuj0QgzMzM4e/Yslm51PkylUlPhXoI/1mq1sLu7i93dXVy6dAnXrl3D5uYmDg4OlIHhI6bJOPDyRzJQ9EXNhRKJhEpBrKysIJfLqZ4IlFOnvgQ8B0/GnUSduq4jnU6rqgrKqfMJjjyyQPAdPxEUQPLHueHiXySC5P0NBoMB2u22ijLwVAdFL/hsCxIvFgoFrKys4Pz588hkMipnT/eD7i+tn/pPnDT0ikcAgtdH4sBKpYJqtYqDgwM1G4JrNOge8coH3vmRNA1c78CbSfHzkuNGTgi9t/QZojQSvW+hUAixWOxEAS6tj0oqyVmi6EWlUlFpMV6VQwJKij6FQiEtEolYuq5nLcuyIpHI9Xw+X//KV74iegaGOAyC8BrkLW95i7a0tGSfOnXqZ4vF4s+kUqlyPB434/E44vE4NE1Dt9vFtWvXcO3aNdy4cQO1Wg3hcFhVEdAIZ95Eh+fyaWc4GAywu7urjnPlyhXVIZLGC5MBotA7N2g8bM1LCyeTCZLJJEqlEtbW1rB0a7AVlU4Ct8V1vOaf/8z3XxoxTWOgaZeZSCSgadrUlEM+o4Eb+eAXwSMPwZA8gDsMKsF39BRhoNbRfBdOhp6mNBKWZSGfz2NxcRHr6+sIh8NTxpocBjKsFJUg6P88ksBbSXOHxTRNjMfjqZJbahFO95oLF/n7y+8rr6qgY/Pz8/vD107robJX2vX3ej2l/+BNvfj10fvB3wvSZZDzRukwz/PQ6XTQ7XZVlIuX2t7StmjxeNyORqNlTdPcwWBwMRqN9q9cufLN/2K+zhHRoyC8Bjl37lxocXHxv5ubm3trsVhciMfjhmVZ6g/u8fExDg8PcfPmTezu7qqQbDQaRTqdVnMUePOe4L+8FG5zcxNXrlzB7u4udnZ2VFSBuvfxDonBhj58R8/FfdRgaX5+HouLi0qoyEVswY6JQSMOYKpcjiIXNP0y2GiJXx9w26jSmui4fAfMz8tfH0xp0PWREad7XS6XVRMjqpSgc5PxIh2D53lTUQcqe+SpHR49oPvNKxb4OrmRD5ZJ0tppZ87HlfMqEv664PtK7yf9nO4jn1HBX88jDORw8NHfvu8r3QmltwBgOBzi1KlTyGQyUyJUfp0UYdE0DYuLi7AsC/1+H/F4HDdu3MDW1hYqlYrSl5TLZczNzUHTNPT7fRwdHSGVShnZbHZO1/Wfuv/++/cMw/j83Nxc+7Of/axEGiAOgyC85vjABz5glMvls3Nzc++bn5+/N5vNhm3b1nzfR7/fR6VSwc7ODra2tlRHRc/zYNs2MpmMmqGQzWaVcQ4K2ij/3mg0cHBwgBdeeAFXrlzB3t4ems3mlEGl0Dvlp7minowMhap5oyLHcVQTHnJe+A6fjs31AkHxIRlSLk4kI2ma5pRmgQiK6Hjonjs7/Bq5kwFgykHi6+LhdioDzOfzGAwGODg4QK/XUzta3skxFAqpCgPejIkcAe4o8HbNPM0R1A8AUM4LTw9x0SEZ6kgkgkQiMeWwBcsi6bh0rZROIOeCnC9y2sgZJcEhHZdPASXngK6LyiZbrdZU6qXZbKr3l/e+4I4PrTMcDiOfz6sIAvWroPLenZ0dtFotHB8fI5PJqAZQrVYLvV4P+XzezOVypxKJxLs7nc7BeDz+AoDBv/LX9XWFpCQE4TXED/3QD2kPPvhgYWVl5bHFxcV/PzMzk0omk4Zpmuj1eqhWq9jY2MDVq1dx/fp17OzsqHHAs7OzuHDhAu6//36cPn0aiURianfIw+6j0QjHx8d44YUX8JWvfAVf+9rXcP36dVQqFXS73akdK3A7l8wNKxlTngrg0QaqZqCeCST+o+PxyoJgOSYANXyIws6maSKdTqs2wsHqBx4aP0l7cFJHS56mCYb1T6ogoOukslNqhOR5nmoqRI7GcDhUa6aSRpoWmkqlVHkkPz45KlyIyI04jzjQOug+cueL9Atk+Ok5XPRIrZxPEjrS54VrRMjR4tUQFO0Bbnes5E4Nd3T4/efvSb/fR6PRmOrvQJ9d+nzR+8KdFoqcxGIxpWugCBxV8VDFSTKZRKFQUM5ILBYzY7FYBoAdiUSen5mZqcrMCXEYBOE1w1vf+lbtwQcfdMrl8luXlpbeXi6X55PJpGFZlua6Lmq1Gm7cuIEbN26oqoVqtYpwOIxMJoOzZ8/iwoULWFtbQ7FYnMqbA7dFcePxWPVsePbZZ/GVr3wFOzs7OD4+VtUPwTK9kyoJTtrx0usMw8DSrdJJKhXkuWlKC/BdPk8vkENBLab5Ltm27akxysE1EPxxLg4MOho8jM6dBSKobaAIB5VV0i650WioDoc0YErTNOUs0eOGYSCZTKqKD1orfQVTBfRznkrh6w0KLYOiTXqvRqORGnNOZYlBZ5LfO1oL3f+TJlDyKBGlDDhcREqfH179YFmWardNnz0AyOVydwg66XMVfF8pokWO0WAwQLfbRbfbVdGdfD6P2dlZtS7LsjTbtkOapqU0Tet5nvfs6urq8Etf+hLuZiQlIQivEZaWluzTp0//QKFQeHexWFxOJBJGKBTSqONirVbD1tYWjo6OVOWA67qYm5vDysoKHnroIZw5cwbFYlEJ6YIhd0pr7O7u4saNG3jxxRdx7do1tYvn4f6gcBCY3sUHQ8bBn9m2Ddu21R/0oBHiBvokg0VGkB+D2gV/o6gCwcWdPBcf7NXAXxd87BulO/h9pYiKpmmqb0K9XleGnEd4+LXR+YJtq/k6aJ20U+fXG4w28LXxKA3XUFD76Uwmg3g8rs5F1QUAplIBVOLJezvQuUkYyR0F2r3TfaO1B6MWZNiHw6FKE1Gkie5nsVhU0zdpkuVJqSrqzVAqlVRfBko9uK6Lg4MDxGIxlEolLC0tqajGreiQZllWMZlMPppKpa5ls9m/AtD/Fn9tX1eIwyAIrwE+9KEPGffdd9+D58+ff08ikbg3nU5HwuGwpmkaOp0O6vU6dnd3sb29jVqthsFgoMLOKysreNOb3oSHH34Y6XRalf3xP8AkPHNdF5VKBVeuXMGLL76IF198EdVqdap3QjCqwA1RUFPAQ9VcvU9lbbxXAA8x85180GEg404GhwwXNfkJGs/gYwQ3vDx9ElT782PxY3DHgO4lD8sH10/jlwEoZ46clGB6gww1VSvQc3gfBzo2fx9ozXyNQceC/k/PpUZYjuMgnU4jnU6r7prc4aHn02uoGociSfz41AfhVsniVO8Meg2tLzi+m17HIyOTyURNNyUh42g0QjQaVQ3HuLNGFTrUGp1KbHmJJZWT7uzsIJFIIJ/PY2VlRY3GbjabSCQSViKRWJ+fn38PgI3f/M3ffObXf/3X79qmTuIwCMKrnA9+8IP66dOnVxYXF9+Rz+cfdhwnEgqFNBIR1mo17OzsYH9/H4PBQDU5mkwmmJubw/LyMpaWllAqlZRR5QaQjAC16L1+/TouX76MdgcvOQAAIABJREFU69ev4/DwUFVCBCMK3EgFqxYoB83LK0mERn/UudgweJxgdQP/nowJnYs3P+Ktn4mTcvD8WNzoccPNn8d35cHUCzkLdHwAU84DPc6rBrhYMdhnwnVdNbb5+PhYzY8gnQa/rpPWS//ycD3dF+4k0uMU7aFBV9T8ic5Baw+Hw6qDZDKZRCaTUU4CF1eOx2Olm6EoQdCJoc8dvX8klKR7clKDK4p+NRoNbGxsqLX6vq8mcdK95p8nEp+mUinMz8+rUmD+Hu3t7eHrX/86otEo8vm86pCp67pmGIadyWTe4HneWzudzi6AvX/p9/X1jGgYBOFVzPve9z7toYceyq2vr//Ps7Oz/yGVShWj0agBvFRqRn88b9y4gb29PQyHQ9TrdXQ6Hei6jvPnz+PChQuYn59Xw5iClQZkMKkj5Ne+9jV87Wtfw/b2Nur1+lSIm/6gc0PPHQlq00t182QEKSTPlfWnT59GoVCA4ziIRCJ37NiBaQciGCXgDgpFKYLhbm44uCEhQ8ujH/w6+Dlol07GJ+jgECdpHsiAuq6LVquleh00m02MRiOVCqAwPglK6TzU7ZI7HHyNPNVDEQlyXnj55Un3gP9LDhf1Y2g2m9jd3VVpnlQqhWKxqJzPpVtTMPP5PLLZrOo2SWkX3iuDr5ucAloLaQxOSgdxB4IcXZ7m4vedoje8koRHh+j8pG+hn5PDWKvVUK1WVZQlFovBcRxq862FQqFQOBxOANhKp9NXv/SlL92VXSAlwiAIr2IuXLiQXFpa+omZmZlHM5lMORKJGPSHt91uq+6LJFajkK3neUilUjhz5gzm5uZU6VgQTdNUqHZ3dxcbGxu4fPkydnZ2UK1WMRqNplILwcgAL53UdV3ljHnDIB5lAHBH+SCFkrlIMrjbJ/j3QcEf/z/PZZ903UEnhO+kuXPEQ/o8ZXDSsThcO0D3i0SN1CaajkWaECpLHQ6HKsJQrVaVUfU87w5hIXdc6F6TY0NNjGh3TsfghpscIaosicfjSKVSSKfTKBaL8DwP0WgUmUxGTc0kjQNFjDzPUwPGSNQZCoWUDoHEirQufq+5IxGMPPDqCrqXVF3SarWwt7enSnGpwyb18uCfI/os0GTLUqmk7gel7mhg1bVr1zA7O6uumaI0tm3rpmkuFwqFRx966KH/77Of/eyNJ5544q5zGsRhEIRXKR/60IdC6XT6+3O53DszmcxCNBo1KXRLdf2XLl1SdeW9Xg/1eh2DwQDRaBSFQgFnzpxBqVRSIjaeEgBeKk2kts8vvPACrl69is3NTdRqtan2wFztTn/o+S6OwsqxWAypVEp15aOQOxet0a6OXhN0GOg8PJRO8Pw7GVwu6qP1caeBDBXflQcFifz13CDzNQd1DbQGuq98TUFnR9d1DAYD1ZWS5+dHo5EaLU1rp8ZF1WpVTZSMRCLqXFw8Suuk+0XpDtoh084bgIru8FJLuoeWZSEWi6FQKGBhYUH176DHisWimoBJjaZorVQRQg6DpmloNBrqumltJCrknx8uvKXrp2uia+QRB7qOVquFw8NDJXqldVH/h6DuhJxBGuUdj8dRrVbR6/XU8K3NzU1ks1k1/IvrLizLiiQSie9dXl7+sUql8r8DaHxLv9CvAyQlIQivQn7rt34r9PDDDz+ysLDwi7Ozsw8nk8moaZo61fNvb2/j2rVruHz5Mjqdjsob7+/vIx6PY319XaUjcrkcQqHQVGqBOg9SVOHixYu4dOmSGiRFDYbIqAN3NjkCbusf4vE40uk08vk8MpkMMpmMyr3zttAU/TAMA2fPnkUmk1F/6CkKwXfeXIDI18ANPzfmPOpBoWgS9XHjyh0X/hourAwOrOL6DZ624MaJp0F4GV+9XsfGxgYODg5Qq9UwGo2ULoCiAPR6yttTaoEbQ3oujzTQumm9tLOn11K4nsSH/PrIKHPDaJqmMrzUDXFhYQGzs7MoFotIJpNIJBJKcEgCVj5B03VdHB8fqy8eYQiWUfJUEzkRdI28FJNHePi9ps8zRT1I1MsdRDo+fUZo1DUJIHu9HiqVivp82rY95XDdus+67/u2bdsOgIsrKyu7X/jCF+6qDpDiMAjCq4w/+qM/Mk6dOnV+YWHhiWKx+P3pdDoRCoX08XiMXq+H/f19vPDCC0q3QIal3W7j4OAAS0tLeOSRR3Du3DnMzc2p3vrAS380+/0+ms0mDg8PcenSJVy6dAlXrlxRrXOp/p7/webOAm9JTAaGQtbZbFaFtBOJxB3TAXmTpcXFReUw2LY9VabIBXQ8CnBSh7+gqJHvXsk4BLtO8t1rMPLAnRV+/mBlCJ0vKAQlx2Q0GqHT6aDRaODw8BBbW1tTkRsyzKT54Ep/vlZukEkfELwHwdw/hfNpXUzEp57Pr42MMu+4GIlEVJllOp1GMplUXRPJAeFOBt3rcDiMXq+n+oBUq1UVGaCIUjCaE3S2uL4BuHM0NlXh8KmglFYJhUKqYyV37Ah+boq0ULQiOAOFRJ4UudE0TXccJ9HtdtvVavXZYrHY++pXv/qy/v6/mhGHQRBeRTzxxBPa2tra3Orq6vsKhcK/T6VSGdu2DU3T0G63UalUsLW1hcuXL6uqCF63PplMcP78eTz88MNYXl4+sSFStVrFtWvXcPXqVVy8eBEvvPACdnd3Ua1W0W63VVUEDeihP9q8pJK6+5ExKxaLKBQKKpybTCbhOM7UH3UeMdB1Xf0xpm58XL0f7KbIDXZwVxrcQXLDTY+RgQwayqBB4efnTlGwMuSkc/EvEjkeHBxgZ2cHe3t7ODo6QrfbBXC7PTKVM/IBYLx/AukaSOkfnNrIryf4GO/2yB0SijLx13ExJTkY5MxQaSI5CRSpOKnPBo3c7nQ6ODg4QKVSwdHR0VQaijsG5Ozy+8/LQCnSEtSI8GORw0DXSFoFcmj4Z4NHZOi6yZFtt9vqd4n6SJCgk4SrhmFoiUQi5LpuvNvtbk0mk+tf+MIX7poyS3EYBOFVwsc//nHtDW94Q75UKr1zdXX1bYlEYsa2bcP3fc33fRwdHWFrawvXr1/HxsYGRqORCqv2ej1YloXl5WU8+OCDqgKBUhEAlPbhxo0b+Kd/+ic888wz2NzcxN7eHrrdrhovDNwOZVOEgYsDAagdLM9753I5Vd4WiURUaJjWwGvqyVhZlqU6NAbTDByKcNAauMPAw9v0czIkJAQcDAZq3kWwMuIk3UGwJDK4+w0+TgaUDEu9Xsfe3h5u3LiBzc1N7O/vK/0AXzNVQlAjLUphcJ0DRXvIePNZDHzeBD2XIiN8qiVdKy/t5L0Q+PtDKREeUaLrC/beoBQI7+cRDodVtKtareLo6GhKAMqdON6Zkjtq/NqDJbb83tN5ycmlvg803p2EmXRdXNMC3HaUyLGyLEt9Xtrt9tQ01/H4pVHbyWRSBxCbTCbheDz+zysrK42///u/vytSEyJ6FIRXCYuLi8mZmZmfzOVyb3ccZ8GyLEPTNI3+6O/s7Kg8OFUv2LaNSqWCwWCAcrmM7/me78Hq6qoSdpFxomY6lUoFm5ubePbZZ3H58uUpIRkXCgZFY8Dtev6TdtjcqPBGTNQjIZlMqnJBMlZHR0eIRCJK/xCLxZTCnWskTqpQ4BEC2mnSGoHbfRAoxEyOAp8EGXRAghUVJ2kWghGJoDiS5hQcHh5ie3sbu7u7augU7dDpnNwAc20JRW90/aWJnrypVr/fV30EuPGmKA6/R+QgAkCz2VSODQkW+frJ0QhGAYKiyqBx54YdmNYHUOUCff5831faCoo48HtK18L1JSelLng6gUelms2mEt5SCTHpPoLXyqM2qVQKi4uL6Pf7iEajGI1G2NrawvHxMXZ2dlSEoVAoqD4nhmHEMpnMGz3Pe3M2m90H0P3Wf+Nfe0iEQRBeBfzGb/yG8aY3venfra2tPZFKpe6JRqMhXdc1mkGwt7eHf/7nf8Zzzz2HwWCAdDqt8v40svf06dN485vfjLm5OSUAoz+8k8kElUoFzz//PJ5++mk8/fTT2N7eVqFnYHq3FfxDTc4CGRXa0VGuO5VKIZlMKmNMzyGDreu6atvc7/fR6XRU2SaVvFHNP0U1grn6oOPAd/f0xUPdNIOAN7LiDgaPQnDNAjkd9Fw6NjlGQeeBjDmF4Tc3N/Hiiy9ie3sblUpFaRZot0sDlAzjpW6JVCFB8xtIdJdMJlEqlZBIJFT3RZrmSE4kT/FwI07XRPef7/5pPgOvXOFwJ5Def94jgadL6Bh0zyiN0e12sb+/j0qlgr29PTV/BJiOhPAGVvxc1FOC7hWAqSgJRRO4IJUiPLQuTdNQKBRU6SV3coHbkSi6LzSHhMpaSZw6Ho8RjUYRj8dV+auu63ooFArfchKfsSyrevHixVf4r8T/z96bxkiWnmWiz4l9ObFHRmRELlXZWV1ud3W7zeBtDDYMDGCYYRgGLkICzTX7vbgvizEgfoAsg2QhkFhk+48xWPxhMUb3Yt2RhsGXEegy0LoeG7qNa+vqqlwiMzL2PSIjMuL+yH6+fOKrqHbb9GbrvFIqqzIizvnOd0587/M+7/O+36tvHsPgmWevsn30ox/1X7p06fF8Pv+DqVTqMZ/PF3Icx2GEeHJyghs3bmB/fx+dTgepVArxeNyIF7mY7ezsoFwum5a9XBC5+Nbrddy8eRPPPvsser0egItcsDoFjZq18x6jOaWH+ZpuRUxQofQ4mYZ4PI5UKoVOp4NGo2E6Ve7v75t8vgIGjtF2ag8SGxIEcFzqULU9sV0aqWCErykDsEqpr/Q5SyZ7vR6GwyHm87lxQrFYzFwDd6vkNSgNzzlmF8VcLme6c7ILI6NlFYgSDKgGQu+tUvuqDQEuRJHqUFVgqKBKe0vYc6E6BrIMmtJaNd80Oz3A66Mmh02lCLiUheAzenp6iuFweN93q1Qq4fT01JSl8vP6DAUCAQOwh8Mh1tfXcXh4iEgkgna7jYODA6yvr6NQKJhqnud3GQ25rvs1W1tb3/rEE0/c+5M/+ZOvepbBYxg88+xVtA9/+MPO5ubm5StXrvzvuVzuXbFYLON7fkWbTqdotVp4+umn8ZnPfAbtdhuBQADJZBKBQACtVgv7+/vY2NjAI488gsceewybm5vGgdIxDYdDtNtt3Lp1C5/73Odw584djEYjQx1rpMwfRtQqklPmwXZMyWTSdCUElvPT2gCJkSYXbrICZBkormMkTIfHH3Vwq8SGGrlqGiIajZpqDKZqFPio06LD0+ZUNG1ENZlMlhgMOrhwOIxEIoF8Po98Pr+0mdNsNjOle2p05n6/Hzs7O9jd3TVdFVmqSqCojAsdrAIa1SLweqLRKBKJhKkk4L3T6gbeB2Vt6OyVYbCZHvu5CYfD6Pf7RuhZqVSWykj5Q1ARDoeNmNJxnPvun4IQjtN+HuyUCQEsgQfPbVe42Pefbbnr9TqOjo7Q6/XMdtoEFWTLXNd1wuFwJBKJRNvt9s23vvWth5/+9Ke/qrUMHsPgmWevom1tbWUuXbr0nzY2Nv5DMBjMA/DRQXO76s9//vO4fv06crkcCoUCotEoRqMRGo0GWq0WUqkUHn74YVy6dMlEYRqpad+Gw8NDdLtdU92gzsNxHNOpUZ0/ndxwOFxKM5D6ns/nxmkyl87ctVLMdDrhcNhs6dztdk26YDgcotvtIp1Om1JDjmtVKZ4twgOWqyE0Z0+gQOenoj+NNPlbS/KUSdB9H5R5ITOTSCRM/pzVEmzCtL+/D7/fj+FwaD5Hp0iHFovFcPXqVTz00EPI5XJIpVLmugiGer3eAxkSnR9eN4ClkkzgouKFzwvpfAozFZQp66Ln5G8FXnpPCAgICqgp0MobO+Kn6JapAk1j2KZiV7Jxtmh0Mpmg0WhgMBjg7OwM6+vrS+22CUh4ja7rIp/PI5fLIZlMmjLj4+NjZLNZ870hq5ZMJkORSOQN6+vrP+D3++++5z3vOfjwhz/8VQsaPMDgmWevkn3iE5+IFIvFb06n098bDodLjuMEgPNFeDgc4saNG3jmmWdw584djMdjxONxZDIZo8LvdDrw+/3IZDIoFApIJpNL+VlG9dVq1ZRQNptNAFhiEOj82Bo4n8+jXC6baJZ7VtTrdQwGA9RqNQwGg6UNkwaDAQaDgYkS1Ynb6n3HcUyJYCaTMdE5nSPbCetGS3Tk6hTp0OjYNW/PCJ6AgdoKLdtTJ0QRolLpAEyrbVaRTCYTIzhl9K1CSmo6OL905v1+34y11+sZ8RwjaaZq1tfXsbu7i+3tbSSTSePIOWbVLTCafpA4kBUqCg4VFLEEkv9mdM0W1JqS0GfKFp/qPaKj1+qKUChk9Cschz5/ygrpMfTZ0X/rMwBgCSyyzNjn85mdKXldquXgs62gkRqadDqNQqGA9fV1o8M4Ojoy1SzFYtE8E7FYzBePx9OFQuHfOo7zPx566KFPALg/N/JVYh5g8MyzV8E++MEPBra3t9+Sy+V+OB6PP+o4TsBxHId7DVQqFXz+85/Hs88+i+FwCNd14bou5vPzbX7r9ToikQi2t7fvq4oALkR/1WrVdIS8c+cOTk9PTQmfveC6rotSqYTd3V1cvnzZ7ATIrn3VahXtdttE6icnJ8bpce8D1R/Q6WieWasDEokEstmsYSrUmagDUYbBVtfbKRIVLmraQpX66uw0X6+pCAAm5dBoNIzj4ecYvbPTIcegrZjp+BzHMVsmO46DWq2GbrdrInq2ceZuiuvr60bUOplM7gMBvH+axqBDBnDfe7VvAu8301Fkcny+8xbOPp/PnNNudkXgwjl4EFjQ54qMFZmMWCy2pMfgBmVkbsheqa5D0wsci72nBscAYCktMZvNsL+/j263a4SmZBoIGnTsoVAI2WwWly9fRqvVQqPRMNqU4+NjJJNJdLtdw5o8fx3+bDZbXiwW3721tfW5d7/73f/08Y9//KuSZfAAg2eevcL2sY99zCkWi7u5XO5/TaVSb4nH4zEADiP1arWKmzdvolKpoNfrmfy73+9Hr9dDs9lEv9/H5cuX8aY3vWkpGgVgyte63S5u3bqF27dvY29vD61Wy2gW6HDodLlQbm5u4qGHHjIMA2l3tgNutVpLVDVLOln5QIdAp8T30SEAWKo8YGMpZQv4eQINuw0y38v/03lpfwWCFRV0ArjPqRIwqAI/EAiY9Ei73Ua73TaVDuwxwbQJK0xYwkkWgNoApffz+Txmsxmy2SyOj48xGo0MDb9YLJBMJs1eDUwVEWRpysHeJpyiPVYO2OJDe/64j4LrumaulcGhU+V1qW5DAZt9LltbEQwGzSZO1DCwlwQbe0UiEQP0CJ403cUW5oPBwLSYJsOiug3eU14r2z37fL6lXhTcFXUymWB9fd1U5TD9xXu8ubmJ2WyGw8ND03yKlRMnJycm5fM80HMSiUQIwNeOx+N/98QTT+y/733va/3mb/7mVx1o8ACDZ569gvYTP/ETTigUSpdKpe9Op9PfHI/Hk4FAwMccLGu/b926hW63a/LiyWQSs9kM3W4XnU4HALC+vo7HH3/c7K6n7AL3L7h16xaee+451Go1TKdToxRXJ8rOeNyNsFwumw2kGLlHo1HTM0GdyWKxQKfTMakL9hsAsCRSI7XPhZaggVEmm+MoYwBcRLLq6DUHbtPUBBMAloCFHs+uDFDWg+dhP4VOp4PBYGDSKNzGmdUPLLOjY6djZVTPihFWTEynUyQSCcRiMfT7fePc5vO5SdFw3umobUdMUKNCQwIvLX1VdkWvkVU12gWU88UUB1MlKkAksLHvkYIR7dVBoeX6+rqpdojH4wYwsIyRTALHrpUnw+EQvV4Pg8EAi8UC7XbbvK5jAJY7kQLnAkbeg9lshmq1auaN5+PGbPw7cK73WFtbMwLUe/fuodfr4fT0FO12G8fHx/D7/YjH48hmszg9PUUkEvGl0+n8dDr996VS6enZbPbfAIxfsoXjNWJelYRnnr2C9t73vje6s7Pzrq2trZ9IpVIPBYPBAABnPB6bpkp3797FvXv34PP5TBTGxjTdbhc+nw+bm5t4wxvegMcffxzZbHYp6iTwODo6wlNPPWUWPDoDbQlMsLC5uWly5/l8HgDMQqsCOBW/kUXQ9sFkFTRiZNTd7/cBwACPtbU104eAwEI7CgLLe0NoXp6gQ1+zTfPoqjlQVoLiSKZDeN3tdtuUR9KR5/N5wywwFcHrJGjgmLUslEwOwValUkGn0zFR8HA4RDKZxO7uLi5duoRUKmWABI8JLG/BzUiajIwKGoGLngXKymhZKzezsqtOVAtBEEsGSXe31GfAriZZLBYYjUZGh5JKpbC5uYmdnR089NBD2NrawsbGhmnWZW9cxfnl//lbARDFkcp4cMy896rn4WsURXLeCYTJFtmplX6/j9FoZMS57ClCtkKregKBgN9xnOR0Oo04jvPPOzs79b/7u7/7qmIZPIbBM89eIfujP/qj4Pb29tsKhcKPJpPJ1wWDweBisXDYhnZvbw93795FtVo1ee1QKITZbIZ+v49ut4vpdIpcLofXv/71uHTpkqGiCQTOzs53rWw0GmZnRN25kGJAzdkmEgmUSiWUSiWzwyS7DdK4+DKySqfTZvGMx+PGmZABAC56BRB49Ho9o4vggks2QhtMrRLw6flXldeps9YUB8FFMBhcitpVLMjj8vy8blLVdK50WgQa2iSIwEijXKZ+7MoNageodVA9guoS7H4JnCf+X1kXbajE96iWQPUE9n4UwAWtb1ecUD+gAlFN4+i18jU6c1YjsL1yPB5HPB437yXQIrjSedJOpuzW6DgO4vE4XNfF3t6eaeykzBTvK++F3b1zOp2i0WhgPj/vfJrL5czYEonE0pwEg0EUCgXs7u7i6OjIaBmazSZc10W73Uav10O/36e41JlOp+5isXhHIBC4/dBDDzU++MEPHv3SL/3SVw1o8ACDZ569AvbzP//zztWrV7cLhcJ/jsfjb4lEIhHHOW/73Ol0cHx8jBs3bmBvbw/dbtdEsACWKFouYgQMjIq0syEbIR0cHKDb7S51OFQBG2ljNghaW1tbWjTpzGxKnKwEnRMV9kr3M8pkJQWrDJhTXiwWZtMpRn1ascFjaPTKa1Axo8/nuw8EnZ2dGUDBKDAajZqIWctD9ZxawqdVBRQU0gFplQJz6irC1EgYuHDcPA+dHgV/Cnqo8tdmS8oKae8FRvsseyU44VwoY0AWRztx2qJPFY5Sk0KnrOWHq0xTR9SdMG1DcKG9FrRBmLIUTGmQReG/OfZkMol4PI7JZGIqhXi/lUlQgMNx8x7N53Oz0dS9e/eMzmJtbW2JlQgGg8jn87h69SoODg7M96nT6aDZbKJer6NcLuPs7AzdbhfPC5b97Xa7AOC719fXa4VC4Q/f9773db9a9AweYPDMs1fA3v72t8eLxeK353K5bwwEAgnHcXwqcrx9+zZu376NdrsNn8+HTCZjqFfdcjcej6NYLOLy5csoFApmoWQfg2q1ioODA9y9exf7+/umSZBdp8/FnXnYtbU109pZHSBNHQK1B4lEwqQsCAIYlU+nU/R6PfR6PVPbTwq+1+uZSNNmI2zHpNEy0wuafrBV+fo5OnvS2xwf55VgRlMTdPaMaHlOgizeDy0VZTSr7IYq+DX6ZWMnsgv8LAEWUxUcL+de7wNwAT7UyfO6V2k3FGCpU9QeEgQtvEe9Xm8pFcHrUBaIx1AgQ2evOhP+5nPMedc54n3mfSQzRbCRTqcxmUwQi8VMlQm7OypTpMwW59aeQ7JM9+7dQzQaRbFYxMbGhmnuxPuXy+XgOA42NjawtrZmWIVut4tGo4Fer2fSgLVaDc1mE81mM7C2tra7sbHx/a7r3jw9Pf1rABe5pa9g8zQMnnn2MtsnPvGJ0O7u7tfncrn/zXXdR3w+X2A2mznD4RAnJye4efMmbty4gWq1isViYcR1wDmFyj0GIpEISqUSrl69ikceecSUhZFZOD4+NsDj1q1bODg4MA6begLVBMTjcWxubmJ7extbW1tIJpNGb6ARoO2U1OEAF4s8xYuk8LWnARdVRqyTyQS7u7uG5lfnpoJE/tDhKUvCc9uv0yEzNy05ZjN2piYostPKCgVKfK9ueWxXXGg0r85Gr4GvcdvrZrNp0kZsZkURICtUyJYoU6H3RAWfWvaoIlAar48llLyno9HIMEFsztXr9YxjJBAkACAToOBBeyWsAk0qZFT9zCq2wmZGFMS5rmuAVqfTMb0QOEZepw1klLVSrQMZJx47l8stPQcAjBiy1WoZXQt7mZCdK5VKSyD55s2bTjAY9G1vbyfT6fRsPp//09WrVzuf/vSnv7SF4zVoHsPgmWcvo/3lX/6lUygUrpTL5XdHo9EnFotFcD6fO/1+H9VqFffu3TM9EubzuaGqueAx4huPx7hy5QquXbuG7e1tI4RcLBammdLNmzfxuc99DgcHBzg6OjJ0rUbFKv7TRkPc/Ekpd3U6moOnToGVGYFAwDAZKhhj6mIymSAejwOAyQWzRI2iTnUQdoTOeQDONzfSXL3jOKb5kI6N4+CPiigZ5XMuGPUqYNFmSZo20NJNbV3NY/M4mvZRx6mbNdGJhcNh01+jUqmg2WwuiUg1QlZHqOfivxVAEPgpxU8hJxkPNjdSBoX7YnDfC21QRUpfu3xqFYuOk+Pi+wh+lOlSVkhBhxqPTf3LYrGA67pmjtjFUcEFcMFo8HycexXyDodDo1PJZDLY3d3F5uamYZiY7igWi7hy5QqGwyHu3btn5o5lltzwLZVKsVeJr9FouPF4/J3pdPrvd3d3/wTA5MtfSV4b5gEGzzx7GS0Wi6Uzmcx/cF33G0KhUGKxWPhYHvncc8/h2WefxeHhIZrNJtLptBH0caFXFT6bKhWLxaXWttzN8tlnn8X169fRarUMlWwv7FoSqXshkH1gFMrP8b0a0TKKI+AALtr6qjOgs+biTmfD3QDr9brZg4JOE8CSc6IXPMbpAAAgAElEQVTzVpZDI0ZS+rrrpi3Gs+luznEoFDJsB2lqOj8FCbYj4zHtHg98j0axmldXEaGWPlKr0uv1UKvVcHh4iFAohFwuZ1I3vF4AS8DDdtCaZuDf7EoGOm4+h3S4CmS0+kDnU0WRmj5SsMV5Uh0BTcek88Vr1JSSPfcELqyqYBdLfT+fB6Z7lNHQNAh/xuMxqtUqwuEw0uk04vE48vn8ErD2+/3I5/PY2tpCo9EwG1Cx4+rdu3fNhmGpVAqxWAyj0Qj7+/v+QCBwaX19/T8Vi8Xrf/zHf/yZ7//+7z+7b1K+gsxLSXjm2ctkf/7nfx7MZrPfmM/nfyIej+/6/f4AGYPDw0N89rOfxZ07d8yujXScXOy4KNGhveUtb8Fjjz2GbDZrtkQejUa4d+8ebt++jWeeeQbXr1/HeDxeimo1Atbod7FYGPU/S9xW5bfVIaoIclWeXmlkig61VE6BRSqVMpSvCght4Z6yHRrR0wmytp8RuTIMGsUqVc19BzTVQqdJsKQiTpv5IMOgPR9shsR23tQpNBoNNBoNdDodtFotc73a8ZJjZqQLXAAh1ZMQcOhv3idlHuz7yr4YVPmzy6I6bAU0toPXcyhYUE2JAk39rL6uY+RvfkZf9/l8piJoOp3i6OiIegHDkNDsdAZBnYIPfbaZmhiPx2bDMIIRPn/URvT7fdy8eXNJmDsej1EoFJBOpxGNRs2W5r1ez5nNZoF8Pp9yHAenp6f/uLa2Nnjqqae+xJXktWMeYPDMs5fBPvrRj/rf+MY3PprNZv+PRCLxr0OhUASA0263Ua1Wcf36dTz99NOo1WoAYErINAc7Go1wdnaGeDyOcrmMN7zhDXjooYeM4n8ymeDk5AT//M//jBs3buDGjRuo1+tmoVcaVtML9kJMR8zXbKdgR2XqfDRi5DnpNHUnQt0ASvP1WiEwGAyMXoPNkmxWQJ2ntjdmWkXHqRS9pjcoeFTxou2g1MlpOoPn5phsx6Pv070tyPawxXCtVkOr1TJ7NxC4MPXC/TR0HwRtj8xr0rHZOgwb5ChY1MZIZLB4TLvaw77Xtq3STNhiSH2mOL867zrnqm1Q4OK6Lnw+HwaDAe7cuYOTkxPTulkZFT0nhZd6n/gM6Pk4FxTKshkWARCBA79zFFVS81EoFEz3SgU13W7XyefzkVgslnEc5140Gr39F3/xF8tblX4FmQcYPPPsZbAf//EfL25vb//nZDL5Hx3HySwWC990OsXJyQnu3LmDL3zhC7h37x4mk4mJwm36vN/vIxAIoFwumx0M8/k8fL7zzomdTgd3797FM888Y0SOp6enZpEnBU4nwePyNf5fnShL4tQR2ZGzHv9BESTTBBrt08HH43Ekk8n7xGfsNdFqtUyXS7IUWmZKgMNSu2g0apgZYLlRz4O0GGQXeH4yCjy+Oi37ujkOn89nBKVajaIgiK+x+RF1CvV63egHlNmg7oCtqTknBBDKjKijZZpBxZ+6n4dN9dvpEWVwVjVwstkCZVF0nldpGDj3NohToLXq2Hov6cjPzs7Q6XTwhS98AScnJ2i1WvfNoS3u5X23ha4Kfgju2AI8Eokgl8uZ54pMGFkGahg6nQ6GwyGy2SwSiYTZH+X09BT37t1Dp9NBNpv1ZzKZaCQSWYRCoaevXbvW+EoVQHoaBs88e4ntD//wD33lcvnNfr//302n01y9XvednZ0hEAjg8PAQd+7cwdHREc7OzkxlQTQaxXh83kmWf6fganNzE9euXUOhUDDpCm5QdevWLbPvBFsNU7im0ZstMlMWg3X33Gyn2+1iY2MDqVTKlFrauW0FC0pJ898qCgQuyv242VEmk8HR0ZGp4qBTZUtmLs4sMWS6RJ26shpqtkBQ36+MBa+LzX/sSFivTyN4CiVZZdDtdk15H99DR0t24fT01MzxwcGBaail80djV8FGo2GaBNEhaVtlNkKiU9SGULqHBMGBpj6YrrJZBXsulUmxmSa+rkBAxZycDzslou+1GSx18noOzvl4PDY7p3Y6HZNG4fOijAS/SwQSekz7Gnlfq9UqnnnmGSNGffzxx5HL5QxoLRQKeOKJJ+A4junJMBqNUKlUTKO117/+9cjlcigWi2Z77PF4HEsmk28Lh8PfuLm5uQ9g8KD147VsHmDwzLOX0H7jN37D2d3dzSUSiX+/WCyu9Hq9QKVSwWAwQDAYxNHRkdlUilGzUu1a0uc453sQpFIp5PN50yOBTWsIPqrVKnq9nmEHuLAScLCOXfPLdnTPH5apAeeLO9MIaup8+X+aOgo7rUHHwT4O3I6bDZ3oYMkAtFot+P1+IybTSgh1cvZYVjkv/QznnHO5aow2fW7T9EwVcOfQwWCwBC74o5Fto9EwoIwAQ9kMjo0RMFMS7XbbiO0ikQgymYyZE+5S6vdf7BGRSqWMg1OQxevU69UUkzIGmn5RSp7v0/lexUTosW0wpkyEjsnWS9ipFXZarNVqBiywooiVLrrDqVbTaL8J+7kELtqIj8djHB8fG/CVTqdNWs3v9yOVSuHKlSvodrs4ODhAvV4HAHQ6HRwcHCAajZoqpo2NDVMa2+/3fevr66V4PP7t5XL5M7//+7//P3/4h3/4K04A6QEGzzx7CS0cDgez2ezXR6PRb1gsFrHhcOjjIrdYLHB8fIxms4npdGo2vQFgdvPjwqzsA1kD5sH7/T6Ojo5weHiIvb099Pt9Uypm59MXi4UpgWSJHoClRZQRaKfTMcwERZXso0CqWhd9u2GPOj6bfuaP5o5DoZDZA4F9EuiMuZ10q9VCrVYzKQwtrQNw35jUeXEsCl5UpMjxUM9gd2zksXQ/CgDmHhwfH+Po6Ai1Ws0ANjp7FQBSwEpHNxwOsVgsTEWKOm0K7Oh8h8OhYTHI2rTbbTSbTSSTSWSzWQMkUqmUYYzIyiggVUesztNOAej4CTb5uq05UEEszQZeWlmxymHrc2MDQH0Pv0f1eh3z+XypgycrfvT51QojsimrQCfHxWsbDAY4Pj7GzZs3cfnyZaRSqaXy40wmYzZqazabRtvQbDZxfHyMSqVi9s9wXRcnJydkGcKu635NKpX6jmw2exdA7UtfYV5d8zQMnnn2EtnP/dzPOVeuXNm8evXqT4fD4TdPp9NQt9t16vU6arUaKpWKYQOA8177jIQIELRkze/3m50RSZ+zf8PNmzdx+/ZtXL9+HaPRyER2rKjggq8MBTcd4oY/unEOnQjFXwQoFCkCFxv6qFKf59KfVWkCW3RGJ8HUAFMVpNP9fr9xAlqRkEwmzTFDoZDRL9A52xEsQZhG8pyn4XBoolYKTPU6eU4FTM+r37G/v4+bN2/izp07uHv3Lg4ODlCpVHBwcID9/X0cHR0ZUR4ZguPjY7TbbVPFwqhW54oAj2NWHQRbR7O6odPpmCoH5vEJWtiKm9elFRUKZGyApCkSPj8Ula6aZ9L9qgfQ1IJ2mLRBh81GkAXT8ZB5ms1mqNVqqFarS1VFFBpy8ygV2S4W5z1KBoOB0X7o+VSrwxQT5577u7C9NZtG8XXdylw7YhJ0uq6Ly5cvI5PJmO3RY7GYLxaLhUOhUDwUCt0sFot3//Zv//YrqmW0Bxg88+wlsh/4gR8Ib25uftvW1ta7g8Fgdjwe+/r9Pmq1Go6Pj7G/v49WqwUAhpZnLpkMAfPddCqkQklrd7tdHB4eGmdVq9WMQ+ACBlw407W1NWxvb2NjYwOXL1/GxsYGyuUySqUSCoUCcrmcobDJJijdrFQ0/207Fjtis6N4Rq1cUJUBoTPmdRJAkOE4Ozsz0TLBD8fGyNru4kiznSHHcXp6aoACNRPaxVJL6vhZikxPTk6wv7+PO3fu4LnnnsPR0RHq9bpx3HRO1C7wWnUTJ00RqVCTv/VvPAbTQ2SKeC94z5mCImhg10YyFLxvnF8FJTwXP6tgjkCB6TOthLF1LAoYte+DXs+qfg8ADBNC0KzXQgEo9TWTycQ0BaOWg6kzBUU6f1oqqwJRjpnXwuujmJXHTqfThmlQ4DMej9FoNAyzweqTRCKB7e1tuK671B7d5/P5Y7GY6/f7T7vd7ufe8Y539P/qr/7qpVh+XhHzUhKeefYS2Hve8x5nY2OjmMvl3hUOhwvT6dThQt7tdk2r3clkAtd1TQSkNLp22ptMJkgkEhgMBmi325jPz3suADDgo16vL0VLTGsEg0GzmBIoFAoFrK+vL3WwU5Eh8+u6/0MoFEKn0zHO1ufzGVYEWC5/UzGlpgdUT8DFGzin9XUXSeAckBC4uK675LBIi2tUvCrlYY9HhY+kqNk4is6dYGGVo6Oz73a7qFQqODk5MZFuvV7H6empUfDb+3DYqYxoNGpSMnYaguOkM6Pz0o2qEonEkvhTqwLoWJni0t4MoVAI/X4f+Xze6Fy4O6OyFgAM+ASwNE46V00bcawEQfo8A/enH7ThlIoo+cwSxPC6mC7qdDrodDpme/REIrEkVATOGQI+T+wrwesIh8Pm87rPBHdbVfbD7jlSr9dx7949bG9vo1QqGVFpLBZDsVhEo9FAoVDAYDAwAJTpwnq9blgxAolGo+HE4/FkOBz+pnK5/D9jsdif4CtIAOkBBs88ewlsZ2fHn8/nvyaXy705GAyGhsOhQ0dMRTcXa92YRyM/dYRnZ2dLVDRV9hTP1et1jEYj07mPDiYWiyGZTGJtbQ1ra2uGVchkMsjlcqZ8k5E2+/FnMhmj+O50OiaSm0wmJhpnXTpTGDp+BQrAcnS/SuTGH84JjakARnKRSMTQ9MxL63E1SuV5bQfMc3PPDaYiSCMTcPG3OpGzszPTxpqAodfrYTweL227rA2ubPqfTpDn1OoILXNkJHx2dma6GWYyGbiui2QyaTpmkvHQXgrD4dA8R1paCJwDITIOjHTX19cNxU6Wi46f90gZB5bJAjD3gGJQVgDZ9wDAfWyCNsriPOmeI/wM71W/30er1TLOnt1FtWSUoEU1E6PRyIAlBZ39ft9UxSiY1d4NnEefz2c2h+NW8cpmJBIJrK2tYWtrC/1+37BQo9EItVoNe3t78PnOy4IzmQwqlQorYPyxWGy7WCx+bzqd/vxHP/rR/+/HfuzHviIEkB5g8Myzf6E99thjTjqdziaTyW/J5XKlQCDg48ZS+/v7OD4+Nj0VGJ2wY6E6XDoJLlaMgoLBINLpNAKBgAEPrGRge2NGuq7rolgs4tKlSyiXy2ZTKUbyXOwVYLBiYW1tzbQLbrfbhnlguaa9eRAXantTKqWmgYtOg3afBI5H50A1A8lkEtFodMmZERxo/b4NRjRCVSqaToi5fY5b0xlajki6XxkiOnPdXIspIxVaqkOjUz05OTG6A/a8sMv+OP5AIIBcLodHH30UxWLRVMmQaqeYjwBE8+jUPXCezs7O0G63TVVHv9+Hz+cz24srM0KWS6NwAoJoNGqOqeWS6nCBi9QV/64VDLZzplPnnDP1pn0oqKlRcKHzyzEpe8P3sscJtTusaNH55neJrJJqNWazGTqdDqrVKiqVitndlcA2m81id3cXzWYTrVYLjnO+t8loNMKNGzfgOA6uXbuGdDptvkvD4RCZTCa6sbHxNf1+/9ur1ert7/zO72x+6lOfes3rGTzA4Jln/0J761vfGlhfX/9Xruu+MxKJxGazmenm+Nxzz5nyQOZbgQvhHaOZSCSCnZ0dhEIhTCYTU35Jx1kqlYzT6nQ6ZlFnZEc6n7nTK1euYH19Hclk0oATLtyqOeD/VXDJ3TL7/T5c10Wz2UQqlTLCL3ak1JI1AhAupARHdNQ8ly7UNM2B85pUFEjHZWsntCqB0T2vk2kdggY6ZbsBko5bWQE6Nn42EAggm80a4KZiUbI8vC674yLFi7FYzHQJ5JgJDIELXUY4HDappMcffxz5fB7pdNoAD86HOnWyDGSllMVYLBaG3WDZIFM+pVLJiGrpPNX5EtDoM0IAocyY6gKUbVCmTMGICnMJJAkUtCHS6ekpfD6fScXYwkieQwGkjpUsEAEDUxacI84fe6BQ5BkOhw2oHY1GqFareO6554wuiKAimUxie3sbe3t72N/fN9oKv9+Pg4MDBAIBrK2toVgsIh6Pm4ZPJycnTjabzcbj8W+7fPny37/rXe/69Kc+9anpS7cqvTzmAQbPPPsX2Hvf+17n6tWr5Ww2+x+DweCl6XTqZ1nW3t4eqtWqaWvLvSJYxkcnSBHc5cuXkUgk0O/3MZ+f715I6jOXy6HZbKLdbqPf7y+J5Bj9JRIJZDIZlEollMtlEwmp49AcNXDhYNWBMfqkI1WlPH+rgp3j4LXQ6cVisSVWA8CSw1DBnF6POnLtA8DXeS7N308mE+O4ySCQRSDDoDS7vWeF6g0IUvgZBXt0cGSClC1RSlzFgQCMA5/P52g0GkspG+Ci3DMUCmF9fR07Ozu4cuUKLl++bCh13itGz8rSkCVihM6oGTgHIsPh0DQ8Yh+ParVqGAabFdHSSZ1zvUYFeardoBaBr3ELaVbe0OwqBa3+oBCVz5M2o1JdCj9rb7RmgxfOIeeYkT5Bu7bi5n0icJxMJmg0Gjg4OEAqlcLW1hYymYzZaTWdTptN1Lgvy3Q6RbvdRq1Ww/7+vmFG+P1+vi14MBKJvC6VSv0vb3zjG5/7+Mc/fuvd7373/b23X0PmAQbPPPsX2MbGRmBnZ+dtuVzunaFQKNbtdh0VPfX7feRyORORKu2rkTkApNNp04726OhoyfHGYjGjX6D4i9Epy8iy2Sy2trawsbGBXC6HRCJhoigVDKoQjU6IHfNUPR4MBo1AU1kDW+CoFLBGaK7rLqUxGMHSCWkkq6BhVW3/KqElgPuYE4r4mHrQ89tpEE2taCpEmQE6LEasSovbzYy0lFDLAgGYKLvX6xlHRCetwkGfz4e1tbUl0MfXeY2a4lGWSYWhZC30PlMH0W63jZNkpE39gF3OyHnj+Xm/6VD1nqnYU8svCeTI7NB4vbyHbIPNHTQJpLm5GIENqxM4Ju32qMDGvg+cd9v4vVAGyq60aLVappHT0dGR+S5Qa5NIJJBOp5HJZEwzKepJjo+PEY/HsbGxYYTMBA2pVCoRCoX+TTabfTqZTB4D6LzggvMqmwcYPPPsy7Qnn3zSKZVKa7u7u+/K5XKbs9nMd3R0hGeeeQZ3795Fr9czCwcXZDYIopOj+FAjRy5yBAKMeDudDmq1GgaDgXECrB0PhUIoFot45JFHUC6XkU6nTWkiHaXS+Sr60uibY1LQwIWaDkDz9aTRqcEgC0Gww9QFHYqmMbhAa0c+HasNcIBlJoPv5fyxooGLvpbU6XXTbDW/XbnAtAibA/E1OhM6FHXgWmlhszB0fMBF5M55JiPg8/mQzWaRy+WQyWSWGCm7ukLHz8+SeSBo4HUHg0GzdTPV/Lzng8FgCQjyGuz7oeJGHpdsC8+vzprvI6hVhoDv9/l85vpYacC+ItT7UOyp/ULs0kttzqT3RO+l4ziIxWJLLAw/x+viniZ8fvmM9vt9NJtNVCoV3Llzx1TyUAicSqVQLBbR7XbRbDbhOA4ymQzOzs5Qq9UQj8dRKBQMK8HU0GQy8a+trZVSqdR3pNPpf/jABz7wD7/yK7/ymmUZPMDgmWdfpm1tbYUSicTbM5nM2yKRSJRNmm7duoWTkxPM5/OlvC+rHFZFa7Zank2T2K5W0xGkeLU+P5lMGirb3ndBxYh6fs2l8//6morLNIWgJXWaOlhV28/z8lh2XwLgAqDwelSPoA6epukD6gMUOJAx0XklQLOjTm0mpZUFyv7YYIvXtupHwYeOnRoTpjXs+8MfljzSQWqZIcej86vn4OdptuaD2hTXdZfoeD5vvM/q8JUBoJBSwaamYHid6qz1Xur8KUBjOoJjAmDKPtlsjA6c43Gci+6nWnmh5crKoPEZY9UEU1Z8lmKxmEkbkXkh2NXeKP1+3/Td0O9AJpPBxsYG+v0+KpUKAJieGaxqarfbphHUbDZDq9UiMAql0+nHIpHINxWLxc8D6N730L9GzAMMnnn2Zdiv/dqvObu7u+uFQuF7YrHY5tnZmY/lVIeHh+j3+ybyB2BEXwQRdJBaK68RstLEnU7H5L5tCjkUCiGbzZo+C9ls1pTwaV99Lp6a59XI0QYxSuky2rSdK99PZ6d5bJsh4GJNipfOjNEio3kuwlrjD1w4aDonAhBgeadBdSLqNOzrs1MgKvKzHaIdyavDVnbGZm30/WQqtGOgVn/wesgwqQ4CuHC4Oh46aTulYus16LTJWhGMELSpfkSPx3HTOQ+HwyV9gM2qqKZB58LWjdhsj5aGsp9COp1GOp02Gzppbwy9fj4rZ2dn5vnis8gGVjR+96j5YP8Jsi+LxcLspcK9PuwUxmw2W2rExGvNZrNG0PjUU0+ZMlfOc6vVwv7+PiKRiPm+3rx5E91uF/F43CkUChnXdb9pc3Pzv/ze7/3eP/7oj/7oa5Jl8ACDZ559GXblypVIuVx+ez6ff6vP54u2Wi3n5OQE1WoVzWYTs9nMqLLtki8aHScjHMdxlrZ55oKsOU9d5NkTIZfLYWtrC/l83ojLGBGpiE0dCBdudaRKddMh0AHwRxd+OjsFFLZWQBsIUSSox9aIUcdhp0/s3zw+gKVSUwU16giVniaA0IhXlfYqRtRrp/Fa9Xgclw2alN1hdEvhKBknjo9zpHOs90KvxwYtq4CQzi8jbaa+VO+gAEuFoLwOzrX2QgiFQksVCzajonNDQKdpA73HvV7P7NAJnAsUlVkgMFBwaus17LlijwobpPBamO5ot9sAYPQ6fN9sNjM6Cu0kOp/PzZ4Vuh18PB7HfD5HsVhEKpUyoJ+gkCmIeDxugFAkEjGgptvtBqPR6CPZbPab5/P53SeffLL9oQ996DVXZukBBs88+xLtu77ru5x4PF7OZrPvymQyBQA+ll3t7+/j9PT0vohIRXSMiobDodk/IZ1Ow3EcjEYj1Ot1NBoN05mRW/oOBgOTnwdghFeFQsFsR83SOUZrjODVoa+i2NWB25oB1R0oza8OwXbmzHcz6qUj0tSDfl4d8IOoa+DCWSvNTKDwQpoHBT7KOOiYHwSgeBxlPfh/O2eu6Qg7/UFH7bquKbEjK8IUkM/nMwCRET2fowexJMqUKGCzyw/5Hjptzpk6VD4LPA/nXJ09NStkuewUlI6BrBkBA9/DezCbzUy6bTqd3qd/4Zjt61DdBueV/+bcz+dzA9h1zqgNYtUE55CVKI7jmJJO9kwhg8LvYqvVMiBHN1DLZrN4+OGHEQgEsL+/bxgTAGg2mwiFQiiVSkYUzNRZu932FYvFbCKReNdkMvkfW1tb/wDgQrn6GjEPMHjm2Zdob3zjG/3pdPpN6XT6La7rhufzOY6Pj3H79m3s7++bxVTzu7rAATANkrhFcSaTMTtGkqW4cuUKkskker0ems2mSVcQkLB6IpvNmtpwdmjkXhQaOXPhBC6oVi7EGvVzYeVvvn8VLQ5cRJIqmmRJnGobqMvgZ9RJ0WyAwDmkqbjRZijUYfDatTHUKnbBPpc6e/6N16/bfutn+O9QKLSkx1CwqOV92WwW2WwWAIzAjyBoOp2aXQ9TqRTW19fvYxlsB83rtxkSBX+aMtG+FNq/QJ9PXpsySzTOs6aybDZInw1Ng3FMFPtqUyzuPsluiioY1efMBrx6z3Vu+OzpGFniy2dTgZ+2KdeGVQoWCPL29/dND4v19XVzvFQqhWvXrsHv9+Pk5ASDwQCJRAIATNvog4MDIxbl96LZbCKbzYZisdhjmUzmW3Z3d28AqN/3BXmVzQMMnnn2JdiTTz7pvO51r8u5rvuuSCRSDgQCvvF4jFarhaOjIzQaDVOKSDqeERmNi1Sn0zELJGnMarWKk5MTdLtdAwRCoRCOj4+XmAI6AC1jZA5WywztRZf/5uKtTIg6JTsK10XaduKrHJhGdVTva+fKVQ6XY6Yz0mvg8fUc/L9S7KwoYUpG0xMaVev5lIVgVG5XA1AMRyerjJG2f1bdhToxRvzMYedyOfMMBAIB0zzI5/OhWq2a7arZfEtLEO1x2ayRMhu2I7fZIc7BKlOAofdA0wLai2LV86C6GX42GAxiOp0aJoX6HrbCZr+SVUJTLRHmfeUzo3PAv/N7oakXexM0BTLUQUQiEXOfASwxe47jIJVKGZ0FN6Xy+/1IJBLY2dnBcDg0O8nqd7Pf72Nvbw8AcOXKFfj9FzugDodDx3XdjOu637K5ufn//uqv/ur/88u//MuvqZbRHmDwzLMvwS5duhS4fPnymzKZzNscx4kOh0On0Wjg5OQErVYL0+nUbKCkyncucuqwGYVTDd5sNs2WyL1ezzgxlnYpLczoiX31uZiSxuY57dIy/htYFiwqC8L32BS/Oj/773rcVRoBFRXSASnwUfpcc+nqIJUGVzqedLB2htTqAo2ibVZDr1OZFjogzguPxXJNvkeZJNtJ28dniWomk0EmkzGCu2AwaPLtz+ez0Ww2cXR0hHw+b0ADm2lpesTWgHDeFPDoved16Jzqe3WedOx6TWxDrg7Xfjb0XFoyq4CQn2FTJQIp1f4os2GnrVS7oNfPayBg4HM3HA6XwKSKOPX4wEXFiT5Der17e3umSVM6nTaMQTAYRC6XQ7lcxuXLl83nKVRmUDCfz1Eulw0rxQ6XmUwmEAgEXpdOp78jnU5/DkANryHzAINnnr1I+53f+R0nn89ny+Xyt6XT6dLZ2Zm/0WjgmWeewcHBAcbjsdmYRhdhpadVfMbujKlUCslkEpVKhZEG5vM5qtUqTk9PcXh4iOPjY3S759VWZC00D0snzFI5OkxNRzyINaApYFB62+4poI53VfSvKQp1IBT4kQHRyF6bJtFRc7G1KXPb6XNxt7eMpmNj7ly1JDpOZU40qtT3azWAMgzKTGgPDb33/DfHx/vdbDbNtQeDQaPFWCzO24Y3m01DX5NF0UoTnXcbpNiAS5247RgVqNlgTx0qjffGPifP87De+lMAACAASURBVCDgqKACgNlVtVQqAQDy+bzpa/AgQKo/CigUaCrrQHDC/ifcoZXfM943PvP6XtXn6PwsFgu0223cvXvXCDMdx0GpVDL9T6hlmM1mS9va+/1+szdLq9WC67qG2ej1emi1Wk4ikUiEw+FvLBaLf/Wxj33sv/3Ij/zIRdvOV9k8wOCZZy/SgsGgP5PJPJbP5/91KBQylRGf/exncXJyAgBGAKWLozoslqdNp1OTcshkMqYOnE4umUyaFEelUsHR0REGg4HpOsjuixpxcqHTCE7pZwUMSjc7zrK6H8B9izxNj6WUux6f7IHtiEkJ67g0SleBoFL7NmjgOGzHwCgfwNL/lcrX99jH13SD3amQFQ4EDZwTsjwEigqq6ID0XFTj8zkhmCRNz/8vFuf7P7B9cyKRMFQ975s6czv1oEJGG8QQbCizY4Move82qLTBod4Xfd1OYSkIBGCeYTZ+4v4WHD9/CFj1Gvms8T16DXZqic8jK5D6/b4pn6RWgtoEfo/I5vFZsZmkyWSCWq2GGzduIBAIIJFImGon/t7a2kK328Xh4SF6vZ5hTnRLea4Z0WiUe0xgPp8H1tbWLmez2e/y+/1feP/73//c+9///tdExYQHGDzz7EXYD/7gDzqxWCyVTqe/IRwOX/L7/f7ZbIZGo4Hr16+b7Y4Z8avz042iRqMR2u025vM5dnZ2sLu7i3w+bzadCgaDKBQKiEQi6HQ6aLVaqNVq6HQ6pqKCCz2BgUaMNHVa+m/bsShlzby0pjO4UPM8dg5/lYPQ3+owbVACXGwgRW0D55DRNDsdMs+tfQPovDX6Ay72FlBWRSl8LQWlSl0rNfheMgakmkkfq5CS94JjJzjiMfk+TUHF43G4rotAIGDEmzzXeDxeiqBJVRNkrgJfNktgCxl1jhQQ8L7YVD8/p6WKOud8r82y2OkPZY/C4bC5Lzw/nXU0GjWfs581ggummxTk6TN2dnZm+jWwDTuZGn7n+D1itRFw4axZbqrPC//GOVAQsliciyDJAuZyOfP9LBaLiMViWF9fR7PZhN9/vt22VnLMZjNUKhWcnZ2hVCohkUig1Wqh1+thOp06wWAwns/n35FMJv/69PS0AuCip/araB5g8MyzF2HXrl3z5XK516VSqbcvFovEZDLxdTod1Ot1EwXGYrGldsxcXOkouVCwFOvSpUvY2toyNdyz2cxsYJPP5/HUU0+h0+kYCjOVSpmFdzKZ3KeaZy4fuF/IphEhzXZqGm3ajthmJ1SFb1PFfM8qKneVg6Nj0P0suDArU6CgQ52/MiXqsNVBEuTo+HgOBQocAx2FzoktrNOIVh2KRqz6PkaskUhkicrmNfKecHzazdJuuMX36PkVBOj94NzYlL39fvuzeh9t02hbj8VnTD+vm1opK6X3V0GQptFo+lmew37G+PxHo1EEAgFMJhPod/Tk5MQIYQmO2RX17OzMVFSwNJnshp12WywWRmPBnWXv3LmDRCIB13XNRmWxWAyJRMIwU3x2eJ5GowG//3xjOvblYMOnaDQauHTpUjkYDH5rLpf7+/e85z13P/zhD7/qLIMHGDzz7EXY5cuXY4VC4R2pVOrh2WwWbLfbODg4QKVSQb/fRywWM4unlpDREWonPOA8simVSlhbW4Pf7zeRZSKRwNraGjY2NvD000+b3Hw4HMba2hoikYipWbepYHas44KrWgb7B8B9n9ccvq1XUCGZLvbARcWFTU9Tx2FrKNRp0JHZUR2doD1Om+LmmPkaP6MORq9ZRZc6Bn6eUTWFjXREfN3WUyhjouPS6gy+xmtjekGrW9T5cX6pcVHmggBPW0CTnVDNh86JVonoPV11z2yWSMGA/lYgp+kCvU+qYdD0kYIovpcsk45b58ROm3D+tTySgIHpnV6vh0qlYr6njUbDfJ9YkkwNAcEBUxeTyQTD4XApPaVghkzcfH5ePVOpVEwnz52dHdNHgtUuruua55VBxWAwQKPRMGWk3C2z3W7D7/ejWCzGIpHI2+Lx+Nfv7OwcAxjhVTYPMHjm2RexJ5980rexsbFRKpXekcvlsrPnN5m6ffs29vb2jJNllKmlX9qwRkWA8XgcuVwOsVjM0M6z2cxEPYxKuOhQHBkMBk0UonQs6epkMrnUDEjfZwMGYLnZDxd+HT9wkZdW56id7/hZLty6oAP3t9dVR60sCedIt2ZWh6MO9UFCPWUFqPHQ6Fvpfpuh4fkIFvh/XqPtSPUadb7oSG1GgGkXdhnUFs28Hm2GFAwGl4AFnZbNfCgLAVxoMhQwKWjQa+Gc6H3W50TnTq+ZgNF25Pp5OwXB6+N5VglE9Vnk8clQ6LOk77EZi7Oz8xbNtVoNd+/exd7eHur1OobDoYn+mRaKx+PmeKpn4HPI77UKLDkvHJPP50OtVsNisUA8HscTTzxh7l0oFEIymUQqlTLPNYOHfr+PXq+Hk5OTpTLSfr+PyWSCa9eu+V3X3Uyn09/16KOPfuZ3f/d3r//UT/3Uq9oy2gMMnnn2RSyXy0Wi0ehbotHo60OhUIi5y+eeew7VatUsPCynBC7ofpvutrdipk6h0Wig2+0iHA6jVqthNBqZ8kouVox8tD30YDAwnec4Bi7smoNVB6GOXx2iihXViekOg/y80rP2Ik5Th67Oxk5fqFNSapqOjkBEHY6mF2gUDzJXrOPUPgmaArDHrcCD4IkOa1X6hXMEnDtqRvsEUwrWqJegs6GD43E5fhtY8vnis8Vr4JiUvdIfnXe9Jp1r+z7onKj2Q39WiUw1/cH7R1qf866lxjpesgOk6nU8vJ9MHSmg1fmjjUYjDAYDVKtVHBwcYH9/34AFe+7C4bDpn8Djkxng2LrdrhETcy4IbggsqU1qtVo4ODjAnTt3lpgJshraBpx/n8/n6PV6OD4+RjqdRjQaNXP4POsYcV33zZubm9/U6XQO8Spvf+0BBs88+yK2ubmZd133G/1+/9psNvOPRiOcnJzg6OgI7XbbNJuhQtr/fDMWzYfP53NDOTL6PDk5QbvdxvHxsamy4O52p6en2NvbMzQqcNF9jpvj+HzndeaVSgXhcBjxeBzFYnEp2geWI3qa7TiVVtYomg6aRgDAaNfWNigY4ftpWtGhUTvHAlyo41WTQDGb3UyJ5+Q4GbWzRJOVC6FQyNTgq0NShb0CDK3kIAig89WIWIEW89p0fBr9KjNhVy/wWErZU6/Ac7uui1QqhWg0upQWsFkdZWGU/re1G8pMPQjs2ffRfmaU4VBwTOeq88N5sYWm+qzxt2pqCBZ4/3VfCGU3OFcEC41GA0dHR6YBGnDeYZPsDnt2sPJFy6DJ5vC8lUoFzWbTMCUcM6+BzxiDAYqgg8EgUqmUARU+n88wf6pj4X1oNpum2kbbYgPwu65b9Pl835zL5f7793zP93Q/+clPvmpaBg8weObZC9hHPvIR387Ozuuj0egTwWAwfHp66hsOh2g2m6YNczqdNg2UGPWwpp5pBkYM/P9isTDtnrm4FYtF0/Xt4OAAtVoNp6enCIfDZmc9phqo8m40Gjg8PDQ17YlEYkmwB1yILjWafFDeWf/Gf9u0v5o6HaX/6UjsY+q5bYaCr6njAu6nwO2omJUVXGy5DbLuAEnqX52xahmY9+Z4NC2jQEijas17q+PiZ+ncbKZBo/zFYmGcEccMXDA/gUAAsVjMdHu0tye3QZ7OtS1s1M+sYoPse2CnDggUKMYki8HNzjQK5z1ThkoZI7vqxr7fZBcIwDX1o/eBIGw0GqHZbBqRY6PRQL/fXxoD9Q2xWMw4eoIDLVHmecn2AECr1TI7wOoccV7JJozHY9y7dw/ZbBaXLl1aYpPYCpspqWQyaZpIsT8E95XJZDLaLTYUj8cfSyQSb3788cdvfPKTn5ziVTIPMHjm2QtYMpmMrK+vvy2RSGz6/X7/881V0Gq1VNF8X+4ZuHCmdrMdKqjH4zE6nQ7a7Tb6/T7K5bLZY+LOnTuGIuWiTPW2RnZs7MSGQFRpE8DoAs0F/kGmTkIdCiM/5nD1PVz4V32On+Vn9Bwa0dssBV+zF3Ol/+lgfb7zsjyCBToCGh0Fy1YZCY5Go6XrVXpb8/d0SiyJ1PHpNXAu2NVPRY82ULBBBFtO83h25M9olPdbQYKdSlGWQedb9Q3KcNgAQhkK+55qKkIZIZYunp6emvHq/eI5SOMrqFGGgdesAFHvB4EV7xcAA1a430qv1zN6IL/fj2QyaY7H54hsIJ8VMiCr9BDabIwMoT7X/E1gMp1OcXR0hFKphGaziVQqZY41Go3Q6XSQTqcBwHxHHccxrbK5Nwx7s/A6Q6FQwXXdd25vb/+XX//1Xz/5xV/8xVeFZfAAg2eePcB+4Rd+wcnlcoVMJvOWeDyePD099R0fH+PGjRuo1Wo4OzszIkcA9y2sXHjYS2A4HCIej6NcLmNnZwfpdNp0+wsEAlhbW0O/30ez2cRoNFoSVSn1zv+zv321WjUL+3g8RqlUQrFYNLX+6qzt/DFw/8ZStqqeYEHr8mmrGAQ73WDrCXQ8fD9fYzTGSFD7QvB8q+aY9DWdAo/PKJ3pG91jQsWowIVYUdkXO6Vg32fOJ//NaNdmQzSlwXPzmSBzpJG1Vlto6oEgQ+dff/N50VSSfs4Wv+r9U4GhXjev2a5MoQNXIKaglI7WZnW0fJLzQNBkA0wdI3txABcVOHwPARd3Aw2Hw0sMj4JClrRyjlTHQwuFQkgkEkin0yCjyGeMKQO/37/0fJL5o6aoXq+b1yORCEajkempcXp6atIhnE+2BadwWdkan88XTaVSX7u1tfVEMpn87wBele6PHmDwzLMHWD6fD8Tj8TdEIpGrgUAgMBwOcXJyguvXr6PVapnFczKZLFHKGl2RcZjP5xgOh0ilUtje3sa1a9fM/hF0Zvl8HovFxfbBPL4uTgQMpOKZmuj1etjb28NwOESn08FoNEIulzNKbeoo1MHQQQAP7qbIhVh1DepYVVzHRVMZBwD3AQT7N8/F37xWMgMcO53eg4R8CoL0dQBL+gJqTLhTpOaneW5NRdjj1HSBzZwo46JMB49NsSs3IuJmYWzpHQwGDWPl8/kMuFHgoUJEnTuazRDoNep9Vu0EnwU6OBskqciR95h9JrSVMtkMfidYVqxbXCurQFZGSyqBZX0J38s0nwo7+f1gqSSrjHgMPT/viVYgqaZkVUpHRbT8fieTySVmgQCVc0C2gEJkBagqXOa1sISW1VKNRgO1Wg2bm5tIpVJ8jv2JRGJrfX39W2Ox2D89+eST1Q996EOvOMvgAQbPPHuApdPpSDgcfnsgEMj7fD7f2dn57oL37t1Dv983CwmZBlLjq/Y/AGBSGKVSCZcuXTKR0MnJicm3csHVCBa4KOUCLqIfNqhhlDqbzVCtVk376Ww2a5gGtq7V3CsXXP7fFsLZv7mAMuWioj91rhph0tTp6pwoDU5HqH9XVoSOw2YbVo2BZlP0AJa6SZJyJgjgNeq9sx2UzpfqQ3TDJGU56AjZpZMsUqvVMi2K9drpkEm1895qOknnwmYKVlWSrBKiqlhTARrHbHfV1GhaqyDsXTy13TgdpTIMOg6thlEASHbCvvf8nLJVfr/fCEL1OBQaj0YjA2B4rXa6g/eKz4DNwOh3mgGAijvtNNV4PEa9Xoff7zdtoMkscF5WpfJOT0/RbDZx9+5d09QtmUwiFAo5kUjEzWQyX392dvZ/5fP5GoBXfCdLDzB45tkK+8AHPuBEIpF0KBR6g9/vjziO48znFyVQjuOYXeqUvvT5fOh0OksLl9KvPp8P6XTa9GAYDAZm6+fBYGAWOGA5aiX1HgqFkEqlsLa2hmKxiHQ6jU6ng2aziXq9jk6ng263i/F4jOPjY1PFkc/nl6hYZUKAi+hImQRdvMkskLLmYr+KQtbftAc5dftvdiqE59IfW2hm6xvs1IE9Bt6zaDSKs7Mzs9mXLWrUz2renmNQ7YHP5zM6A4I7no/vYRfObreLer2OVqtlWA5eu1Yb9Ho9U27LCFnTEzZTs0pUyfHy2vSz/GFLY4rsbEeuDAQ/r46PQkwCIzpeu33zKurfTnnYTJWChFWsjzI5rKTg9drnYq8SfR4UaCnzQdaDaT+telJwzXPp80VA0e124ff70W63Ua/XDfDjsVVAybmbzWbodDoYj8c4ODgwIsh4PI5AIOCPRCIPOY7zdYVC4WkAbbzC5gEGzzxbYYlEwhcKhcrBYHDb5/P5uVAMBgPU63Xk83kTuUciERQKBSSTSbDkUmljOhbHcUzeUnOo7LnAngr9ft8sSAQa/Gw2mzUMRaFQQCqVQr/fR7vdRqVSQbVaRbvdxmAwwHA4NCVb9XodruvCdV1ks1lT862AQdMUNpCwnSmA+xblVXoGTRU8KF1g6ynoOFmCah9LWQVV7KtozTZ1MIxIuUgzHUBHyOsFsBQJ8vN0ZFppQYbJTukoc8FUR7/fR6fTwXA4NCkYvQeM3h3HQaPRMOr/WCy29H6yMgrS7EoFpfT5GQVYTG2xjJDXzAhf0yFaFqviTtUeqPNdpbWwz6+m2hg6Z86xjsF+7gim7RQVwQ7/RgdNRlD1Fuq0+V7qEdrttvku8X0cF1N6nCc+B1oKy71jOK7T01MzdwQX4/HYPCvcevvevXuIRCLI5/NYW1tjtU8yGAy+M51O/+VP/uRPfu4jH/nIK9rIyQMMnnm2wmKxWDAajT4cDAZzAHxcjKkRyOVyyOVyKBaLSCQSKBaLS+WTi8ViyUFMJhNEo1FGCmaxm06naLVapjSSzt/O8wJAIpHA9vY2Ll26hIcffhiZTAahUAij0ciwDdlsFoeHh6ZHRKPRMIwIF5/t7W1sbm4il8sZvQQXYEbfXMx9zyu/NfoDLqJWjep18VXnbjfYWUUpK/VMx61/s2v/CRYYGSvN/MWMUSl7NgBYytvTsQAXeXDOBf/G9ykwVAZEqW5NMS0WC+MQOK801Q3w2D6fD9VqFdVqFblczgjobIfLz/FZsSlyHQ/n0S6T1F4HWu6oaR0+j6enp0upklW6CZqOlee0GS6+xuPTQetGYjw2x2TfUwU0CmxUYKrPnK01UtBKcWyz2TTlz5wzggVl5FSbwRLn9fV1RKNR9Ho9k86hLmU0GplrUAGuAteDgwOEQiEUCgVsbm5ShxOMRqOP5vP5t5dKpX/GK7wplQcYPPNshUWjUTcWi70hGAzGF4uFo2WN8/kc4XAY6XTaMA0EB6ynJmCYzWZot9uYzWbIZDLI5XImlw2cLxbc1palV8Ph0IAKRq+RSMTsMVEul1EsFg3FTeU3a/aZh/b7/Tg8PDQNYwhclF5mFMTFU8vM1BnaTlEjOWAZBCiIsHP/wDIVrOyDihs5N6oFsUGIVkYoCHsx5vf7TVkdnZR20dRrUlMqWp0MX2NUrGDH/r8CK025sLGRClG5xfXdu3cxnU6RTqfN87CKTbHviTpavR5+VsWkPCcjeoIZgkgFdjZ4BC50NnqfbFCo24Gz2kDnmGWSNoPDedfr0mdC2SU6XDpmfm+1hwWfOX12lC3gs8djshTaTucQOKqGQ7+zWrJpA0YFVfYcTadTtNttHB0doVKpoNVqcWMtJxaL5fP5/L8pl8v/98/8zM/c/e3f/u1XTPzoAQbPPLPsve99rxMOh0vxePyxUCgUns/nzmg0Qq/XM+VQqVQKqVTKbDpF4WGz2cRwODT54Pl8bvLUhUIBpVLJfEap0sFgYPLip6enhmbnAhuPx1EoFLC+vm5AB4ClXv0UUXIhY7OYcDhsKGT2eWi323Bdd6kpEEv6dAFmRKi0sJ1LpuOwnTt/a48BYDn6XUVN20BCHYH+XRdidV5fDDjomJmeoIOhMNUGBDynUssEG1z4tUyTzkHnjK9rGsDv999XpUGdCKPrk5MTxGIxM352tNT5UsrfjpaVreLfNNVAB6nghWPkeAiuON+qZVBxJJ8Zdah6XbqPBvs18BoI2kj70xHr/BCA6bUycre/U9QfECg8CGBpqoPPGL8H2WwWs9kM6XTa3EOKKFn5YR+foKDX68Hv95tKGL7OY/C6ONd8vngt4/EY3W4X1WoVlUoFwWAQGxsbiEaj4Uwm80Q2m31zPp+vAJi84AP/EpoHGDzzzLJsNuuLxWKPuq77UCgU8p+dnaHRaKBarWIymSCVSpnujsC5iI1taVutFqbT6dICwE1vyA5wsbedCR06nT0X5kgkAtd1kcvlkM/nTTMadQRKMafTaUwmExM5Eehws5t4PG6ieaWHVy3y/Lvu76AR4QvpGJQmV3BB+tsGGnoOOyq2c+D6o07gxaYkeCw6ftd1Dc1OR8BxaNWBpm5YFaEUuB3F8zzAhehOUyks8SSroW2lF4uF2aOAwkTXdVEoFO5L4fB8CvSAZUZE7wt/673RCJfHpzO2RZEEgWyApRoY/TyfI7JBkUhkqdGWAis++9oWXIGlpiNUcMjnx2a0OPd8vrXMVZ8nfaYUEPIYFLOqGJV7wPR6PVNeyjmfTCZotVqoVCrw+/2mr4o+Qyqk5JxwrheLBWKxmGkRf3R0hJs3byISiaBcLiMSifgTiUQhm81+88bGxt/97M/+7OFv/dZvvSIsgwcYPPPMslQqFYlEIv/Kdd18KBRyptMparUajo6OMB6Pkc1mkUgksFicb/50fHyM4XCI8XiMfr+/tIAxciW7UCqVTAmY7WjVWerCz9rydDptujjqgsdFlsfx+c4rMSiu7Pf7JuLp9XpmJ71kMrm0/4Wq2Un162Jr57cVqNiKdHVOSr0qZa05ex5XF2wVftLpKgWtgOHFpiNWMREUqrFV73x+Xg2jUSGdASNCMhx0dJqqsZkJAjfOkbYpJt2uO3SSbue1EYiyv4ZdgqnzomCO91OrA9SZalkoj0lnriW4vAal7zX1pN0bVWui0TO7cLK7oQ0aFQzwmbHZBdVj8H0ctx5LmTmdd14rz7MK5KnOw+/3mzQEr4epvaOjoyUmRAWR/X4f9XrdzFuv1zO6Jj4zZBXJ3MRisfue5+FwiMlkgmq1iuvXryOfz+PatWucy1gmk3lTsVi8ViwWj/AKlVh6gMEzz8R++qd/2slkMhnXdR9PJpOxaDTqTCYTU2nA1EIkEjH9Dk5OTkwt/XQ6XWr3SjV0PB5HqVTC+vo6YrHYkkO06W9GK4FAAIlEwqQi2C7W5/Mtia64uGpunIt+KBQytCyjGi6o3AlRqyJ0kXdd1xwHgCml43F4bQCMU1cGgtdlMwUazfGcSp0DWFrc5/O5AUmMSDWN8WLBgpp+hvPhuq6h5oPB4NK86Xm1A6eCHs6d0tsECBSSqmZARXmqIeA90uvXnL2mBHhuu9zVLt9TwSj/rYJFghjm6lX4aoM0dcwExSqIVKDFCJ9RtO4kqs8/x8p9Ffh8acrD/o4oaCBoIWPAlI+diiCA4HeGjJL2h1Btg3bd5DhHoxFisZgBV36/H71ebylI4P8JtDnv/O5TIM3XuJ4w/UdWZzweo9Vq4fT0FJubmzg+PgYABAIBXyqV2ppMJu9YW1v7+x/6oR/q/sEf/MHLzjJ4gMEzz8RSqZSTSqW24vH4pUgkEqBjo0bB5/PBdV34fD5Tuqi967kYLBYL001wNpshHo9jbW0N2Wx26XUKErnoAxdlX7FYDOl0GqVSCdvb28hms6blrS5yGpUBy7Q9F0/NVXPBVjEbcNGJUHdI1EoCOp9+v28WUC566sAUBNn5dDoK9hXQiBhY3s+CanWl/G26W4HIlwMceAxeP3UgGhnyfLxOzaerQE6rD2xGgY5HKwyY+rDFfIxGVa9Btkh3MlRdgt4Pjc612kLZErtKgA6QgMHepdS+l4vFRcMnOmY9J1/n2O0Nq5Tip3aBpbTUkhA48Jr4vdF0DI/F42jlB1kC1ckoUOEz6PP5TMdU3j8+AwoYOGb+nYDacRwcHR0ZXQKvZ7FYGEExARlTjJxffod5bcCF8JRzzvk4PDzE3t4eAoEAxdbJ+Xz+dalU6v/c2tr6LF4BlsEDDJ55JpZIJPyJROJKLBbLBYNBHxd+Ll5cCOfzuWntq7X7XKjIPrBiIhaLGZEhANOoiekCjV4ZqUajUSQSCaytraFcLiORSJgFT+vt9Qe4v1+BnecnDa4MgIoeKeqk86RD0KiIUR0XbFt0pqkVpefVwfLvPDdNlfO2aE/FoJpCsdMhDwIPClDs92hkynFwXwgK1TSFovdBQQuvS6sNOC88zmAwMKCBYyHlzZJC1Q7Q4fL54NxrzwU7elZNCOeb88j7xeMSMESjUePYbEBnAwil/lXfov0b7OoFMigEAiocVLDDnV01vafPjIIFTS/oXiIq4rXniPOrjbfs6+LnCTzoxOfzudkZlt/HxWKBer2OXq9nxkfmhaCcDE4qlYLf7ze7Xyq7oWBG5+/09BSNRgMHBwdIJpNs5hQEcDUWi31LLpe79X3f933dP/3TP31ZWQYPMHjmmVgsFgvG4/GHI5FIzO/3O1wkbTU0F7Tx+LwMmgtiIBBAMplEvV5Hu91Gr9czkRvr5+fzuWnWVKvVTIUEF28uFAQM1D/YNKZNy3OhtIVfahqRq1MPBAKmDW08Hkc8Hjf0MUssNerVCFXHsMqp2HsTaLWARuU03flT1fKM4vnD6g91JC9kmqvm8fXe6TGYUyaNzjI4betLh6XHUcDE81EcyV4A/X4f3W7XOAzOhQIQ0vrqBDUFQJCpbZgVWNnOVKN6BTYEiKxcWNUfYZXpc0M6XcGUijgZyfPcvV7PsHPKIPA+8r2rnmUyKgrYaKozIahSp2uLJzXaj0QiS/Olz6+Cb14fGZ9yubzUywPAUhMmgsJYLGZKsUulEvx+P27cuHEf28T/sxcI9UuLxQKdTgd37txBMplEuVxGKpVyotFoJpfL/dtut/tfd3Z2/hEvM8vgAQbPPBOLRqPhSCSyEwgEgkQLXHwYGTEy0W5vGukxIqcyulwuG90D2YpOp4Pj42NU9LKSBgAAIABJREFUq1V0u92lPDMX8kQigVQqhWQyCdd1jcPiIqhMAbAs6OOCq7qAVf/n5+g4eC6WZypNynwyF3l1nHYawgYr+neNFpUiB5ZV7aoop1MZj8eG4lbdxhczBUocjzIR9ni5+CsVreyRfp5OSCN4RrB8Nhgx6m6FBJj2/dPr4ryQwj47OzO7HhJkAFjaUlu1LMru6HwTcLHygvQ6r1vv5QuZphyYsiELApw7dpYV8nvT7/fR7/dNfwTtFGmLIRnZ2yDMfo5tAKtpLPu6OW7eZ46X901FvQpcFCRyrmOxGEqlkmkKdXZ2hpOTE0wmE3N/9PkJh8NmXxfOB8s/uc5Qy8F7xv1pJpMJjo+PUa/XtZlaKJvNPtLtdr+uXC7fBtB94W/Cv8w8wOCZZ2KRSCQRDAY3/H6/Xyl7In9tqqSKaltURQfnui4effRRs9nUZDIxtdV7e3umIyOFdWQhWEaZzWYRjUbN+AhM7JI+YFn5zfcpuFgVPelCykVslbCMVRaTycT8VmGa5uHVUSkzYdP2dhqFvykSpJPkBluMwiaTyZKgTT9v/1tNgZRNQ+t7VlHxyqwoaFCwAJwDMvYS4HPBKJgMA9s+cw8SprX4frIHdjTLXDu3PmeDLgBmI6hVIlqOhbQ4qxXYwpg9EWzdwotJ7eizM51OTTqHzycAs7Ea2SUVNmr6gsdV7QGBAUGDfZ9XiTn5XNm6HmUxNFWiQFsBH8+tDBj/r9qDaDSKYrForq/T6WA2m923SZuKM1VAqoyMAh1dXwjIyM7IPia+RCKRzefzby8UCv/1ne98Z+9v/uZvXra0hAcYPPPsefvIRz7iRCKRrN/vz/t8Pp8uJIywtYRMKXr+f7G4EDMuFgvE43FcuXIF29vbZqvber2Og4MD3L17F5VKBb1eb4l6Z5lVJpNBOp02ymo7MgeW0wCqGFeHxvfx88CFwJGLoebdde8LLpqDwQCdTgeTycSIPJknZ0TMcajz1EWac6RsgrIONEbmVKBzUbV/NJJ+MabUvF63Tb9zweY82tdI50iRHf+ulLzeH2UBCLAc51wZz/JcAEuRrka5qtKnsyULw4jZdrwEgnxGqYOIx+NGq2Cnyuz0ks1Eqa0CeprmIFBaFUHrxlU65zbToo5btSrq8PXZ1bSW3m8Fq8pO2M+fzULZrAb/xvnmMWKxmNmGejQa4c6dO6Zhmj4rvH+TycQIRjkHBIwqmFUgFA6HjfaFm831+30CvnA6nX59Npt9ZH19/Vm8jGkJDzB45tnzNp1OnWAwWHIcJ+WIF1oVbdoRDBees7OzpYqKWCyGzc1NFItFRCIR1Ot10+qXDMNgMDAREB01o0/2XeCip3lUOwXAcaoYDriIWgh8ACw1luLxqMc4PT1dYiXm8/Od97rdrolweS47OlRHxfnQ8Wi0rjllXcR1rkkZ25G9fV9eyLnxWDyPXY+vwEpBn12OyrljxEf6mtGvfa3ABZXNuSJDQhFpIpFYqnZRRkdBA6NXZXR0rnnf6VTJVvA91Ci4rmuEjcpcrGJbvhQgZrNHHJcCPAWYGmXT9FnU58tmTvS6+F20nb0tYrTfy/ukgGNVionf71X6EF0DyAKura2Z8lyWkzL1wmdqMBgsMTOO4xgQEQ6Hl55x4EJrQbDVbDaxv7+PXC5nqlRc1y0lk8k3r6+v//X3fu/39v/sz/7sZWEZPMDgmWfPWzwe98Visc1wOBwPBo2E4b5FSlvocuHmwqs523g8jmw2i1wuh0QiAZ/vvBSzVqthf38flUrFdHNjvlOpfjoadT4KAtS4IKvD0AiKC6VGbwp26BCZclHKdD6fG5GaRtY8D8+vCzbHq2anIjgmOkx1jH6/39C0WlqpdPWDIsMXcnTqxCiipHPT15g+YCpKq2RsER3z7AQjVN6TfeAPHQaBCHAurtSNtngMggY9poITW4ynAIivEWyxBJACTt5TUuF8pm39wosxdaK8Ryq41PdoySW/SzbwVsCgKSS9Tl63pgpWgXd1/HZaTo+rx+P9VZZM9UB8rnX+5/O5YW+YRuT7OY8EewAwGAyW9gNhbwfXdQ1oICDlXFH8yLLmZ5991uxi+TwATLiu+7VbW1ulUCj0srEMHmDwzLPnLRQKBVzXLcdisTDronUBBC5ytirE4t+ZY240GlgsFshmsygUCqYWm5Rlp9PBycmJ2TZ3sThX0jOny30rWGUxGo3MVtRc1FQzoGItjocCPWB5oyE6MY2qtO6bC6zdsEY37tHqBl0UFbAoyLH1CraTt+dYK080RULAoDX9Cjjs89imTAIjeC2j1DQE00/MuWsqQZ2aRtPa8dF2ljyn7m3A+66dPwlWSFHbzpiO1gZ0Gn0TLNDx8BoJDDm/LBsMh8Mm7WXT+l+KKeDRsk/9u4qDFQDbzIKKWfV9dhrNZkRsUGE/j/azZusUFDgoa8T51bJNzrOCyGg0inQ6jdPTU3S7XSMU5iZY8/l5TxcKjCmA7nQ6yGQyS/eEuhQ+JwSm0+kUlcr/z967/DaSZmefJyJ4v1OiKCmVmZVdVd1dDYwx89meAQazMOClF94Zhv3BiwFswPDO/mO88do2DG8GNuBlA57BYL4BxsDMxja6q+uWSl1ISryToiSSs0j9Xj1xMjKrqt1eiS9A6EIy4r3FOc95zuU9CwXjHtYtXyqVPj0+Pv71OI5PzWzxSy/kB9oOMOzarpnZH//xH0dJkpQqlcphqVTKIaxRWPhd1cJHSavwWq1W1u/37dmzZ/b8+XN78eKFlUqlIDjG47GNRiMbj8chM4IzKZQuvbm5CedX1Ov1QEuqcjZ7zOBQqhuFT0O5qwJSQavxAAh0jXjn/whSs8eodP89xkFTa0zvpQpBBTNziJDPPRygpcV78P+qG4ffPavB9b0rBFCAMGYuARKwGmrZQxUrC6AsC6DBW/0oHPXlq4VMRgr30MBE9ghjRvlriWa9HtYoRZ5Y+9vb2xBwqYqbqH2ycciUUBfXh9gGHWsUPdYI0VRJgANrrO6CLGXOvlHwo03BRpY7REGc75/uD2VS/Oe4psZcxPFjRgh7X11C9K1arYYCa/P5PCh+raOx2Wys2WyGao6kUgJKWHsFUZSpxugYDoeB9YuiKK5Wq/uHh4f/i5n973/+53++/M84X2IHGHZt1ywIq1Icx/tRFIWCTbPZzEajUSiwBLugVfRUqeKjbLfb9tlnn9lnn31m5XLZ5vO59Xo9+/LLL+309NRms1koygMDMRgMUoV8BoNBEPjL5dL29vasVqulrFmAAifo0R+UjJmFADcsaRWIalWqNegtN7N0nrtnCzylm2Up+gA2TZ/z/ULx8D0VnMq0aDS6Vz6qDLxCUeaCnHczC//DmkO5KgsDWED5sUZeeSsDgJVJup1WbPTfUUVxf39vzWYzxLOQ/sgcq/ULiEOp0Scyczh8jH0Sx29T9prNph0eHtrd3Z11Op2UNa/KMKtxX2W+dN70f1lglft48KAsgmYlZbmgFNgocPLr7udb3SCeEeInxdVIp9YTPHUc6lZUNnGxWNj9/dtKr/V6PRXI22q1gsw4PT0N80bMCewj/SFeYb1eh3NhxuOxHRwcWJIkUblcrhwdHf0XM3t1cHBwaf8JbokdYNi1XbNQXbBqZnsKGKbTqQ2Hw3DojyoqrDQtTMTD3W637dWrV/bq1SsrFovW7/ftm2++sV/84hd2dnZmNzc3Ibqa8yGwQFGUo9EoCNvJZGJHR0fWaDTM7NFqpS4Cgom6ECpwqUrHKZWas67UtlKxygqo8lWFrj5/zzyYvVtcx8c5+MA8r+B1Tr21rgFyfCfLHaFWpn6OolscGKYKZrPZhHLaei/ur+4gpaV1DpTlIVZAi/Fg9Xtlt16vg4uC1NF2u221Wi1kOPh0PVWS6ipiLy2XSxsMBuFYc5goWKvxeBzGRMGub3NNKHjTFEgFB++j9T2o8wpd95GPxfEMle5T7YvuVQ/gdB/qGvPM6z2IJ5rNZinjABZHgVsulwsVPAl8BmhQbKler9tsNrNCoWD7+/uhLgVBk7AMer4Lc4pLDnZjMpnY6emp7e3tWaPRsHK5nGu32y9ns9n/UC6X/1/7T3BL7ADDru2ameVyueju7q653W5bZhYBCrDKoMP1KGiCnajOiNBpNBoh2LHVatn9/b2Nx2P72c9+Zp9//rn1+/2QPqmWilKtUMgEGwI4cF+owlSggtWrArfVaoUjuaG09RwAPTlRFY/Zu75lQECWSwN2QWlfT+ubPfrO9bPKGqjA5z2zd9PtAEdeEX2XhhLH2lYQpX3jb/XBK2BQ8ENfeV99zpphAV2NglTQdn9/H6oCcm0AA/uFeys7pGAHFxouCPaRWsusFXEzuEEApVmuHW3e7eTjFPT/CgqywChzwHv89GwDgEuBgIJNHxOhQZA0ZUw8QwOY0P1eLpdTxabu7u5sNBqF8ulkOVSrVYvj2KbTqQ0GAxsOh6HgWKFQsEajYc+fP7dOp2NXV1dmZtbpdIIxUKvVwvr7+A5ia25vb1NVQ1+/fh2e45/85CdWr9fjRqOxXyqVfiOXy/3Db//2by9/+tOf/krdEjvAsGu7ZmblcjlKkqQbRVHd7FEAI0DwK6piRZBBEwIYms1mYA5yuVzwOb5+/douLi5stVql8uc9lav564CB2Wxml5eXKSvL7N1AP/X7ckaAKjqO02U8CEQsS6XtEWCePWGcCFr6D4hSYaeKDErfB655pfs+oa+AAdDgAQftfeBBLUpNUwRcQStrahvxJxrXQD9YD8ZFsKwG1dEAC1R/pL/Krtzd3aWOVAaAatlmbap4ib2Yz+c2nU5tMpkE/zjuK16sE2PgOxrc+iF3hFL46qLzMQrcVxV6FmDQGBsf0OtBh7q+cL/p9RREe7bKLA1idb8qYOBesD3z+dxGo1E4apw6KbBFsIQ8p7CSuBh43prNZtj7zWbTVqtVYI3W63VYKwWM9Jl9ylz3ej2bz+d2eHhoL1++tCiKokKhUMzn8z+p1+uf/uhHPzr/6U9/+it1S+wAw67tmpk1m81cpVJ5VSwWa9GD9EYBoFgJTtMIeSruEdwUx3E4hhrlM5vNQrGVxWIRLMX7+/twjoQGi3m/OsLvfal7WLVqcRWLRTOz0H/oUxSlBqGp4mPMKtQ1eI15yaKV1UXAZwBUGqSmQXXKYHgrUX/XmAEFL2bvxmRov2gKbvx4zCxVnIm/FSAhsLmOuqEAlKyrjwmheA9roOul/WS/oKS4jj9BUl/cQyPx1b8Ng6Cglj2gAE8BkQKG9wEvvktWD9kfKHJdN88E6H7hWlnsgAZJejca9/HnbKi7Qa+n7wGsAH5mFp4nngvuAcAG9JPhVCqVQgVLnrM4ju3m5sZ6vV6Ye1w/VEpdLpfBPdhoNGw8Hod50pNrNWiTZ5FYGPo9m81sOByG2KeHz8flcvl5u93+nz766KP/5/d///fnf/d3f/crYxl2gGHXds3M6vV6sVKp/Cifz1fiOI54WElxwjLEKkW5IrTwFcdxzElyIS6BQ6ZGo5Hd3t5auVxOlTvGqvPWqQpJVbieVkXZqZVcqVSsXq/b4eGhtdttazQa4fp6DaxpPd6Xeyvdz3v6UgZGf6dfav3p8c5KT6vyRxFrUBlKkb5ybX7614eaWprqa2fttFwxa6OKXYEBa0jQpQaUqu/d+/ABgvi8dW7pf6PRSMWCUPnTu0pQ2OTmc04F5YOpyAlrwZgZo9njGRUEe34XdkHnkrnjACUfzKrj4+8sEOKZAGWtNEgWRaquDd2PClB0n7B3WHsFqfoZ3cO6H+v1ejhpdjQaWRRFdnV1FUAGfViv1yGdkr7k8/lw/sft7a0dHx/b/v6+VavVcN4MgIF7ehZR15vrkkl1fX0d2IyHeg3to6Oj//nu7u5/u7q6+tzMdoBh13btV9X+9E//NCoWi7VcLvcqjuO8Ci9PcaqVYvYoADVjotlshiAmSkFfXFzYdDpNVfUjQEpjAlRR4v7Q+6g15i1oirs0m03rdDq2v79vz58/DwFzmtKF0NGUS66jtCxzoBHrGm3u6WVlHOirWktZNLC+yBpRfz3WM5aht8x1TOoL14ZQ9lH8Nzc3NplMAqDTinyazsm6E3hIxsp6vQ6nZnp2QxkoxqtMhlrcrHsul7N6vZ6aZ62jwFqgPMjKGY/HIU6BMaDE9aVUfBRFKbbLK/L3sQvaAJyMS0Edc54FGnRPZQFH3d+877/PtRVseaCjzzD95R6esVAQTdO4Ce5PwKzKAs+QqcuMa+dyuVDMrdvthvgnDJLJZBLmwBcUU4bE7DHmg9NPkSUPdT0K3W73s7u7u1979uzZN2Z2860L+R3bDjDs2pNvpVIpSpKkHcfxsT08Eyi36XQaXAkqaPmM2SOdiBLg/Ic4jm2xWNjl5aX1er1w6BAPP4oJcOApWmUVFLSoguaepVLJDg4O7OjoyPb29qzT6Vi73ba9vb0gkFBQaqHxt/quVchxTwIjlSng3krd07KYEU0/1YbyeChxa/V6PeX+ISuAlFM/Du2rUtu+KR0NcFgsFtbr9ezNmzc2GAxCTAMCn7+hiuv1upXL5UDF397eWq1WC2NTK1DjXVhfCnQRsMk8wVDkcrlUvAIgSuuCsF5keAAYiFdgbOqmAByh1Ilx4Whr1t2D0Symwc8511Q3ggZjasyBglVlDBQwKHtHv2g+NkQBBi0LbOj3df8rk8Z76ooDOOqhTzq/nkGC3dPnAiBYrVat1WqFM2LM3tZWaDQatr+/b5PJxObzeWpvcB0dC/ulXC6HGi9XV1c2GAyIs8o1Go2D2Wz2G7Va7f+wHWDYtV371bV8Ph/FcXwYx/FeFEUxQvLu7s6urq7s4uIipN4hxDXdC0ofeloZhsViYefn53Z5eZnykyp1apaOuFeL2dPo+FfVf40g+vjjj+2HP/yhtVqtcEQ1ed/eD8w91Z+ONaWUMsIeK5drqJBU647PKy2sL/9/xonyqtfrVq/XrVAohKI0sCeqRMwei0VpX97XdA4ZJ1X2er2eDYfDVMoh/dOzG5hvFC9WfafTCZU4zSyVAudBgzIggFKyKVAGWkcjjuMAGNSFArNAvMJsNkuxLig0LFAyJQAzHHwVx3GIZ2BvfAgs6Hz6OBj+j4XNHGgwK2vg2Rj2Ggqcz7MfFcwoaGD9PVBU1kHXXxW8smC6t/T6gMWrqyu7uroKqc7ab30elQXx1yPolZeZhVNpj4+Prdfr2WQySbkXCX4EOHBdwHW73Q4ZE51Ox7rdrlWr1ahQKJRLpdKPa7XawR/+4R/2/+Zv/uZX4pbYAYZde/ItjuNckiSvcrlcM47jGOGCO+H8/NwWi0UQ4CoM8CVCUZZKJdvf37dyuRz8mWdnZzYYDIKFqQVaCoVCyi8Zx3HKYvOgQa1oaGRyvD/55BP77LPPgoWjitksXdLZzFICLivISgWqVldUoKO/qzL24EdBhadYAUEcjlStVs3MbLlc2vX1dSr9s1gsBnCGAlUFoII8q/E+in80GtlgMAj+ZZQ9TS1h3oPyHw6HNp/Pbb1eW6vVCvsDhUhEu5az1iBQnT9AGGuhAM/XItAaEuT6393dvVNJkFiM2WwWWDKsYgIric73e+NDjfXzaaa6d3QdtE6FAg2At2Y78Fm9l+5H3wf/XOicKoBFabNXNOCRPipwYV8RrHh5eWkXFxepAMOsWgnaB2XU1Ahgjc3eBrR2u117/vy5/fznPw/rZmYp1nG73QY5QdwUYGO1Wtnp6al1Oh37tV/7NdjNXD6ff14ulz9qt9v/br+iIk47wLBrT741Go3iwcHBp91ut1Iul2OoaArdLBaLIFTNLChQrHI+w+mDz58/t0qlYrPZzHq9np2dndlwOAwC3QcZZvnbPaWqFjpWKOcNdLtd+/TTT+2TTz6xk5MTi6IoCDUEH9flmiroVeD6/uDnVmYCoaWMA+9B2aq/1QfS+dgDs0fri5M5Ceg6OzsLMRmkg2olRIS7j4V4H3Dgf6vVKgQGkn7I3NI3hL6mW2J1QlWjsLvdbkqBZJUzZs8oBc5n1Zeu92TPqWLU+YWB8DEUgIXJZBLOJQHUmlnInCgWiyFdDyYjq+l8cn3GroeDKQPkWSr2MYGSxKNoKWwAkS/drdU8FSiwVgBw7uf3m7IngGnWb7FYpAAw91+tVqGMOyfL4rbiuXjfs6sFlm5vb202m9lgMEixWLBqnU7Hnj9/HoAy+5v4EowMgCrPf7lcDs8yFWmloFycJEm3Vqv9pNVq/fOf/MmfLP7qr/7qP8wy7ADDrj35Vi6Xy81m8+X+/n4eCpAgMbO3UepQk0qbwi4QpQzNe3BwYGZm/X7fLi4ubDgc2t3dXSgBTQCfWlVxHId8bISMKn31X+LDxFVwcnJiL1++tG63G/qqAMP7iRGwGqxlls7K4H/kj/M/lCb9JrZBBSUMgDIYKBTPBCDkNS3RzFKHcCEwUaYoHVVQ3o+tTa1R+kNBLmh69TWrolFLX9P8sCiXy6X1ej27v78PmRNY7mq1I+TVevUAkPnR8wqYKyxPDSzE0lSqHeVBHQayJwA4zBH1GiqVSupME1/ymPszj/ytMTgwMwrcPMDQ/WhmAZDf3t5atVq1arWactnhUjFLlyL37Ja6GLIAi1r0+twwTuZGXVF6DPVoNLLJZJJyFwCsNKvJu1mIK4J1oz4D7k0FBJVKxfb3961WqwVwxfv6zDMvjC1JEiuXy+F8ElxLD/ePkyRp12q1/25/f7+z2Wxe268gW2IHGHbtybc4jqtJknTz+XyOB5ZUtlarZa1Wy5bLpc3n8xQ1j+JCkMAwVKtVG4/HIZ1yuVyamb2TYYDSpbJftVoNFs58Pg/X1XQvLC3qKzQaDTs+PrZOp2OVSiWAEbPsPHpV3OpnxoqjTwhmorg1ylwVA+4CdV+YpU/I5G9lHfTzqqxUuZZKpeCigM1gzlHy3M+7Shg/9/NuCxQqLgV9X7MXlFrmWvSNRnDs+fl5WD/6Qx6/WtCaa58VZEjArCoPFIIGYLKOq9XKptNpUHyTycSGw6ENh0ObzWahGJBe08wCUwJ4BdB+m1tCAYyCGGU9aOwBBWw8A/TbAzr/k+dF0xfZO55FM3sEB8pCcF+eXdgVdT1oGWiYGbJOAAoaQJwkj5Uy9eh3+kIgK2s2Ho9tMBiEZ5Tnk6OxK5WKlUql1LPp2UX2prJT7EGNQYrjOMrlcuVarfajdrv9o7u7uzMze4z+/CXbDjDs2pNvuVyusd1u29vtNnr425LkbSW2vb09a7Vadnl5GRgGVUJEUJfL5WApRdHbynBYFFpJEGoaP3K9Xrdut0st+GDhTCaTYLljzalgzuVy1mg07OjoyDqdTsjdp4y1T8tSwaOWLYoLpQZ40L7i/sjKDcfKVXYCqwhlokpcv48yhpJWar5UKtne3l5QoCgzLE/8uVorwitefnp25fb21q6vr1MxCFoLQwGDj1Rn3rS4FdT8xcVFuJf6qGFpOEJaj67WftIADGaPyoYSz5rFwRkio9EoWMCwMig9lJOyHoAQXAsoQy0O5ZtnGnx6Kn971xb7QYGiHhENk8Yc85ywH9hTWPAK4vy+9p9R0MpncL2USqUUK0L/SU/UypdmFjJhOESKPvF5To7kCGueC+55d3cXslko2c06M55arRaOvGZsGugKQNcYDOaH5wIA8zDPSbVaPdnb2/svt7e3/+0P/uAP7v/2b//2P8Qy7ADDrj35liRJa71eN1arVaSCSgUbD74KMALPVquVHRwcWLvdtmq1are3tzYcDu3Nmzd2fn6eiuJOkiTU6m+329btdu3FixfW6XSCcMW/fnFxYf1+3/r9vl1fXwf/J8IhjuOU9Q2wQDirleWFtrde1RpHIQIeELxYzihqpdcZG3S6sglm6UOj+B1AooCBvhHUpW4NFJQCBgRqFpvi74erifgIshzMHis7olBp6p5Rn7z+3Gw2IX1xNBqFceBvBnRxWqFakRrgyjUp3AOQWS6XweJF2agCGg6Hgcli75BKyTUJyFT3FH9HURQqD37o4CnP3vjgXJ1zH0+iQBU6n3VXVxQxGereUfaH+YFp04BhXWs+q2wH7gHGHcdxKMP9IAfC2GH+zCz1LJD2y/0AcJSD7vf71uv1UrEgADNqflAxkvNBuHetVrNWq2Xj8fidypPa7yy2BbDT7/ctl3t7fkwul4ur1Wqr2Wz+94vFotlqteb2H3RL7ADDrj3p9hd/8RdRkiSt7XZbubu7i9S3jIJZLN4e+obvkgeU6oDr9drq9bq1220rl8u2Wq1sMBjYV199ZaenpwHx68l1BwcH9uLFCzs6OrKTkxM7ODhIBdWRykWWxvn5ub1588Z6vV5QDJpXrxYfQtaDgSwhrv5ilABWoAYUmj0KVLU0UV4IWhR4VoCe2aMCBoDpIViaPkdQWKFQCHSrWlGM25f41bXTvmCRQjmPx+Nw1DPCX10/9E+tWO+bZ55KpZJtt9uwLsPh0G5vb1OlmSmqgyWpEfQKgHBZsL70czgcpo6opqLjYrEIL0CAVp0kHRN3iAIglDOurUajYcViMeVW+lBTViHLdaNrwvWUoQEQErvD/2GUFEADMDXuxyztqlAWCABLP3GhsEd5D8aBg9kABMo4EavAesN28X0zs16vZ71ez77++uuwz5AT7CGCHy8vL+3y8tLa7XYquBWGQU+5ZG8SZ6KuUGW52G9fffVVcKm2220rlUrFer3+w+l0elKv1y/sP+iW2AGGXXvS7eGB3U+SpKT+ZPXT8vCTO41lCJ0KCGg2m1YoFGw2m9nV1ZX1ej0bjUZBWJOaWS6X7eTkxH784x/bwcGB7e/vW71et5ubt/VV8FFTX4HTJhHmw+Ew5W/FotT4A64DAFBrhKagQQvSIOCJvlcrTXPO1bLkuuv1OkTAq6JXa1cBCJYmVhwCUV8AIfXh+5RKBLpaujoeLDOsdeh9sl/8ujMWBQnKBGjMVeswAAAgAElEQVQMgmdSAJHQ08Q4qPXKXkmS5J1qjFRs5ORDakUQdwFQ4BwSjb1g3RiTBsnyN7Q/yrJcLocX+yeLsdE9o7ED6l9XhoF9wRx5oIX7Ts/g0MqHfn8pI8L/lXnQn+/b51j7GmOy3W4DY6Flvs0sxZgByDQVlNifcrlsjUbD8vm8LRYLu7q6eieglj0BuPjoo49CBVYP0sm6Yt10H2uchIL4xWJhZ2dnVqvV7PDw0Pb3961QKOQKhcJRsVj8Ya1W+//MLJ1P+j3bDjDs2pNu9Xo9iuN4P5/P573/WpWVF4goLuIJOK8hSZJw0NR4PLblcmm1Wi1YoLVaLURFP3/+PFgZWnseAYMlg9WFsCiVSqGuw2g0stFoZLPZLJQtRkHT96zAOpq3rDVwiwwInRN1RfhgN67FNZSyVhcEbg4UFvdRC5W517M79H7e/5+lyBSomFmIVp9MJqnUTLO0m0Hpbc84+RgM9UEj2NW3f3V1ZXd3dzaZTML66TwAlnAxrNdrWywWoZDUxcWFXV9fhxgFwARzAr2vpaMBOr7/GlBKbAWxK1pgysxS+zCr+TlX1iLrO8osofi0uiXjQBGz/pqyqfdWwMre0jEqYFTGy/eXvqnLULOCWFfNkvEuEAwGQMdkMrE4jkP2gjbiZ66urlJprrrHYKRarVbKTeIZMA+m7u7ubDAY2PHxcciIiaIoieO4niTJj4vFYuV3fud3Vv/0T//0S7sldoBh1550KxQK8QPDkFPFaJYuK6tBhFDg/KzVatbtdkH0NhgMbDAYhLQxrdnAEbeUhyUtikNo8FvS4jgOvu/t9m1Gw9nZmSVJEs4/6PV6IWiy1WqlLDq19lQo8bdZutANbAOAQMetLg0ze0cxe4vfK2QNatQX/1eFokJer5ulPMhRJ5CQzzAOs7eWGIoYl4GOie/SD6+Q+BzXRkEry7BarVKBpoBEmI0kSVIHXD1//jzQ8WaPB0EtFouwh16/fm2j0ciGw2EIwgNcqoWLFezXnH6rkmM/EzeSVU/g+zRdjyzrXufVu8cApBpoy97D9QQgMHvM8tFn07tA2JswhPp5AADfJeBSY5V0n+se8LEa6q4C1B8cHNjx8XEoCa/ghKBdMqjYg7xHfAu1WjSehTEBorPYNQDDeDxO7e8kSQq5XO6Tcrm8VywWh7/0QtsOMOzaE2+lUinJ5XKtOI4Tbx2pzxWBhtLGGoyiyNrtdnAt5PN5u7y8tOvr61AMSIVzp9Oxg4MDazabIbqZ4Emt1OeVbalUsm63G3zOHC40GAys1+ulKGVcFwjZLGWvYEFpaL23BjeqVUfzlpz6sxGofI65U/rap5mqEMxKPfTKhnEQGKjXMbMUaxNFUShghEtHm2ZbAEI02I6XP37YB5ZmxT/AZvR6vZDZANhstVpWr9dT87FarWw8Htv5+bmdnZ2F1D498Eij/TX4Uu/nGR5VTso6qLL8EKtAy2J0dE+wr7wrQP9GCXoAyvukbGpwn1k6biLrfvrsamwOn1VWyIMBHbcqac2+4Dp8nr6aWciSgkXUmh7IkCiKQrAqGSy4xRqNhu3t7Vmv17N+vx/G7TMhlDVRF+L9/X0IjtZaLPl8PlcoFF7WarWTTqfzpf0Hqj7uAMOuPelWKBTiQqFQy+fzkVq6ZumywFhzPKQ8tPl83g4PD21vb88ajYZNJhM7PT214XAYfKTJQ4GVVqtlJycndnR0ZM1mM+XaUKGrSsvskTLljAWzxxx6AuNev34dBBgnKZZKpRB3oQBB//YBff49remgud5K4/o50abKQAW0XkPpZ72WKhVVZhoYiYLEklcFpgp/u90Gd8RkMklVpGSdfdM509gKz34o2PLzqdemciBMU7VatePj42Cd4h6Ioiik6+I+MbMUSNFCV3o/BW8a56HKFOWDS8P3nTF/CDgoCFGFqgrZs04KbN7HbplZyl3E9VgPdaExt/4zzJH/rGYu+NgTP17tO2495IPuax23B7K6BrrXKdV9dXVlBwcHwSVDxcfBYGDffPNNuA4MDOAEo0Vde4BZqtNqka5CoZAUi8XDWq32Sb1e/79tBxh2bde+f6vX61EURUk+ny/iB1aL0Qtas0f/KQqnWq3aRx99FE6FXC6Xdn5+btPpNBU8VS6XbX9/305OTqzb7VqtVgv3MLN3LG5PeVLKl6OV7+/vQ953v9+34XAY+nV0dGTdbjcETKoVr0KNe2Ypck/LesuOPqqyzKKG+ZyPlfACmYBPovrJHtDP0nQMfA7r2wMffifgDJeAfofAS1V4msKmsRWqnFQZKVDQ9/RarANnWBAtj2uK9VV2guurhco8oZRpfB4QqgGn2j+NM+F/WYDhfWup6809UagKGDxj4b+r+0f/T7+yYm90TbOYAZrOO3PjP68/fcAz9wDMKzvBd3h+ACOkNhJ/QtAjWVL0Yz6f22AwsLOzsyA3Op1OAAxv3rwJZ9HwXQKQl8tlyG6h4BvxC+v1OpyLome6FAqFqFQqtRuNxo/b7Xbtz/7sz1Z/+Zd/+UvFMewAw6492fYADpI4jgv5fD5CwWP56+E+WqaZv6Po7cFPL168sEajEehGSkVj3WOhcFiMxi6gENSHq0ISJX17exuC20qlkrXbbXvx4kXItx8Oh8EvSuGeTqcTgIZaoghS/u99vSoYzdLnWWRZVD4I0VtrfF+zHbxViOJTwIDC428FJGrdkmqpgl0bgIs0VNgMTUt9oG5TSk/Hwvg0PoSxK5ugzAfBslrBElC6Xq/D0ekU6sGSVOXtlSR9UlaA+5JFQoxEVgVGVaI8AwCib2MVtGkfFLQo6KKpO8qPTdff7yHPGihjoyDHgwrWSGupKI2vwICmDAj3UNeD1n7w/dhuHw8kGwwGdnp6ahcXFyHmhFgglR+TycQuLy+t2+2GeixUlqVMNHEcMBAwQ7iiYBEpBx/HcciY4hl7kC1RqVQqVyqVH9ZqtcNSqTS0X5Jl2AGGXXuy7UGA5NbrdV4VA9b7aDQK2Q7r9TqgfOrnFwoF29/ft48//tiq1WpQAihu6GX9PJkM+Xze5vN5iu5E+Hi3COBEyyFXKhU7PDw0MwvU8unpaTgghzzvjz76KBTk0eqNVKZst9spYGOWtqQR5l7RqCXmmYX3AQ58tTo25pvPawyHpmZ6S571M7MABnAR+X5wDxQp1+b0RgopcSS5ult0r3BfBLgqjM1mExgJmvqcNXWUVLqbmxsbDoch/sIrH+adQEeUqk/nZF74HvuNvrC3fSqg//19GQ4KiPzeUJeMAgBVuspSsV8VIKirgvnVviizpamHsFNZjAF9pDJiFKVrIrxvz6rrQWNvzB5dQrAOupeIjzk7O7N/+7d/s4uLCxuPx8HS1/vDdp2fn4cgSdwMVH8llgEGDOaJ9S+Xy9ZsNoPhQR0GDBydz4d4l1y9Xn/RaDR+UK/XP7cdYNi1Xft+7UGQ5TebTUGFCCluV1dXNhqNUjn0AIbNZmPFYtHa7bY9e/YsROFTPTCKHk+zA/EjHFE2arV7RaoCDGGs0fFRFFmlUrGjoyNbLBZB0Z6dnYU8cNLwqChH+hznVlBxstFomNmjQFTQkmVNmb0b+KZz6vtt9ugTBvyon1v/ppyuxndoLAJWotmjQARU6H3V6vQuFX73DIayAhr4ycsHv/m5wO2ggAflQNxCoVCwZrOZSh3U6ysDotk4CgBQLh5UKrDQhkKmpgDghb8BDh7k6Zpq8y4mP9fsH/aMz0DQOfMAUPeYAhHApj4fWkRMGS/tv/+OBlyyX7wLDqADMwFIYE04m4N5V7cg1VmJk9E+sM8ADwQsE3PAWjSbTTs+PrbBYBCCq6vVaugnmS2lUikcU16tVkMmFeB4uVzq2RlxpVLpVCqVH5dKpf/TzNJRv9+x7QDDrj3ZFkVRtN1uC9vttvDwp5k95utfX1+Ho619cN6DbzBERXOyHUfMkiJl9iiwUQ6qWLJ8tapsswQrSg0F2+l0QhBcp9Ox6+tru76+DqCn3++bmQW/J8qi2WyamdnR0VE4R0AtKu5LU6vS989bbJ6C9ooXBc/1YT70cz5dU6+rFm/W/Tx1rYr5Ye1TTIjmunM/vSb3YN2UGUHBcF2dO1wEnDew3W5TlQzJnsFi9WmAGvOhc6yZDihUvkdWDiBD6Xmte8FLy0Hr/LhnJYxLi5apu0PHrWDTx614Jc/3/DpmuSd0P+q6eXcKc68Mk86hMggwL/p/5pQ4IdwLFExjf2FAAM43m01gG5kflDYAUOs1kLUzn88D89Rut+3ly5f285//3K6urlKGBsBO1x05AIi4v78P1221WgDDuFgsNorF4k8KhcL+f/2v/3X013/91987jmEHGHbtKbdou92WH0CDmT2WO55MJuFkOVU+ajFGURRQPocZjUajwAJQrU6D5Lz1q0pOrUbe80F/WKEoAUoNU7Gv2+3aYDAIls7Z2Vk4sTCKolTJ3Wq1atvt2wpxh4eHobQ1Ckz75y1DL9izmAd9z49LlTL90XRAvY4PelRFwk8vRNXCVGWsRbiYT01B037pvTRwUZUgVnqWZYyLBFfIZDIJro9arZaq9qiWIXtGAZWfW0AsjT3E93B7YRVrCW72GSwYsTvMBfOjrJe6f5TNQAnyGeaG/qrv3me+qMvIsw8euGQFmio74IOFPUDRAFR1z3jXkmaY3N/f23A4tPF4bKPRKHXKpAbK8uySxVSr1ez6+trW67dHjWuFWO0fMSz9ft8Gg0Ho197enr169coqlUqKWdLiVtvtNpUyyl4HKOKWJFMql8tF+Xy+VCqVPi0Wiy9qtdovlV65Awy79iTbP/7jP0Z/9Ed/FMVxXIuiqPjANpiZhUOELi8v7ebmJgQIElg2nU5TtCYFeaj7D21I0ZUs61NpWB/Fzv/1PfUDawVHhH0+n7d2u23NZjNkR3Q6HcvlcnZ+fh5cK4AdPXSJY3xfvXple3t7qcN1EKJZAWjeCqTxf/qtjMn7qGPuo9/nuqoMs4CL0sgoJgUim80mKG1dMzMLQpdDvPi+Kkuzx7gFAhZ1DThjhIbSVPYB+hrWh5NQvY8f65X7KQOlFiV99PEusEQAhiRJAt2tLIKm5wEQUU6wPQpaeAEYNE5CrX/6yDz7tfIATAGa7hVlnvisf0604JMPrAQgsuZmlnLB+IwkxrVcLm02m4VDvq6urkLRrLu7uxD/U6/XA0jX67I2HDrHkeeAVe0fhcR6vZ69efMmZEs0Go0ALDFgiFOivsNm8zbbgn0KmwFA5aTcg4OD4HrM5XL5QqFwnM/nP4nj+P+yHWDYtV37bm02m1mSJFEul6smSVKM4zhCcN/e3oYKigAGPR1vsVgEP7BWb4Nl8L5zXuqfRpmiXLTmgtmjAvXWvSpj3BsoE41TKJVK1mq1ws9+vx8AEGlX6nrhpLxKpWK1Wi2loNQF4qlqmgcM2j8ffZ4FFswsVYRGr6mKRt0MKE+9L7EJqoBubm4CKFIlh3Li8xobofOKUtbvqHXPe+pT95asHq6Fotjb2wtFnAALHKesZxooqFCGxAMwWAFcDYwBAMLYtJIn84ey1Pz+9zEnPu7DK3n1s9MPBR4KcnSveGDt2R6NQ9EgWQ9aPajV9QEoEIsAkFTXEfuEs1pwbVA7o9VqhRggKqzy3DHWer0eYhjm83lgl/QZpkBXv9+3N2/ehKJupVIpsBVxHIf1KhQK1mg0UplBrDtuvnw+b3d3d8E9ymce5iDJ5/PtQqHwaS6XK//Wb/3W6p//+Z+/l1tiBxh27am2aLvdxqVSqZLP5/MqrEDvmh2hQvH+/t5qtVoINLq9vQ0ujPF4bGaPPlSEKxX+OG1Qo54RAJoKRT9CZ53CVt8t91MFgNULJQl44MTDVqtl9/f3Vq1Ww8FW3grkmljS+vJ9UivXLF1d0sze+b4qIu+q8Z9RYKF0P98DJKgFrIqGYNTJZJJyJ2ksif6uIERBAtS+LwDk10WBkqbjaQaIZuGQrcE46AuKwNP4Wa4YLbtN//R39hPgCIDCPAEYKpVKSrkr66W+fQV2rCGKHEaOeBnuxRoqSFDFzj30c/pTGQZl4HRPsme5Fla/1kwgrZGX1qRQ8MKJj+12O8xxtVoNypzqqsT/aJyImQU3BimW9I81JLuHs0Km02noOyxRqVQKe5o5pf8KGMwsnGhp9ggANbMmiqKoUCiU8/n8D5Ik2SuXy2P7nsdd7wDDrj3JVi6XIzOLc7lcLY7jxCxd4RAfrSoxDZwjD7pcLgfAcHV1ZbPZLGW5Yoktl8tgTezv7weFzgOu/l0zSwkCpd69L11dB1oxEmG5t7cXajFst28Pq6L+gJkFWrXZbKboTgUsHrjQJ1VYKrS99Z0FLJRe18bYuK4PPtRsBs12IF9d55y/YVWI5dA4ASx1FIqeZMi46C9uANaN9+mHrhfzAVOAhcpeYM9cX1+HY7YVKKhyVqtaU2N1/5BdomyCAgmdN14cTb5er0PNEWJcWHe/zl6Je0ZI3UOMnc8BnHXf6l7Ra+l6632z2A7PWLBn6Id3a+hpsuPxOChUFD+BobwUdBCz5IGR7t9qtWq3t7e2t7dn7Xbbrq+vU2AE5gYXJ+7P0Whki8UipPeSXqmsJvUZYEg0BkPnwoND5qJQKOSLxeJJqVR6UavVvrLv2XaAYdeeZCsUCnEcx3kz29tut3l7yzikBBICWkvCIowqlUrwYyL8yYPW4jzQ7Dc3N3ZxcWFffPFFYCwoC6z0t7on8CMjbBBSWmsAwaA0vfrvoTe5B1UidWx6ciJ+U08Vq0BmfswslYKmSh5hqJ81S0fB07yCVkWuII7v+SOuUfLqP1dgooWalstlsLzUF+7Hof1QoAKY0ngA9R8rjc/noOap90C/YT6wRBuNRqr8t1L/Zun6DwTdKdtBo2+Mi/2HwgYIU+QHGn6xWITTUxUg617UfaFgzoMF1kJBYdazhTJT9ojPch/+VubJu4j8ntV15bPsFbITrq+vbbVahWyn/f19K5VKVqlUAjDgqHDtA/1mT+o8qVtIz3cBlG02j4eGmb1lBcbjsZ2entqbN2/s5OQkPIeHh4ehONtkMrFCoWD1ej31PCio5XcPNHkvSRKr1Wq5ZrN52Gg0ftRoNP6bfc84hh1g2LUn2Upvcx7rcRwfRlFUUKWmwo+qaggN3uehjuM40H8I5Wq1amaPAp/P9Hq9lLVSqVRCpDyHCKk/XYWlmaX80wAElJVa72qZYblypDY1FzRIy8cV6L2hZr01ifDUwDO1bpTiVyWu1/YuC/Uxq1Wp91SgoGBCU19Vcak1i8LEstZYBo1NUPCgWRH0Qe+rQIZxqBLDyo+iKKSNAiYJPp3NZmGdfPAcVL6m1PmCS/TLsyIKQtXCX61Wtt2+zY7hhatKFTzsDdfV0tQ6frVg1X3Dfaje6cGmglYFDDp3zL8P8OR5UGCn+1LZOL4PEFcgB6But9t2eHgYgJiyC2YWYn4UJPjUYFge3SesMywXsgNDAffUxcWFffXVVyHF+cWLF3Z8fJwqIU5QpAdEsILMxWazCeus65kkiZXL5bhWqzWq1eoPyuVy+bd/+7dXP/3pT7+zW2IHGHbtSbZcLlePoqhdLBaPC4VC3itNrCPiAHK5XCrFUk+WhOZGqWAxocyTJAnZCN988004xbJcLtvx8bHt7e2FeAiUhT/C9qHPob6DWvDQyl6p0TcEKIWDoItVKaMU1SpUC1UtKm+ZZ6WnqQ9eBW2WcuV3z+aoFavgwrs31LLkWqyDWqVaP4B4Dz2cC6GrlDFjUqWmClh9/Dr3/M53PYBC2dAXLEJV9rgNAAh6HaXyFdx4C1/nnsa+5PAymA6qTtbr9QDOAAxap0ABHUpYwRVAlvHCrOi6KTDQNdJ5y4oDYf6USdN9oywFffHztre3F54/0iAJZlT2A+VLDAYAiD2gWT3EClFI6f7+3qbTqQ2HwwDGFotFkAWsNXN4fX1tv/jFL6zb7abOnBmPx9ZoNEL8E+uZBfRpAFGKPvEe4yoUCsVSqXRSKpVq3zeOYQcYdu1JtnK5/BtxHHcqlconlUqlkMvlIrN0HAPChnoKqlzVMgIwqGJTYW1mQehg0eXzeatUKrZYLOzu7i7UklfhrPUIzNLR5ygM73NXQYxSU+WH8PRUrro0ADlm755KyXdUmKtApnFPrgXbov5vPqeMjroidL51fGpJcR8PKLQPzANWobILWvvCW7U0dZGootQAtay599S59k0DXbk3GRLsGax07yrh817pKvukQDOrbgGAghLZ0PTz+TzQ9J5B0f3HfDAXeqQ692ZsAGsFVwrKdU11v7O3qBWhzIWyVt4lpsyc7jWuxzPdbrdTjEI+n0+BNwWimsHiGSTYF1wZZD/0er0QJ6EVTpl3Pf329vbWzs/P7fT01D7++GO7vb21er1u+/v7Vq/XQ8wCacCMV40KdUUgZzSt1CwEwubiOO4mSdKK4/jsQ3LStx1g2LUn2XK53P8ax/HeQ6nUggpSbz0rFY4gUYqY1CwEFQ+xCp37+3srFArBUiHvejqd2s3Njc3n88A0QJeqANTUTKKhvaWuSt27MzQQjL95X/ttln14VJafXwMv9V4KAJTy924PpaaZ+yyKn2vSD1VAD2uZYnw8eOL4a2oHAKI0DU7dJWqlcm+zx9gAFfKq6FQB6ud1XtR69euA5Y9yAlBQAdArVKXDlZr39D7vw4yh3JUh4+jvxWKROvBIA3GZaw361LVibVCKOkYPPvRZ0r3i4xAU6ALQ/J7lpQyXfwYArgqYiS9QtxPPl64l3/d7gTkkALpQKNjd3Z0Nh0N7/fq1ffHFFyGVWat7AqAVcORyuVAwjvNrOHemXq8HdwfMDeBmPp+/w8ip68mv38NznIuiqL3dbjvr9Tq27xHHsAMMu/YkWxzH/2MURa2HtMrIBw4RpGZmAd3roUAa/a7R5h4o8DdWmJkFC+QXv/hFENLX19d2cHBgh4eH1mg0rNPppCrJqUWofmGlKBGSCEpaluUr8/AOXeytQLNHyhmLTCl2BTS+adCZXtvXdvCWoSo6/sfvgDg+o0eTZykVAANlfpUZUFDI+ps9Aiz1j6sLRDMjPBuibhroaZ1vrQCKiwmFQQQ/5YK9m4SxZVHRHnB5Row9i2+e4Eqi8OfzedjLzE9W4Jy6AHRf8Z7fe976fR+z4Fka/b5a0jo2daNp7IKuoa4X98tyfcEKapEl7ZcCGAJZmc84fltfYzqd2i9+8Qv7/PPP7fXr1zafz61er1un0wl7BfcELgoAQJIktlwuw9HXL1++tFwuF4p8adxEoVAILiXWl7XSTBgFJaxpLpdLzKxhZp3tdhvb92g7wLBrT7Jtt9vVdrtdq5Vp9ggYOKBJfclYXzywCAqAhFqG3peK0sGqu7+/t6urqxAoOZlMrNvt2nw+t4ODA0uSJHVGxEOfw/WVjlSqn/tlCTsFAGoFq5D1ND7XVYXlafYsgMLn1MWiyoHPeZrcx0koYNJrIGQBT0pZ81nmR88A4KUWrB+7t151LAp+aKyn/6xXSLxPLAnngLRaLSsWizYej+3y8tJev35t5+fnNh6P36G/ube6UphLZTc09kOVJHT8drt9pyQ0jIbOjQcfjI+18Ouj/VF2LItV0LNLshScggxlAPR+Cho864WCZg00a0fHpX3kWn68zKFmvACct9ttOLvh/Pzc/vVf/9X6/b6tVitrNBrW7XZD1dX1em29Xs+urq7s7OwsAC1cIqvVyvr9vn3++efWarUsl8sFA2IymaSOuWf/a8CvjyXRtRB3WxxFUWW73ba3221i36PtAMOuPcm2Xq/PN5tNOZ/P1x4eokiVkh7kojQxghahn8vlQuS9Ut4oHhWk/J/rEph0cXER0tui6O1x2BrBjXKEstZgK4Ttw5jeCfxSa1QtZK+EFTio8PRKMyvOQIWsNhSm0rdcH0Gnwtin6dHU4tR+0g+NychS5Ho0tMZoKHuh41KLjO+IsA33VgochaQKKyve4CFSPRwEdnR0ZI1Gw5Iksfl8bm/evLHT01O7vLy06XQa3F7r9eO5FQqWfFyIrruuGb+rpcme0VNB2e/qSru/v0+dIso6K52vCp7v6/iVgVIGL5/PhwBM3RPKoOgY1QWTtda6H3TsXFvnybuQdN48s6XsmmanEGD4zTff2NnZmb1+/dpev35tZmadTsf29/ft6OjIDg4OwlgbjYbVarUQ08Rc5XK5cA7Ez372M/vkk0+s3W5btVq14+NjM7NwUqYyfcq+AQY9MPe/R1GUj6KoaWY7wLBru/Ztbb1efxFF0V6pVDrI5XIJAkYVi1qNCFR8lmQ1KMMAWEAYkSKpFGEulwsKQxmDwWAQBOnt7W2IuF6vH4+2RQioFfwhy9wszSRkUbVqTXuK2VO/RMzTB9gSD4w8Y+OVq/qrvcWeBRj0WrQs2lo/o3EFjE3dIho4qvEU/O0ZDu6jPnC+T1Mw4cGCd3VRVnh/f99qtZptt1ubTCZ2enpq/X7fxuNxUNSe5ufe2i+1lOmLjsnsMU1Ss2s0Noe/lSXT48X1PljF6pphb2n6op8f5qZSqYTzO3gudM48yPX7WBWlrqMCMw8qFCgoIFKF6xknZRw1zZJUagJGv/zyS+v1etbv961SqVir1bIXL14EBokYh+12a/V63ZrNpq3XaxsMBsEtudm8Da68vr4ODCS1HE5OTkJ1UFJtSfm+u7sLbq5yuZxaK/8sCfOUj+O4nmik8ndoO8Cwa0+y3d/fv4nj+DMNRFLFCI2t1jTIvlqtWqVSScUk6PkFuDG8ZYRA3263ls/nQzAb95pOp9bv94M1WalU7P7+3g4ODkIGhQpdFJ26GRAOxBdgTati5jNK72r8QZav3CxdpIjPKVDgHkTRa6aFt86VVvdCXa/N57xyV4WigEHBjM6LBuQBGFgnv3Zeyev6oVCUyeEncQJZAXxqFdZqtaA0OGl0vV7beDy2i4uLABY8MzOHP4IAACAASURBVKOMjr8+yg8woHQ8cwWToKccAgioFQD4vbm5CXtE51kVMhUOlVl5H3BT5Y67T8euh2PRV78fdN5R+r5f7BFAjX9+9XO6h7JcTurGgVFcr9ehkNJgMLDRaGTj8djOzs5sPp9bFEX2/Plze/bsmb169cra7XaYG2KSKPq22Wzs9PTUvvnmm+BuUHmix1N3u127uLgIAdK4Can8mCRJYGpWq9U7+5q5FACdS5KkliTJ98IAO8Cwa0+yrdfraRRFd+VyOYqiKIL2peodVdk0sG+zeZsdQcSzKmWzR+sHnytgBOWlQUtKc2t61XQ6Dfclq+Lu7s5arVYqwh0FSGyBnkWhSlz/p8JQhacXkghkFfrc0ywdJGaWzmDwlrxZdgogQpTre1pYhTpCW90D6pf31jxroXSzV7qaaZElWOmfUtoazOqt4M1mkyojjIsCa93MgsLQND4dM0GPZhbiC/gen80KqGWMGhTr10DZKXVRMH4UjbIM7G/vekFRU1/Bu3K88tU+4ZIBdMOiZZ2m6WNClDVQC1qZMqXjlYFSlkTnRV0cus95ceon7MByubRer2fn5+d2dnZm19fXYX05KfbVq1fW7Xat2+2GzAnAJkWbSqVS2As3Nzf2+vXrlDvz/v7eLi8vrV6v29HRkbXbbavVanZ7exuCJmE6dT/ASGmJdP88Pci7JI7javy22u13bjvAsGtPtSVmlkBN85ASvHRzcxMEj2Yj4FLAQlUrXh9WqsfxUON+mM1moQwv4EGj/rEOuBfsw/7+fhC0lJ0lBZNrKIXufb3Kbpi9G7jo/1bFgvDU+TCzTKYBYe8tYqWDuaZS+uoS4W9Vdgow1G/uUxSxvt9ZbOm/D2rLova5rzalvFUZoYRU6REoixKO4zhY8zpn6q4i3oLARIAbbhAFad69oMG0WSwM/m6t4wETxPWUcfJgUsfPNTXDhPVjr+me8crcn9egoISUwMViEe6lypx+eNYuywVDY83Zh57tYn+wl+gjB0zRx/l8bqPRyL788ks7PT21i4sLm8/nls/n7dmzZ3ZycmInJyd2fHxstVotACrdZ8xBoVCwo6Oj4HqoVqs2n88DeN1ut+H0Wyq0cuw8h0/BUsL8UdsBg0RdqqyZALk4SZJKLpcrZE7ae9oOMOzak2y5XK5jZpVcLhdprYWrqysbDAYh8FAjvKGdSYNTF4YKmc1mY41Gwz766KOQEpXL5cKxxtfX13Z5eRmsEwAHCoB4CAUMk8kk0LjUlIfSRtAhpNUKpD9K4SLs+amfN0sHepm9m+PvFRJKgffwf2OV6XVVqfk4B1XW+lNdE2aWKrGsVDjr4RkL7qGWvzIV6j5RUKPKUpW6Hw9K3QfDsZbcC/CA8mLt/bkYfk5UeSvQ0GJCmiVCUwWFIgHYamS+gillbmgePGgVRGXYzB5dIcwH+4N5dZZuiomg8JRmT/BZ/T57SGMR9Dp8x8xSz68HPDo/Oi59lgFt4/HYBoOBvX792j7//PMQewCT2G63rdPpWKfTsVqtFvaoD6rUvUWVSQIjLy8vwwm5m80mGBfr9To87+VyORzDfX//9tRclU/K0uh4dS0f1iR6AAzF3/3d343+4R/+4TtVe9wBhl17ki2Xyz03s7rZI319d3dnFxcXdn5+bvP53AqFQlB+Gl2vle40yAsheXd3Z/v7+/bpp5/as2fPQnrkYrEI1d+wPsbjcbg+LMRm8/ZgosFgEPylBIlx4BXH7rbb7SBIOJpYLWPGgIBFqCIozdKWtQaVKXPg3Qtm6SwIpYlRqqQv8j2zRxYAIe9ZDZge75PWeyo1rWPgp1qT+lIFp5a7T1FD8TJHSv+rderdLFxPgYS6OwB/ZNMQNe8Lgvk10ZoV+n8AiYI49eurIlfFoa4wMn1UUerZIKrwmHPGCSMCuFUwqiCMzyr75V/qOuJF03nICsD0gErHrIySzpF+nr5q1gd959Aysh++/vpr+/LLL+3m5saSJLFms2n7+/t2fHxsh4eHtr+/H/aGpqjyYu+xh0qlkh0eHtqnn35q6/XbkzQBkgoYSqWStVot29/fD4dmUWCLNeK6+izos+vWP8rlcqV8Pl/OYuTe13aAYdeeZIvj+NDMKmYW8UDd3t7a5eWlnZ+f2/39fQAG3kJSYbher4MbAeqXMyJevXplL168CCfMrVarECHPgz4YDGw2m70TbMbP6XQaDq0pl8vhSO39/f3AXhwcHFij0bC9vT2r1+spF4daXqq8GYvS+Ur581IFry+zd33LWVQ9gp3/q9BXf7QCB1XCqvwUtCiw0euqu8LT1tzX7BGEoCS4rmc59Hsa3OfZF/WJM1bACHMDY4CSp//cM5/PW6vVCnS8BiQqEOAeWgRJ3QCsTdZc6DzRdK00DkXnhL2EYmXPZF2PpvvN7xO/Hsr2aBVVBV8eSHrglgUYFFR40OsZJmVNAO7j8diurq7syy+/tLOzM+v3+4F9bDabdnh4aM+fP7fDw0NrtVpWLpdD/BN91JoZyiKZvQVI+/v79vHHH4faDIAEDiYDkDUaDTs5OQlM6GKxCPMPePMuJQ8eZLxRkiTlXC5XKZfLkX3H8yR2gGHXnmSL47gZRVHBzIKE4SEdj8e23W6DYvf+YfWpRlGUOqkS6//o6Mi63W440AbrVMu8rtdra7fbdn19HUpEAzywRjl0hgp8VOWjjsN4PLbZbGatVsuWy6W12+1AM0M7I6yU5kXhaDS9CmIf4MjvCFoVuKowec8HqOn3NdZAlb4XdHovDxjMLPjCUZae9laFrwFgamX6okAeeDAm3SNqIWKJE7uifczlciHmxMyCouAe7C2AQaFQsL29PRsMBpl9QwHSJ7Ve1V9N3zU+B+ChlUKV6fFWuDJCqkh1fKr0vYLyzJJa8oyNl4IN9ozuCb6nB2nRR70nLQu46h7V++ix3TzHVGFcLpfW7/dtMBhYr9ezxWJhZmbHx8dWr9dtb2/Put2uPXv2LIAF3bf0W593niVcUmQ6vHz50r766iurVqs2Go3s9vY2AIabmxtbr9dWLpft2bNnNhqNrN/vh+DH7XYbGAfvJuRId8YKQE6SJDKzUpIktUKhkB38kdF2gGHXnmSLoqhiD/tfBYn6oDm5zxfJ0TK7cRyHh/Lu7s4KhUIo2ELamB6njCBvNpv27NkzK5fL1mg0bDqdhvxq7jWbzWw6ndrV1ZVNJpOUAlksFoG2BDysVqsQhKWFnwh4I6OC6yPUmQMfXOh91AoSaAqe1PetQWQq3NXiy1I03q+tgW785H2CPzXzBBcMAhngRZwA90B4oxB9SWAFPIBF/R9jZ05R/PzfgxpV6lrnQAPU2Bs69+ruwYpkfvnpFTX9VAXBPgEMcV1PY9MXwA9R+5o5oZkaNHWL6F5hbnTvwMqpK0CvoXtL94VeR+cI5exZLWWvdC/qPo3jODB7nNh5dXVl4/E4Bda3221Ih+10OiGmYG9vzzqdTsiI0rRWKjJicLAvAVnsvWq1ant7e9ZqtaxSqViSJKGQG+Wmp9OpJUlih4eHdnZ2ZpvNJrCPSZKEWBnuR+xSv9+3Xq9nBwcH1mq19FmNoyiqJUlS2Ww23/k8iR1g2LUn2aIoKplZ4gUS0cjD4dAWi0XIREBpmFmIYqdwEwFo6/U65FhXKpUANEhb866ARqMRTrlrt9vh+nyOA4EajUboj56KSZ8mk0kQ6NPpNNRwQJnWarUQiJXlmlBlr64Wtbr9Z9RyUyo5i3Xwvub3uS5YB7Uy1WXCteiD+rrVEkVwExxGfQHmV10tzCOAQdkD0iTVImbu1OdPfxVsqJuAcZlZqt4B/UF5qAuFeylI0cJg7EN1O2i/AIheUWpAH3On92EvL5dLS5IkFXy7XC7DoUfqAuFvdU3oWiiDwVxyBoICS7NH9sWzKYyNPaZAh/GynxVI6N7kRTCjmYWTZq+uruzrr7+2i4sLOzs7CydMVqvVUJr54ODA9vb2bH9/30qlUnjWq9Vqap9zDypZ6n5QwMDc0r9arWaVSsUKhYJNp9MwT6PRyK6urqzRaAT342azCSwIa8Ic6em6X3/9tR0fHwcjRYBckiRJLZfLVTabzY5h2LVd+1CLoqgURVFi9mgN5fN5Ozw8tKOjI7u5ubHr6+ugUBFGSfI2N5tCLmoBaoxDVkChWvbr9TpYp3H8tvKdKtX1eh2CHFutVigjTTqmvhBKm83byGoitDebTaDEURCqqL1AVqtfhZv6lX2BHb6vvu8sRkGVot6T+9IvBSPqV1Z3gr9Plp8axQytC4OTJEk4VMxbq/SLtVPwQlPGheZdMlzbF4QC1EEVExORy+WCotQDsjQegmvzUpZAQZz2x7MAyjowhyhW1vb+/u1Ba3Ech8wL3BcwOfSFawGW6a/ul/fFFChoYE9BreuZFh7c6t+8z3h1zDpHPKcK7mCeer2eXV5e2ps3b+yLL76wyWRi0+nUouhtnYmTkxM7Ojqyk5OTkAEBENBCXfQXNyAVGv26KLBGtrCGMBjlcjkAVDKkqPrYbreDq1SLy/HswFIxX1988UUoTf3y5cuwpx9kQq5YLJajKIp/7/d+L/r7v//7b41j2AGGXXuqrWgSv4DggmLEd6mKz8xC7rMKIbXcNRBNlRxKgQdZ6XEEiQ+uBJQ0m82UPxLrWX3Sel2EvY92R1nRV+8LVoGsvyN0OXAHn7xS2dqyrCkV/igdH+So86F+ZwUE3mXCHKjljfVGEa7pdGrj8dhubm4CeKImvyp0s7TVznrSH1XY3Id+Ke2tIEf3AP2k3yjjUqkUPqtR8gBMBST0TZUk99R9CmAhVsKzQcpiqPV9f38ffPX0T9eVdaNGAWcp6FzwGd9HXWv2G3tSAYMvWa171YNbmu5lfaZR0Pp8ASCvr6/tiy++CEWYBoOB5XI5q9fr1u127ejoyH7wgx9Yt9u1drudAgAKmjWQl2eFAk0ARQ+KkQkaHwLTWK1Ww/VYD1ySZEuVSiXbbt9mVXFMN3MCILi5ubF+vx9OPqXFcWylUimqVCpJuVwu5nK5WNf5Q20HGHbtqbbEzIIzXv2tWvxErW4zC4WbfCoaDxz+X1UOKBNPw6uAU0HH/ZSuxIpBkOpBVAgsqGSzxxMRoTg1iEzHo5Ya86DgAUGLG4aS2N6i84GFXthzbW9xaR+8QvZMBd/h/whilI63RlkHUlPv7+/DYV4IUO8CYb59jIMqKprvF0pXff+qSP3vni3A6s76PPtR3Rz8riCL6/K+zola+6wT5xCYPbpqSNeDiaGfXAMrulQqhf2mIIC+qgvB73sPvHTv69xr3QofY6P7wV+fz+r8AFCur6/t+vraLi4u7PT01K6vr225XFqlUgmxRYeHh4Fd4DRR9q5WrvTPjnelqbuLsXhQxV4pFou2t7dntVottb9gy4hRKJVKIWZC3UNmlmKnGL9WpaWfD4AvKRaLpSRJEq0s+qG2Awy79lRbtN1uwwmVCBuUjIIFBRNaJEkFBEJLFaenuVFGWHV6bZoKPXyhABJqN5hZSqkAIPCNbzabQJVS6En92F5A+8C5MEFiHcKmYFlCN2spYSx7wIKn5BGiNP+3txqz5sS7IbiXB2CqeBC4/M9T1/RD/f4KetQf/77++nGydgQz6ppyX6/gvW8/iqKU60L7rErCz5POrTJWqqC5NuumMSLKRgBEdKze/aQAj3tpX7LYBx9AqnOof5ulD7RSl5hnVzww5UUfiPEZDod2eXlpvV4vxAB0u11rNpvW7Xbt+PjY9vf3rd1uh6Bhxq8sno9P4b56v/V6HeIk9Fh1XRvcGfl8PsREqMWvQDyOYyuXy6FfrB+sH24Ks7dGQ7fbtcPDw1AlUtmwQqEQFQqFQhzHkZYp/1DbAYZde5ItUslkj0INn/f9/eORvryUblblqta0Cke1pFRhcC0EjwpZFT5EWXvhqlaxmQUXBVafWlkE7nlL7H3WLp9BCDM39FmBg87d+2IKVIjz088LfdJXFsBQoe3Bg14LK1ktOgAAbgnN/KBfChhUSXkFqN+jP/RV++aDQ/28qtWJ4kDYs+ZqkercqPWsrJGuBePKYrFQVozRF/fyAYsKAGn6fV1bD9b4rAIeBSHuUUxdz+8BZb28Ja9sj84BfSFNWTMK9vf3g6Le39+3/f19a7VaVq1WA6vgXWyeJfDPjtaLIA5BzxTJAnMocYKVNVuGvco9KpVKYCKI94BxgJEwe3u2xQ9/+EN7/vx5SO92xkhcLBYLSZJEO4Zh13btA2273UZm6WOA1+t3i6V4BYiQxLqlLgLWhAoPBBeNB9XsMYoc4ZJFz2uAlD7s/loIUawEVYLeEuQaKmCzAIMqSV8gSJsfK8pWAYTM+Tv94v4ehKly0f9prIIqDgULWFkKGhCmKAv9n2ZGeBr7Q8Gc2k9VIsxvFmPDT8ALMSmATrJpfNyCDwbFTZXFOOn3PKBSIKvWMGBF2Rq+rxb1/f19iHVAESqY5pnxYEb3j/ZDAQrz4psCB+273sODU2VTlI3abDah3kWr1QouRsqua3YTffb30HvpWJgr3DQqI/jdLB2Uyn0wDHA3wAp6ZoZMrm63a41Gw968eWPL5TIcTqfPQrlctlevXtnJyYk1m83U3D3cJ6pUKoW7u7sYt9S3tR1g2LUn3bzVDWBYrVYhPsH75f2RwNPpNHWYlNbE19gBs8dIdbNHgeKt0SzB5y1c7zfl2j5X3dPGqvBUefCezwDgXnryIjn6XqB5Khhhy3t+XJ5lUADxvqaprcq0eMWAMl4ulyEjBfpWK+0xZtxEWWvwoaYKUZkRDxYYn2c76N/7xq7ggHEqFa7zp9/NsoCZH1XujG+5XKYCLj3IUJYhjuPgAtPaEwpsdDw+voW+ePYDAOEBpAIKBah+D/r9rOvCvqZQEtlDZDTo4VxmljrGXfeB3sO7Q1RG6L56H4PIuit43m63AcQwBs+8kS1Rr9dD3BL7QrOhqBzaaDRSmUG4NWq1WlytVour1Srh/W9rO8Cwa0+6eQtYC/2YWThpkpQzrEF+rlarABgQAKRdIoRonjLl4VXhqDSlt2RUeSn97GMqeF+/oxa4ulAQkAhx+qlWHdQ49fOZC5SDVuBTAajWjvYp63/cJ4uVUEWhbIj6qPWz+I2pxX9//7YCp7oYfLaFzg2/88qKjPdAU/uf9dL5N7OwdygBTqwKZ5Eoi6IxFFnxD/ytQEWDDlEgSqfrtQDKk8kksGX+eGm+T99gF5Qu9y2LhVFF77/ngY0HAZ4py7L43wewzR4DlpXBY865r4IEHxuhfQRcKKBS1o419sBHWT518cVxHCpM3t/fh0wJBWoAEQ6tqlargRlarVYB+BSLxbB+1Ptg7ln7h0yOqFQq5aMoiqgl8W1tBxh2bdfsXWsewYFvkNoGPLRK48Iu+PRDYge88vb3VAHqLTtvlej3VLFDoyo1rX56r+B8XAKMAAJKKWszCwWjuKamV/pAQi8gmQO1tpTh8EDKAyZVGlpl08+vxpiQUkl0OUGjqmh1rZV5UbDgXUaeMdE58el76o7SsdBH4gZYA5S7zqMPbOT+3NPHt+g4uBd7IwtoqHuB+YJJ0uOSub6mhapy9ff1wEZdNupOULDDfbQmhPZbW9Ye0fnx8+0ZEJp3i2UxB7pfsvZOFoOi19R+8T3mgTm9ubkJJaiXy6VVq1WbTqeh4qzGXuTzeWs0Glar1Wy73QaminRvQNFyubTT01N79uyZxXEcKj0K6IlyuVyy2WyiXVrlru3a92wgb63g6OsZAAqwZLHWsebIv1ZBq4JLLRkACL+/T0h5CtRbZXofDxRUcahVwzXUwjFLnwGgv2tq2Hb7WCMC5edjMLKsMhX+PnDRx1qYWWoc9BWBqCV3taYFgs8DBrP0WRp8ToU919B7esWtglUtaBS+zqUHDPxPQZRXaLqv/Hx9iHnR63oqnXvpHlFLk3kAwOjR3H6/qN9d14pr6Lxxfx07/dTYED8nPCPEc2RVklTmh/spw6J7UMt3ezZAAaG+PKjVpgYDz7+mUGdlkfi5om8wmsPh0M7Ozuzs7Mym02kq64HS0LAPuVzOWq2W1et1i+M4nH9xc3OTymAaj8f27//+79Zut61QKFi73X6HEbG3qeWR7tUPtR1g2LWn2lImC0Ks1WpZu922fr8fArqwTAAE5DUjBKhPgLDA+lJrSwW8mb1jmSjFz3c01SlL2WtTxe192XpvtbTM0iV81fLUplY3176/vw/siyosHZu3DvWn0rIeDOkYEG7MP4VrUMxah4J2d3cXKvZp9grjxepGORPM52MuFOBlWfFeMWusgV9v/ub+gErml76VSqVUfIb3YatS5Luers+aU/Wn635k/XWNSdNdLBbhGgqwNE7Br3sWI6BsS9b+JeCPcWtmEEDGzzUg0Vv83J/PqxJXFiLL/eBZD79vdT+aWQjw9c8XBoWCbu0jwCxJElssFjYajeybb76x8/Nzu7q6Cu4D9uR4PA5nW2w2GyuXy9ZqtUJ9iNlsFlgIStnHcWyz2cxev35tH330kb148SKMGxC2Xq+jzWYTbx8CwL9L2wGGXXuqbWsCGhCe7Xbb9vb2rFwu2/X1td3c3KSEHT5CzXaoVCpWq9WCMJ5MJjaZTOzm5iYwE6r81YLJUv7eKlFBl0Vz+/Q/HxOhFir3875kDyz89/kdP7bS6IAPHZcqaf3p6WC1rnWeNYtB+0YVvWKxGIQqgV+Ah/l8bsPhMGWp+RgLpeT93OkaeIuYa2m8gwJD2AZdIwU/jIHSwXEcB0s+iiKr1+vhHANdtyzWQq+vbh0UnxbsUhDHdb0FrOvL3mV9tZppFqiiL1l7SwGsggtcX7qmnsGjLgVKWq+p+1n3CPfRdVIApfvZ7z+dB89wKdvhATjroIGTWW6K29vboOALhYLNZjPr9Xr25ZdfWr/ft/l8HmQKLgjYAtK9kyQJZ1xUq9UQp8Oe0bnHxaTxFO7ZTnaAYdd27dvbO6H4SZJYo9GwZrNp5XI5JbCwVPSgHAQHAo/go6urKxsOh+FcB+8y8FYMAl+FmQo+VbJm79Ys8FZolmBQHy3XZVx8xgs37YdXWAhPVVDepaLWmAc9Kqi9H14VNNSvt+L0bAuqNiKMR6ORTSaTcICSCnTtn6fEzR7rBagC0j7yXRQKVjBUvl9XzThQhQLDACPF99hLWNueickKolWGQulw72pSUOH3Iv3TYEyCBCld7YtO6T7y66tAUoGKzjHXIuaHMfBMqStQQZPeR++h+0zHrYBBAaKO3T8nyqYp0+Sb7nvv5mAelclYrVY2Go1sPp8HdqDX69n5+XmoRsq6Uehpu30sZ60xOdVq1Vqtlo3H43A/HRf73rNcvBdFUbTdbncMw67t2ndoGzPbesXQaDSs3W5brVazKIpCIR1V6Ph4zR6LtPDeYrGw09NTe/78ub18+TI82FjD+gCrstZrqDIyS9OZ78ugeF8QmFqUZu+mWSJMVRhmWfbemlQW4X3Clz4pENH7ez+2NvVnZwVkRVEUBCtH+QLWrq6ugjVm9hhc5tkWn56YxRzQFwV9fo5V0Wr/PEDh/6rUfCqngjr2gQZT0vT+MADqOjNLx2ww91r23LugAGdkQGCVZu3BLDebgkHtB9f2YAugtFqtUm4JnRs9l0Hnz+8bdWMpwPCASd1LWUDRsyU6Lg+yzR6ff612amahJDlZJ9z37u7OxuNxKEU9nU7DeQ8Udoqix3NHWIP5fG6j0cgGg0E4KbNardrR0ZFdXV2lYj4AXHoqp46HuX0AY3EcxzvAsGu79i1tYy6OIY7j8DCSl4xQU9/9crm029vbAAJIQ8Pfend3Z5eXl/b69WtLksROTk5CeVlV5DRVnmqN6Puq0NQ68xatKqcs9oFx+vd9Pzwr4WlmZUz8NTyLoNaf/5ynxPmcBtVluTx4Hys0it76tcfjcTjuW/PSVUmq0tN7e9dC2CibdJQ8/fcACteCWqR6Te6D5VgsFsNR6OpO0WJORMVz3SyABtuigbm6v3TdWV+ur2sE8NFaI3zPAya/5n5OFEh4N4CuIfNBTIkCWRgZrWCqwDgrI0X333a7DS4p3Y++P1luC8+c0fifxnmQpUBdCmQENV30JMvNZhPWt1gshhgGDkNjbRSsm1k4Pff09NRKpZI9e/bMarWavXjxws7Pz20wGASGgX1PaXL6OZ/PrVQqheemUChEuVwu3m63sQfs72s7wLBrT7Jtt9uNWTrdCQsMi06tfR5gLElV3FhkKJNCoWCTycS++eaboNja7XbK767UJ/dRepvveaGlVSY1gMxbqVngRD+b5Qv2FL0HH14Ye7rXK1/6rwpYlQs//RhQWkqxsz7KAhAxrq4i1sLT8p4dUDfB+yx3ZRD4rCpBs0c3AJ9Tdkiv48FOHMfWaDSs0+lYq9UKRZOur69TwZq6P1Xx61roUcs6t2pVaxaIKkT6pemSvkCXBiTSD72231tcj/9nzZsqw/V6HdgZLHbtE6CB/rFn/TzonPN/mAnPevDceZDNPOqzB0BgbclKQNlPp9Nw9DwxA1rQTYMkc7lcqsYFjI7uS9IsAbukdA+HQ3vz5o21223rdrtWr9ftxYsX9uWXXwY3B88Er+VyGTIwTk9P7fDwMARtF4vFqFgsJnEcx7uzJHZt1z7Qoihab7fbrQpkrDWEo2YGqODV/0FHIgAQ3tPp1L7++mubzWYWx7E9e/bM6vW6lUqlVGEeBCffV8DAZ3xVwyz62lvHKlQZm/701LrOA5/zyhMQo8rPf16FNv9XxWSWDtxTBkPH5ZkNBU18BmCg1qZac569UHDgx6Z98+PzY1eAoPfJYn9UmWkNj3w+b81m0w4PD63ZbAbFMRgMgrLVdEAP9rQvykDoWJSRygJ2WcwB/Vgul8Gq99kfusc8ze8Bq2cc6LP/PoAb9kXXBYsY1oix+ec2ay39WNWvr4Bd50f3Ac+jAgFiZCaTiQ2Hw3B0up4ZQeEwYg7ivtHXfwAAIABJREFUB9cZbgL2C/9vt9tBtsBg6mm12+3WxuOxXV5e2snJid3fvz159eTkxDqdjn3xxRfh/goY7u/vrdfrhSBJUpKlUFhsZrvDp3Zt1z7Utg/t4fcgbPVh9opdBTCChP8jULEIVquVnZ+f23g8tiRJbLlchnKum80mKAEN+ENgaEoYfVPfbpZLwStbZQ7exzaoYud+WUGK/h56XbWU6F+W9affU+Wi8QQeaPAZz37QP+7JfJJdwfXMsgEYTIVa+zpeTRv0bI2PglcFo8ArCxxx3SR5e+Rws9m0drtt1WrVhsOh3d3d2Ww2C4GGpVIpuDkYi+5XnRd9Pwtk6PseaCrAgUFDkWlg6/v2GXsgC7DoHOh1dI+yD5TJ0b2ge0dffF4DLPUZZZ6y3ET+WfOgmf0FlT+ZTGw2m9l4PLZ+vx9cX8QoaDwOsRfUc8lyn+E20GwHXBvT6dRms1lqLmFhJpOJzedzW6/XVqvVgkyBuVDAzJgHg0HYdycnJ8FweWDHos2ucNOu7dq3NxWanjL1KVGqwJRCvb29TdGXAIabm5sQ2ZzL5WyxWNje3p7V6/VAsVKxECWkSl4j0pVqViXhWQWN7DZLp4N5IUzzvmg/J95S17lT0KBBml5ZquLPoo81GNRbwcqMeLYCilrpZSxB2IbZbBb+75kK+v0+dsSDRO6vp5j6fvrgRJ0nXWvqdvi9R0XKSqWSUmJ+XfXeCty0j2p1qzuHv3UP0Ch1jjtCq34q6MraMx6g+L8V/GnqrH7GgxBdJx2//uReeq2slEgFJx5UwNL4OIPr62sbDofW7/dtMBiEoFp12VQqlVB5Ebof1oQy8969lMvlbG9vL4DGer0eSplTqOns7CwVDIkRw3WjKLJqtRoqPMLQEKfAi/UsFAo2n89TjOjD3O2CHndt176lRWaPwWqaypZFo6oVQ/U1hCuWi9m7Odu3t7d2eXkZgpZA90R+8yKtTA/E8Raup6LNLMVyaM14n6qoSkX7qe9hDall6Cl8PusBRGpi5T3PSqB8vKXpGQTWRpVR1mf4HOCACHQUA37d9XqdStXzzItfb+0/7E8Wc5IFbPSnzhdAkbUlQp6TBCuVirXb7VQmgzI2ejqpt5x1jgEMzIuPQaB/3rKPoij43u/u7lInj6qlrPfQNE8fn+DBpwKg961l1v70cUQeKHA9ZYc8m6XsgmeMfNos5d5ns5ldXl5av9+3s7Mz6/f7wcKHHWi1WtbpdOzZs2cBNOBKwpXhz90AoAAYGo1GAAykYq5WK/uXf/mXAA4U5Nzc3IR9zemWuC0UcNEHXtvtNiXHHuZhs9lstlnGRFbbAYZde6otNrMQY6DCRpkChBo5/1CV8/k8RB+bpXPLlV7fbrfh4UahYRFwD7IyEEJExutJmarYvB89yy2hgCFLuatQ/ZDiRJiqC0YVh86dv6fex/dfFSsKje9zH8Zn9hidngXiCDajuA3W13a7DZYg1/DuGj9H/qWfU0UNxcsYaN6nz7yxh8weKwSOx2O7uLiwZ8+eBWvx4OAgVWxHFbbOaZaLxuzdUyNZL/28t7T5Xhy/LTOMRU/2BspHlTvznwWUFdjybPCeKmY+4wGGzj3f8yyDjsfvOT1Qzc+b7nsNmOUzGAGTycRGo5FdXl7aYDCwwWAQ6iTgTup0OnZ0dGRHR0d2eHho9XrdqtVquK4qd44Op396HkSlUgkyQJ+t8/NzGw6H4b7s29VqFYJkK5VKKHiVZSDc3t5asVi0drttR0dHKdljD8XrHpp9l7YDDLv2ZNtms9n2ej0rlUqWz+etXC4HQYW7wOwx5x8kb5Y+ddDsMdpZFYVahSguAqewCOI4DsJib28vRdfCGqA4vCJAAGdFwHuWQelWVZq0LMtNr+cD0VCK/I/rfxu76elzrs+5FMydjyHx7Ad+4lwuZ6vVKlDHGkVv9ggSuIaCAF5qwXpGg3sxZ1pI6GEPhf2g4/LWnlrz7AdNu4uit1UeO52O9fv91CmDjIP++uqanoViXxKAt1qt3gFcyjbpuhCklyRJiGfwgaQ6t+v1OpUhxP+ZB31WvFLyIEHnjP95QEJTwOiVPu/rd7JAD2CVvUVa6/X1dQhoXK1WlsvlrN1uW7PZDO6kVqtle3t71ul0rNPppJhDz1aUSqUAALHy4zhOncdC4/rlctmePXtmV1dXdn19baPRKAX0ACAU1+KkSn0+Wf/nz5/bZ599Zr/+679ue3t7IVsLuUafvkvbAYZde5ItiqKb9Xqd6/f723q9HkELIxgpVWv2VvgWi8VgDSAQUOBKP8ZxbLVaLQStaZwBVgLKAt9ksVgMlgnfJRc+SZKQ2w2d7t0C72MF+F0P3VFq82EezMzeUZbeyssCDF65eveFzHWKAjd7tIRhUmBz1AWg7ArXpqwygC6OY5vP58ESNLMwZ1EUBVeTWrfe+qVfSunr3Gh8iVrpzIuurTIRfvwoV4S9By7VatXa7baNRqPQN40boGkchY5BwQBVR/VETN7z66YWPABY6W/KblP9VGNruK93YylY0P7pGtMHBQrKYGU8s+/sc54JBQxRFIXYlqz0VM8q8UzijiFN8vb21kqlktVqNXv+/HlQzDACHDGNIaFAnXER3AhzpvdHtvBZ4mwISOx0OnZ8fGwXFxehmiN7DhCnMS/ELjB/AM5Op2OfffaZ/eZv/qbV6/XgriK1Utmvb2s7wLBrT7Kt1+vedruNxuNxOY7jRPO/cQ1wfCwxDvl8PhzuoqWJNSixXC7bwcFBSGHCUsN9MRwOwzkHs9ksCDczC7ndhUIhxVbge+dnFlDg/v5/KsA9I6A/swS0+kF9loFe098zCzBwPRQI49Locr2vXkeBBsqP9bi/vw/56ZeXl0Hh8z3NYzdLHwetGRQaya5shgpgZSiYBxQO1/JKTa3g7fYxrkX3GdZduVy2RqORKunMfLBH6KOCML/+3EfZCc3s0DUE4DBOFDfrTc0B3GTqzlG3GM+Ppg1qwKjuNd0Xuje8/133lgdi/B+F7I/hjqIo1DdgXXQvsr9Ye2IHWJt8Pm/1ej0AhHq9HopsafBqliuA/aLjVjel7vf/n7036ZElu84Ej5l7+OwePoSHR8R7mcmXqSYltYBCV3W3IBS6G1ALIheEJBASoY02+llaCtBOG6kXRaklZLIlFqEWWGpwaDGVw5ti9tHM3WY3s1rE+258fp75GzLJQgFpBwhEhA9m165dO+c73xmuvn5el+122+Q58Lzj8/gfFRn1et0wkizIjTk6OtoBr5VKRRqNhnVwcGCBTX2dlIChlK+kJEnyf+V5/qu+7/9v7XZ7lKZpRUTMA4gY5XK5FN/3DeMA1gHGAEmKLx4+GQ6H8v7775vGKjD+KM96/vy5iNyBA3hW7CnCA+VSLYQweIdDCHtbIi9v9LTv88wKcKwYv1nRQ8Hg+/uAgj7PPooeonMKdIyZEyN5XBxe8X1fZrOZ6XbXarUMyOG+/Jx3wNfDRgpeKitl/NaeM18/AyG+xmq1+hJFjfuM0sper2dCX4iNAwxhPLz7KTxVeLRsuBkQ8hjgiTNjw/df30M2duhYiCRIGFTNtmB87Onr0BcbVS38LGgQhHvNwEEDFwB3NrgisrPHB98/BkYoRwSwQFlrpVIxQAFgAV48g6Ei5oDXmL5Ofl6ZkcD9Q3izXq+bkkueRw04Dg4ODGDQXTO5aidN053Qw4v3rYODA4uTV18lJWAo5Sspvu//hYh8LU3TUZqmv5VlmQEMjUZDjo+P5Z133jG11qD9bPu+myCUNioe6vW6TCYTefTokemoBsAQBIHpmQ+KG0oKfeHhvYiIUdCci8Ad6DgsgM9xHTZ7OayI2evZZxxZGcPIas+wiJVgw8DgQxsjbTC4ayUbM1wvh1/YU0UTHTTP8TzPJBSyx8+GRecTYP4QxmFqmZkHULjMXPD/bHy48RLyM9iw4Z4ibAUj2+125fj42GzfjSoEDZrYG2WjoENCHNvXOQ9Mn7NHinXBrapBz+uKgnq9bpgHlBczu1Rk5Jg5KWKheAz8w6CB1wy+y0aY1y7uIRtYHZ7jChjkM1nW/bb1KF3EPWewgd8Ie/E1MWAoAsSamWAAijJI3piL83r03EAHYcM7rJ1arWYqiFarlWGw+LkvAjb7pAQMpXwlZb1ePxWRVZqmj7fb7W9mWZbLi5Lkdrstp6en8rWvfU0+/fRT8TzPlLuhVA/GKcsyk4NQq9UMYBiNRsa75418UAaFhDEkRXW7XdPEB8qniOKGcoJB5QQ4ppVhWDjUwt49KyzNIrAnz8p3n/FnBkGzDgwQ9PlgvKAIdegE14njwLhj3tfrtckkR8weJWgYL8d6eZwcZsB94nksYk64qoDnCefTezAw2AFYQE4F70oJw97v9w0zBQPAY+DNidjj5pwG7aXDwGP++W/cX8wnA440TXd6iaDyBKwaYud5npvsfm6khd8MTrWHz2tGrw29hjA2Dv8AHOIz/JuBIa9/zQ7wXCHsh2cKjKJmL3CPNesGYaCkf/Nn+Zq0QK+A7QCzxE4Bjoe8nkajIbe3t6byCusNFUTz+dzkUwD4xHGcbbfbnDdOe5WUgKGUr6RUq9VcRJIkSdwkSXIoIQ4tnJycSKPRMLvAVSp3HRsdxzHJiXmeS7PZNP+jz3u73RbLsnbi1ewRiMhOoiTipKCw2aNmRZwkiaEgYQw4+YxLH1lRspHc55GxhyPy6jbSrGzZ8GtaloUBCF8fjK32YDmcgDnh691sNqabJhttVuSYC65uwVj5mJgTDazY4DJYwPUnSWIqC3jzHxhWZK/Dc+XyWWTDAwQ1m03pdrsmmQ5Jr3wfOEnzxTo288MUOTMxWBfawAEA8P3CPQSThmoB9LbAtaF/SJZlJhkSLJdmtPicWCvaiBeBNG1IAZh5Teuwh17zRdetmQ8GtRze4NJqfFcDDcyJDpvp54eFnwFmqRiwAsgBVIqIScxEBQ2+B4el2WyayggAQHZasIMrOQh5GIZZkiQlYCillFeJZVl5nudpFEWrOI4zvdkOQABnyGdZZsqu0GwFAKPdbu8YBihpHBdeZK1Wk+FwaLwkeMQwGDCGrJhEdlshQzkjnsq0NceqRV5upqMVK4wGDA5ntEPYO6L5e2lOWYmK7JayaRBRFBLBa9xDH785bIDkLs/zZDabmTa6fK+4OkTkPtlRMzC4Zq30+XuaeeAETOSn4D5zJj0qa0ArA0C0Wi05PDw0pXgM0ng96aZcoKPZCDMdzlUBfE94HbKB5hJRzD1KMDFXjuPs7KbI95PXdK1W21k/PIe81vie63WGsejv82d1iI3zRrQ3r4GyBoQc3+e1yvPCQJQbu/HYebycw6KfIc3IaWaFr4NDOHgfidOoWsF5sK54h10Ot+ncHB5THMc5ly+/TkrAUMpXUtI0zfI83wZB4IRhmCJDmpPJNBWK5ku3t7fS7/dlMBgYgECbuZgHlA0SK4hGoyH9fl8ePnxoYsXs6UJR6RgrU71aUWovrchz5mOwVwOlAk+VFS6zEhCt9PVx2YvTAEELrhXXjZg/x2H130i+Q6fE9XptYugw5nwtzOrgunBuzD1vD83XxcZO0+JJkphtjWFokV2PKhmAQHiLaCM8GAyk0+kY1krkPuQAUIG+HTDI3BOB51mXQorsVkaIyE4Lbc7T4Aofvhc4HpJ14YEWrQWduKfvvRZ8psiI8XVowKHf22egNXgqAiB63LxO2EgXAWg9DzwWfS4G6TxGXod67HgONPhGLhS6RjKoRQiLdQPe43wcnZ/04nWrKCxSJCVgKOUrKev1OhORNAiCRRzHCai8er1u2AFOMEIFQxAEpknQ8fGxeY8BhvaetSIWEROzZhq4yPvlmC1ncmtAIiI7SkREXlKEOBcbwCJPhmlVjEEnovF3RHbj1drQ8niKkt7wPZH7trkcO+aeC5zf4XmezOdzcRzH9DZgxoXPpb1TToDk3AC+Np4LfV8RHuKOjEhi7HQ6cnh4uBN/rlQqJnkOpXLYL2Kz2ewkYSLRDsYB1417yEqfQ1A8x7pnB98LDYox75zUx0YXgIjXFocDijxpDbg5F4X/52NyiKwI3GK987opChFwKKLIiPMYORFTjxnPC7MmPP9v8sPXqJ8xvm/8rHEIDJ8HSxSGodEDGswyE4bzYc1w6Izvu7UP1e2REjCU8pWULMvyLMvSIAhmYRiG8BS5myPHQfmHY4m2bZu4IWh9xOP5gdVeUZ7nJsEKDzCOz16TyC6tzPHJPM9NGKXoHBoUsHFnOpS9IP6OVthF3iWOh/+1Z8jn1cYDn9HKm2lu3djJtm3TGwCtthES4PGKyEusgg7VsBFiMIJzcQ9+HaPmBEewRr1ez4SqEJLAeqpUKtLpdKTb7Uq/3zeVELinyE0REZPPguRaBlFcBcMJeFhnOuaOay0y4pqd4DXA18qlvrwuGMTy35qh04CCARmvLz1ObVx5ffM9RRkijsXPiV632ohrEFvEevB5scbx2aLj6WeRhQENrys+Lu43QCmHoph1LMr/2Jd4i10wmXURucvlevFZS+5aRb9SSsBQyldSbNvO0zTNoiia+76/8Twv32w2VrfbNcqLexvAY4EHeHBwYBQVjLlt2xIEgQRBYBS49uZwLHzesqydsjv2BFnhwmME7cjhCeRIsLCSZdCgFZtWgBBmJzSw0EyCpjO1gSjyuvgai34w/5wEifOjl/5msxHf919KtNNzp9kFPg/GyHOKc+IzSFyFssVaADBExcB4PN7JTUCIAjkMAAxYP3mem5g07iXi0diMyHVd8x56TAA0YQwwFFxCqRPvuDqCrxeAgRkDfb/BMmDrbcwh5+FoI13UG0KvERyfDZheExpU8D3Dd9EhMYoic01IDNT3WoMovd5xbAa3+wBLkXOun92i54HDiTD6PF9wJNA6PAxDs5Y4X4nXK94DgGLHA/tj6NbplmVZtm3ntm3nlmW9URJDCRhK+UrKi02j8iRJli9AQ7bZbGwoUI6XVyqVnXjyaDQy+07Ytm0qG9I0lSAIZLlc7iQx6hpypjnhsTGwYIaAfxjAsOHGa9rIa+oUx2ClVnQsSBGrwFSqpkD3KX0t+zxKnpvtdruzlwcky+63DUbCKAMBBkYwfjxnfN16HtDoias9+HjsScNAAhB0Oh0ZDAbS6/UMu2BZlimjBdvA3ToRCvE8z6wfGFskPiKRjRP3MIcwijoWXqvVXvLEOalT33cOg/FnsIZAZ/NGbZZlGe8XXRJ5zwkReQl4aKONdcSUv15HfM84ZIFxwkDy8TiMp5+hInaNz8PjLBpLEUDWz03R2sc5+ftYW9A1uEaUi6IUEr0VithPBpkAc5gTMA1BEMhmszFbZdM9zvM8z3ldvU5KwFDKV1L+9E//NG+323mSJG4URdfr9Xq7Xq+rvLMh6pvr9brZ/6FWq8nJyYlpsoTKCDyMyHHAvhPsFWjvSFPi2puCQtDlj0UK6lUeGrMM+nUIPFLNBGiWgZmWIuXLHhxL0bXxdzEGGGPQstrQiciOMsTrrHyZCRHZBVgYAx8Tn2fWQHu/uBc8xiRJjGHv9XrS7/dNO2GEN5CPgBALV6QAfCDsUK/XzXlQetntds1cAtCwwefkPhgcrBntvWvghdfZyLIxw7GRnb9erw3LValUDHBDeA7GiPtHaICKv5le12PUa1CzFLhufIbXAwA/XytXQ2gAodeoPj+Pg9cOgyD97BWNWecJ4TVO6uVQYBAEcnV1Jefn57JarYwu4hAn7hWck1arZe4nhzd93xfLsmS1Whm27MU4EIZ4sxIJKQFDKV9h2W63eZIkQRzHz33fD33fb+CBErkrV0I1xGazEc/zpNvtynA4FJH7Bx7gAMrLdV1DM7PxYaPGCgWGj70GDRq0AirynIq+j+8wy8BxaPa08X+RQS0CBRgXswX8W4OSfSyGzmngMkAuE8V5WRniPjBo4GNpKpnHXhSLZqOj55RbCOOe1Wo16Xa7JhSBMkqAPPRdQH4CDCUMLLbmBhUNWh3Hxn4mWFsYG8bLjAfmAMBEXz9EA0q+bp4/ZnsADtAbomg+cJ/APvEa1OuG1ynfLy1F4FevQwZOzBByKEuzG6+SItCiv6uBdNHr+L8IfIvcdwLFvcX9BDj7/PPP5fz8XFzXNVU2GBuHFuDcoESX51hEDABHci2N9a3AgkgJGEr5CsuLBy+O4/hZEASbIAgO4zi28LBVq1WzY9yTJ0+MB3VwcGB28YPHWKvVTLnTer02zZ5YUXFSHycfsbdYRIGysXuV4telZNrT1IacY6giu0qG46OsdLkkjxUrh1XYU2KFCboV4+BEPZH7TH1Wtuz54picgKoNFeYJ4y8CDHz92vu1rPvmPJhL/M8dO/P8Ljmy0+mYrY57vZ4pb8O1ITzAPTQ4fLXZbEw578HBgdl8DGNpNBom6Q0Gmw0gxuR5nliWJWEYGoBSBDoxx5gHzraH8cE9Z7YN95vLNTH32lsv8sqLgCHuuWaEcJ80pa9DL3r9M2AsAriv0wX6uPp8+m8GDPueS82k8HyK3IfYACA9z5PVaiWLxUIeP35semBw2CJNU7MWcM+wfhiUANjpREm+Vtu2s0qlUjIMpZTyOnmhTLfb7fY8CILFer2e+L5fjePYwkOITajOz88lCAKjeDl+PB6PReROSW23W3FdV8Iw3DHS/ACz4eaxsFFj70mPGaI9NJ1MxcfUTILugEfzYf5mI4Hr45JF/qwevx4zdwjUyYxMx8KgQUHiunB+vj4k3MHo4bOaLtbGSAMZVvi4Jm7Bi/uMe4rvYPOoXq9nGAaEUXAPMXdgAqDwEYpA9z3MDUIcmGeeNzboOC4YCWx/zLk2On+DDRnnTDBTw+Wb8EzZi+ZdWjEe/M8Ng3C8fd465lAzDxpk63Wkn5kiQM7n5ntaBA4ZcBS9rsfPYcIipgPAFefBGsVeMgCMcDLSNDUgwfd9cRxHHMcxu9riHiCXBesRzBTntvCzyfcNFTZgvni927adWZaVlzkMpZTyGkmSJBeRNEmSS9/3L1er1Qe+71fhpVUqFdOVT8eOUaYURZGMx+OdpjrI3o/jeCdRSVOjRd5QUTgBn2GBd6hBAwt70/w9kXvAwI2aRIo3DMLYtCJiYAIAxAqTx8FKCx4wFGeRkQWQ0OfRY4WHzQafx8vXvW9O9bgxt/DgYOAZBHY6HVNC2el0TM8Fppn5fHmei+d5ZswADNg6GomOuE4ABKaduYEVxo4xNZvNnWRMlPlqMFQEmDispPfv4H0UkN+B3B3MO+aKyyp1voy+D5rd4fWqWTP+nv7hsFgR2OB7wOsXa4+fTb0+eA2xd85JsSxYpzDiIrKz8RMqHjh3IY5jcV1XZrOZKaNF1QknRjObUQQY9A+P/+DgwDQL4/wS664yIuP5ep2UgKGUr7rkaZreBkHw2HXd/7BerxtBEFSQYNRut6Xf75tyRhgormt2XdcAhu12ayhFx3GMAYEHJnKf8Q0lhb/hQXNOg8iupwZFi791/bw+1j4joXMjNKWsPTRmGTgeX+Q5skcHA4S9E5D5z4BBJ6Xx33l+31iJPW5u38s/zEZo5oQNJF8vhzUgHA/n3huWZZncgtFoJIPBQA4PD00eC64FhhRjyrLMgEisIVb6lUrFGF7saspzzZ4/h36wpvr9vnieZ+Y/iiLzHR3i0SEarnbhcBL/D8OXpqkBfxgPKHJOuCzKuSlas7z2+LNFxpjDaRowMKuh1zGAEO+/gjHimEzba/aJrwXXweWsDG64HwU6gQIQYOdbSLVaNdUn8/l8Z6M0TpTGsXE9CF0EQWDux6tAQ7PZlOFwKOPx2Kwr+kxeMgyllPKG8sKDXYZh+Innecv1en0YBEElSRKp1+umzS8oWHhxkCy7218CyiaKIvE8T25ubuT6+lps25Z+v7+TLY4YMgwKKzxWlEUePXtB2oPTCV48RgYarFy1othHxRZ9hqWIKkaiVr1eN82KsOcGKzmMhY0YAxvsEYFj8ra/jUbDKE7QtZpdKDJSbASKGuFwzJnjwDg/QlWj0Uh6vd4OYMC94pwH/O95nnkNFQY4L1gMTmJDeILzIvSGU5ZlGZBRqVRMmCZN050yTg7lcLhJU+o8X5gf7KESRdFL7A8DEw3UeL3xXBeBA17HbNgZKPMa5pwbBil8XIBLzCXmg0OCOrGTE5/5GRSRnTCVSiA0TBR6a3ieJ67rGgcC7AE7BWCbfN8348Qa4/4fvKaxkZTv+wYYcm4Kz0Ge37UCR/dRde25ZVmZlFUSpZTyZvIXf/EX+Z/8yZ94SZL8PAzDK9/3z8IwrMVxLK1WyyS1IYaIBxwU8sHBgVGiABTYb+Ly8tKENZrNplGErICKErmYIta159rz2xeOEJGXjOarDH8R3a/pZLy+L/mMBWABzEK/35dWq7XDLrAx0WNgg8JeJKhc9DfodDo7mz/p8bBHXRQq4ZwI/M/eJh+jUqmYvIXhcChHR0dyeHhorpE7d3Jzpyy7ryjg7bc1+OR+AmAxUGPPoEHnMWAuMa/L5VI2m41ZA9rgca4C5pXzX7T3DjYEgAFGCIwPsz5Mx+t7qRkvvU6Z8dKJgUy98/kBurV3jXEBWOJZRm8UPi7uA5e7FoXmcD7+Ll8PQIfruuK6rsznc1kul+I4jriua9aoyH1eDs87gBh+wFJgDjE+EZEgCAww4S2rOeTCeoSfJxyPGQZ5QykBQylfeYnjOKnX659nWfbY9/1f9zyvjcTHTqcjw+FQBoOBNJtNk81crVal1WqJbdvGu+O45WKxkOfPn4tlWXJ8fGxKoqDomNpk5aTpRGYW9hlU/owGFBqE6O8yxctggA0uji8iOxSsZkDwA8oa/QnQuRBb9XI4pggw8PzAuGl24ODgwOSXuK4raZqa0kI+FgMCDZp02Ma27R1FziEFy7JMc6bJZCInJycymUxMoybQ3RxvxnG48x6Oi9dhwJnZQDjEtu2dng6x8v1VAAAgAElEQVQADTAmvM8G74gJA89lkQgX4DohGmDpecO8otQP/Q5wjfCGOfGRj401VMRW6fWoGQaAL+3JAxxxqIzXNMaChlqtVsuEwxBK4RACKpq4cycnLmqvnb15Zm0ADDFXi8VC5vO5rNdr8X3fzCcYgWazuTN23gCNgQKfB/8jmdL3fWk2mzsMjHYoUMbLYJWuJ9dg/1VSAoZSvvISBEFWr9fnlmV9GgTBxvf9YRRFFTzUh4eHMplM5Pj4WG5vbyWKIhMbRD4D/oeXt16v5fr62pTKDYfDHeMOpcgKep/Hr70dvA/R3jQ8LPa88DkNCvA3U8VFgIO9KJybKWMGD5pdQOdDTqjjcRf9z2CCEzNhJADY+v2+TKdTo5CLgBXPH4MHHRPX3jV7lI1GQwaDgRwfH8vp6alMJhPT8ZM3euLxM7PA+SvoUsn7QOCHvWmELDCfqLNHEyhuHMY7rfq+L67r7oQ/4IXCKGqQVwSwMD4YG5QV63WGygnOK2HQxPPJa1GvWQ2CAQb42eB1xl40vwcwCaCK5mtcOcLXy30/eF3jueAQjW3bO5008T7PD0JL2kjjOsAajUajl5JYOSEWzxLGyw26EBLiDdCK2EAOiWldIC/YhSKGcJ+UgKGUr7z89V//df7Hf/zHfpZln63X69Vms3kYRVFF5E55dDodeeedd8RxHInjWK6vr43CjuNYHMcxCZKgpdHxEbsOIp7McXEoxSLPjw0fGzhN92oFrA1lUUyZlReULbwt7XHq/AnOu9AKir1rGBIoX7y+DxQUAaCi/6GwEZM+PDw01QWch6C9Uvb4ua8DzxXuN64X81Ov12U4HMrDhw8NWDg5OTGsCR8Dx2GgwOWGtn2/eRYUPe8TgrFjPtbrtTEc7XbbGAvkdXDJJ7zezWZjtvzGjpdYazg2x7s5JIG1CWYBzAaABrM/2lADMGBu2ZgX3Wdej68KrzGQKxKMh0tQ0SoZjAKMOoMhJKCyYcfxMD8M7LD+wAzwc8PhG+6GCnDBYA3r9p133jGgGoDTdV1ZLBbGMQGTAqCc57lJxAbDyWE0nif8j/DW4eHhTo+PF/cOe0kUzq2WEjCUUoqIRFG03W63zzebzWy9Xqe+7x+gvLJer8t7771nQg2fffaZeTCDIJDVaiWHh4eGZUAiHhR3EASSJInZG0HHZNnLE9nfe4EBhgYZ2tDz9/i39r55PKzo2YPDZ9mg6OPq0lFtJBj0cPyaPVEWTQOzwCCgHTP29WBjxh6tTgZlMMCeon4P3221WnJ0dCTvvfeenJ6eynA4lH6/v2OM2ItkupuNSb1eN7sqguZHOAuhBDbk8FTxPpIZRcTE4eFpchLicDg0m3MhhIbP8/3WwBH3E+PG+bBuOfbPDI1en7wO+L0ilkezaEzx4zvcoIsNMkAC5guhMLAL6BLK9xYePBgB3g3SsiwT2oGhB2hCKSVyaETuwAPKHzncJCIm0bBer++A1Gq1akoc33nnnZ2dS/M8F8dx5ObmRprNplxfX5uxMlgH4MDxOb+CwR7ATr1el6OjI5lMJma7dc3mlIChlFLeQtI0zbIsu02S5Gaz2SSu6zYcxzGZxScnJ5IkiXz66afmgUQ4AuV2lUpF6vW6HB4eShiGJna52WwkCAKT+MgeA4SNKBs7GC2AA47ZsjHUdLI26iyadWDvCefg0jNmJfAdNoz4Ll8DjwcKk6+dPW6myLUB0soMhgotmYfDoUk8DMNQRGSnXTGHVjAuBlp6vhjA2PZdw5xutyuj0UiOj4/l6OjIKGo2gpxYyGNnWrnVakmWZabNuGVZhsZGghuSZBHCgecJD5l7hDCgAxWP8Q6HQ7P1t+/75hjcpRF5Emx08R5T3ZhHAAcYbcT6OQ+H55Vf16CVAYK+v3pfCGbBNEPEawesAvI+siwzuRw8hww6GLRwdQq+r0M3+AH4wPyiHTyYRDTywnE5ORQ9PMbjsRkrQB+6ho7HY/nxj3+8EwLFs4Rjcnmrnu8gCEyX0FqtJsPhUI6Pj00CLa3R3HpTtCAlYCilFBG521diu906cRxf+r4fOo7TdRzHKOCjoyNJkkSOj48NIED3NihTGLFarWYYhjAMTf31YDDYUagwODp/gA0mlKJWXhA2iFCKrFRZUet4L9PfeG9fnTo+o4+pwyZMi+LaePttKD4OyUD2hVtYMPaDgwPpdrtyfHws4/FYbm9vjbdoWZZRnnqcDMQwFhyXrwsKudVqGbAwmUxkOByaWDhT2CK7uRaaqWHg1+l0xHEcsW3bUOEAC5ZlGa8R3jJK4RBrR74GkhzZ80UpcBzHht0Cq8HzwdUFDCRE7gGD3q8AXjCDDWaneG2x4dfszr4QA17je8jzqFkJhEAwB2AWALZwfqw/vvdFeRww5sgVQbhIgyrMH8IZ6KeRZdlLTcmgFxBGwkZRqPDh6wJ4gHHHZlFgonje8PxwYigDBoRZ8jyXZrMp/X5fRqPRTk4E/c73hXu0lIChlFJExPf9fLvd+nEcX0ZR5AVBMPR9v4JEKCjio6Mjeffdd+Xi4sJ4FPAI8WDati3r9Vrm87lst1vZbDZGabM3ILJb4w+FBuEYcxG9j//5M0WxYpyHaWT+PCdf6mRHNqxMM+OzmqnQgIGp2iKQgmPrsASHBfTrImL2cRiPx3JyciK3t7cShqHppghDpWlwfZ0MlthDxvEHg4Gcnp7K8fGxDAYDabfbO541rp2NpcjLLA6MLpJBYRx4nAxe6vW6iTsjLo/PI8SVJImhsxuNhjkGNqwCWMjzXJbLpTEiEB4j31t44Lg+sCRgGDhXhK+P7xGva54XDd50SE2/z2tAG27uP4AfVI1w7gy6izJLUXTP8FnkDXDzq6Lnia8P4E7knqkAgAPo4LWL8WJNYr7hdPR6PXn48KFhKK+vr8250BCKwyUcpuHQDYOWer3+0txmWZbpyolXSQkYSilFRD766KP8j/7oj5LtdnsRhuEmCILU9317u91aeJhqtZqMx2P51V/9VQnDUBaLheT5XUyRPfThcCjD4VA6nY7xQNDhDcoUMVodz2UqW+QeIOiEPgYcUEBFSlcbBE3/4jWOcfNn2LAXxayZimcvh2PRIrsbS2llvQ8kaWGlBur++PhYzs7OZDabSRzHcnt7az6DTb50rTs8M1DE+tx5nps482QykQcPHsh4PJZOp2MMD+4fGx9OmISnjFAD7hPYKBgSpocxJ41GQw4PD2U0GslwONxJJuTj4py4JgASzA/i60i2zfP79tS4dmYZwJpwXL/RaBjPXdPZRb8Z0PJaKQpJMWgruv/MnMC48nOgGRw+BuYWwAysAY9JG0mUPHIpLNatHiMACdgMADeMiVkGvm7OxeDXOJkYOTqj0UiOjo7k8vJyJxwFwADmAexT0bwXzTGtt/wFs2qe09dJCRhKKeWFRFGUHhwcXIVhuPA8L3Uc54CpwIODAzk+PpZvfOMbcnV1JZ999plRKtg4pt/vy8HBgcl+Bj0YBIFRCkV5BqxwteEH/Slyn5nNXgHqzmFY2EjpGL5W7AwGipIP9Zjwv/akMVYoP9C1oLuhxHk88LI0SOJxFoEJnB9GACwDkgTZU0YmPMe8QR2zQucxVCoVOTk5kdFoJJPJRM7OzmQ0GhljzPOvFTRAEq6fAQsMh84TYeanVqtJv983XSSxnrLsrhKCSzTZ+HASIOLa2Ia9VquZeUGfAE3xg7bnfgLVatXE1JGVz50jmUXSwJZBJQNYXrfamGI9YV64zwRCDDDkDLhxTsw7vsNNkMCOMOukBc8ybyzHa5zXIoMCHJf7i0D4/uhqGXyP7z+H68BQWJZlwh6oWME8oJJCswQ6l6Toml/c53y73ebcP+NVUgKGUkp5IXEc51mWzdI0vd5sNsl6vW6woa5UKtLv9+XBgwcyGo2M55amqbiuK7Zty2g0MlQg6uMBGMIwNCWAEPbcmZJmmhoeBQw3K18YAe5zwAlQTNly6AEenzaUrPD4tzYOPE72fnFsGG/8X7T1LtPGWiHvEz43rhdtmoMgkOVyKSJ3ihreF8oJobhB/bKHyDHnRqMhZ2dnJsnx6OjIlDSysuZSRACUPM93tivWyprngMcGEIOSucFgIP1+X3q9nvH8bds260DkPmcChpLn1bLuGk3B8GBXTITRmNHQJZUiYrxy5G8MBgPDNGDuMM88FwwYmBXQ5Yf6nsNw4rpqtdpOZ1Dbtnf28+ASSVwHnlUOn2hQinNp9g3j5bEU5QKxaMCJ+1t0zezFc1dMBuzMwDFjwOWxzWbzJaeDn1MN/pkt0o4JxgUg8yZSAoZSSnkhURTlWZY5WZadB0EQvuj4WMFDiZ4M4/HYeH+z2Wyn//x8PjdbDXc6HWPwUeYG1gFGCsJgAcoDxsb3fVkul0bRw/PgpDCRO+UNI6KVHJ9PGwdW3ppJYDpfe9NFmxtB2QHI8NjYIPAGSq8KQ2hhZQ+FjYzzJEnEdV1zHLTOBTWPJDjQ9Gj+hDI6JKJ1u12ZTCYyGAxMp0rOW+A9IlhZQwGDPoai1uCIPV+AEBGRdrttKhzg1aOLH5fM6XkCOGIGx7ZtY9zr9boBGqDdeR8LMAtYE7xfxunpqZyenspoNJJOp2M2DwMYQDUF9yrAvYHx0+2QiyhyHUbj/R9wXWz4+Zw4Lof6uCoBAEDnIvB6ZyPM/TN0NYUeJz8r2pBr0MHPNgMZDr3gGUWyI/QGrpefIZ2cjLnFuTAnGijwWNM0zXkOXyclYCillBfy4Ycf5t/97nf9NE0/i6LICcOwH8dxhel9eIHj8Vgmk4npFw8vGsmOABe2bZuue67rSrfbNXQme8ugpvE3AEOSJOI4jlxdXZlufu1229DNui++VmhQUKyMoByKqErQ/axENfXOY+S+AfzZIpCBv5nNeBuwgPHxb8uyTCVDnt/F6GHwHMcxJa1sYPI8N5ticTfKfr9vvPvhcGiqFTjODOChwxAASkyZi9w3muJdS23bNomPYA8AJDCObrdrGvqgagCeN4NCzAW8a02R49wnJyfGKHW7XdlsNuI4jlkDvBYwDm5WhU22EJYAyOAeCSKy0xiIQzAcJmJGikEr5gtrFonEAFZYu2BjAEaY1cL/uC8isrNLpQYMbGwBOJBzpEEJMygQHZLjdcHngGFntg/ACe+D4cAGdvP5XGazmazXa3MuHBvfQfgJx0N7btwDfkY1Q/li/vN9DEqRlIChlFJI4jiOoij6N8uybqIoOguCoBaGofEy8VAOBgM5OzuT6XQq8/ncKI7tdivr9XpH4aMHv+d5Jixh27bJYGdlxoo2iiJZr9cym83k/PxcwjA0e9sj6Y8T0UR220hrww5QAiWlkxi1ooMUKUDdxZHPL7JbVsghFx3OeFOgoMfFHl6j0TDVKUEQGGPTarVkvV4b0IASRnjfYBSwwRiSDMEq5HkuURQZOp+Bgo45M1jA+9xciRV3rVYTz/OMAYbhhtEtCtXoBD/t8cIQc7UNmohBsGHXYDAQ3/dltVoZgwgWBuNttVoyGAzk5ORExuOx9Pt96XQ6OwARn4XR4vHjXoGx0Pkx7NnzvdQeOH4QkuB54JAO5zFoip6rHdjjZiaC2RAkKqMapaifxL5rwTNQtM75WcQzDuEwBPaiOD8/N23PAfi5LFIDb4BO3AN8Vm9/je/nd7LN3xQtSAkYSillR4IgSMMwfFKtVh8nSfJrruu2HccxyhclSv1+X05OTuTi4kJE7uOm2+1WptOpyXTH/wwYuNkKqFIoLVCqaPw0m83k6upKzs/Pzc50g8FA6vW6HB8fS6/XM4pZ50ZohagVNI+Bv6cZAT6eBgL8PfzPylwrZO3NMF36JqKpYJH7klcABuSPtNttWa/XpoERKPhK5a49Lyj2w8NDs/skSiehuLmFMIwyzweAgt4tkxMDYSA40TIMQ9lsNtLpdHYqGvR8a6+Wwz96TjWLg3UJoIDKD8/zJAgC0z6aY+QAsPV6XQaDgcnUR9UPDBI+x91LcX7d04HDAjrvg40wrxkOWfFaY8CGzyGMwCEFNPESkZ2twTmkA/CmN31C/glvE85rnNeszmHQ5by8bvE+rpWBDRipIAhkNpvJ9fW1PHv2zIQ8sZ4wTn4GOFQF9ocBPQMGyIu5AmDISoahlFK+gGw2m6zdbi/q9frHURT9x/l83u92u5Ver2fCCLZtm+5/CA3gIUaC42QykWazKWmamk2qsM0t9pyAAmBvAMZnsVgYoHB5eSnz+VyyLDNJetPp1CTocQY4U5UwXOyV6ngqvlekUJjx0PX0urcCn197xvybDdsXCUmwMsZ3wChkWWaaY2GDn81mI91u1xh/GHAABux4iQRDdHEEwOCKB5HdDbeg6LGZFMJSzCgUsT28y+bh4aGpj0foCMcGgGDaXxtYnnem1pmCRk8JBjnY6ZC7FfIcITdkNBrJaDR6KZ+DwRDmnu8rh3I4HIHQiQ5XaWPI60VkdydLXBMbOYAQnA9sA3JJ+DVem9jBEo6APg+vM74uPe9svIsMOgAIujZiPTADl6apLJdLubm5kSdPnsj19bVsNhtzTTzn3LAJOSzb7dboGqxB6AdeixQ+y5IkieM4zsqyylJK+QLygx/8IP/d3/1dv9PpfOb7/mw6nT5sNBqV09PTnVav2PYa1RIwqvDUoBiwm+Bms5HpdCrtdntnm11OGkQW+2q1kmfPnsnFxYU8f/5cbm9vDS2Zv4jTT6dTEbmLdyLEAaWH/7V3z0aHDYwGDNwAhhUovwYlyB6WppmL4rkQ9hTfNiyhhb1ihGugLNH8iMMRABPIXeh0OjsdAnkeONRQBKg4MQ7eNOeNaK+fx9Xtdk3oCsar2+2a7+n4uTaw/INr4/wAzI1t24ZNgbfNzEkQBOJ5nmw2GwMaLMsyuTKo2GCwgGPrv3nNYL3gbz6niLyUva+NrGa4wOLhfmsGCyWH+DwYO+74iERcTjKE8cazjTJFHLsoF4efCV7PDCLAfqB19HK5FMdxTBIod/EUuXv+5/O5XF5eytOnT829APDC+TAPlmWZ+QT4azabpmsoAwYOW6ZpiiZnme/7cZIkGfrEvE5KwFBKKUriON6KyPl2u710Xfd/XCwWNfTjFxGjgOF9tdtto2AY8XPf/ziOZbVaiYgYxI+kNygyz/Pk9vZWrq+v5dNPP5XZbCaz2WyneyG3pAZwQOY6Evh6vd5OnBRen07W4h829K8rg4PS1CwEe266ioC/r+PIX1b4/CL3LACSGrmqAd5Zo9EwVD3AG66Ns+JhqPg1NoKcM8AeI+d2aFYHVD7nUDQaDRmPx3J6emoagXHtPs85rlF7svib49z4Dm/5zOXAvFY9zzNbYuf5XdOmXq8n3W7XVCvwOsE5+TfnCeCakefQaDRMyTE6TmqmCnPKvSVwXCSh4n7AWCJHoVarvZTLwGCBw0aYI10eC8O63W53mBQOZehwEK9tHBf3H5U75+fncnV1JTc3N6Yk9PDw0IAGPBfYfAqMIj+7vH6QFI17hkoK3hgL4IeZG4Rs1uu1LJfLzHXdaLvdZq7rvtGzVgKGUkpRkud5blnWdZZlT8IwDKIoaiZJYrNH1Ww25fDw0MS/sZkQWIUoimS1WpmkszRNZbFYyHa7NV3+Tk9PDZjYbDayXC7l4uJCLi8v5cmTJwYc2LZtWv9CiSIpa7VaSavVMt5qr9czyh47IBaFCZjZYC8VSgpKG8aBa9SZltVUMP8UlR6yl8Zez1vcm5deY/qdxwlgoDsj4nUYMnyHQRIbO9xD9vbYGBcZCoyV55zngT1mMELj8VjOzs4MYICBw/XAEDKNzfOiPV+sFz4G3ufQCsaBRFFmf1DNwZ4wz3fRvdBhI4wXoQuOr8OA47MAY7pUk3NAcBxs6c3MDQAAPG4GHwwCtfDcAfwB/DCo2TfvzFTg+qMokuVyKdfX1/LkyRN5/vy5XF9fm/AWNk3j9tHcv0QDFR2uwX4h2MwMPSr4/jJgwBwjPLpYLLL1eh0lSZJ6nvfSnBRJCRhKKUVJmqZ5nufLOI4/FhEnSZLDOI7tKIqM8kQsejQayaNHj+Ty8lI2m43pkIf+791u1yRMVioVcV1Xnj9/LiJilGUQBIayvLm5kcViIY7jGOXLW9Ky8YYyA2PBHjzTzSK7XjgzC2zEdOY9vseKkL1cDQbweXiumk4Xebl+/BchOk8A18ilqcyWIClSl5yxMeHQRRzHZh50wyB8VjMwnACpjajuVwBj1+v1TEiFPW0AKx3qYXaBDQzfz+TF9shgsTipUK8FdETk43K/CDa02uhqxgHzwiAN4QSd0Ig5wbzCAAM0ICavDTLWP0AfYvOciIr/GQhi7vA5zAvurch9wyNdNsrghisUmCFBN03XdeXq6kqePHkin3/+udzc3MhqtTJhE/RnQftt3nMC22Jz9YkG+CgBXa/XJpEVuoFBFBg0SJqm4nle7rpuHARBEMdxWnZ6LKWULyj/+I//mD98+NCrVCr/KiLPkyQ59X3/AA83Hsp6vS6j0Uh+/dd/3eQfJEli+jGA7n306JHJTp/P5zKdTg1IqFQqJuEM5VxRFBn6FQ8+e8XtdtsYFU5SA+3MChTdDmEQdJIWe/xFYQZ8lg0rhzb035qp0MeE8WDFj3FA3iZMUUSNs5eIudNhAXirUMLwqKGgUfHCnfAAHDSgYsDALBAbS1w/hwIAYGBAodSZhmYmRp+LjThYH3jlCGngfJxwx165ptLZiOOcGizsuwf8tw5zaTDAAIebUnFCIcaMXAMGvAxwsZ5E7hJgUX4JAMG9GmB88VkAKowb8xCG4U5rb75GDj1hneHawzCU5XIpi8VCbm5u5Pz8XC4uLuTq6sokMGL+EVbBesRaxZ4lnHDLyZIYA9YI3o/j2OgNzAvrA4zxxVpOwzDcJEnibbfb9M/+7M/eqEyiBAyllFIgnuclaZo+sW37J2EY/vp0Om20220bsWfEoY+OjuQ3fuM35Pr6Wq6urow3hP0L2MhDMd/c3MhsNpPVamUqHGDwkQzH8VHEf7EBUrfbNQleYBJAXUK5srcIZQnvUhtqpmt1PF4bDFyD9nZxLFbM+pg6b4KFj/OqREh+vSg8wZ9helaXJupyOFwzhyKgtBFi0sdlRmLffGgFz8mjusQQXi3WhBbtYTJIAVADdY48BXwexpPvSdGc8SZkLPuofH1PNIiB4cL643njz2rAAEOOfS9wHMwhh4a4yohBASc6wrjyPQKQyvP7dt44Dp4rzn/hvABeO8gtAqvw5MkTmc/nslgsZLVayWaz2Rk/szgISaG8F+XBuF9wLBaLhWFCUEaMBmOu65rKFwBBkbtcqV6vZ5JdcR9fjDcLgmCz3W79NE3LPgyllPJlxHXdPMuyeaPR+H89z/vfnz9/3s+yrIaGNkiaG41GYtu2/OQnPzEPO6N5kTsl2u12dzwHhCywKx3vcAkFi5gktrx9+PChjEYjs40usqNBOeNcWrGzB8QZ13iNvTX2wNlbBl2rQxms8Pma+W9OBNwHBvYZ2qLPadDARhOiqXEGSfu8Zg0ekETH2fT8fe09a5aEQRKzHZgvfB65CUg+RGIiPGC+LywAN2BH4E2zUcM5ORS0T96G2XnVMRjYiOzmTDBLxWyLZl2yLDOJvWB3dNWPnl+ALgAnHU4Q2e0UCkaG1y7GrhNNGfgiPALA4XmerFYrmc1mcnNzIx9//LF4nmdAApJGcY8xB8ihabfbMhgMTL8LzBOSGm9ubhBGME7FcDiUk5MTOT4+lsViIVmWmS6nAPX1et003MLGaZgjz/Nyz/OCOI6DEjCUUsqXlO9///v5N7/5zXC73f5/URT922q1+lqtVjtwHMdCrBBxWWxFPB6P5ebmZoe2T9NUNpuN2e0PiN+2bUO3drtdOTs7k8lkYkAHlBGUf71el8lkIoeHhyaZkasBtLGCEWIgwDFuDiVozxgKGEo7CAKzaRHKBdkA8DnYq2cFz2wFn5eN/T7GoEjYWGsGpEj0ufX5+FjMoCAnRcer+Ts8HjZizNQU/bABB1vEG2bVarWd7oY4JhtafR5mNABSdG8IBnmaKdFz/LYgoujzGB/mURt1TkrkcAxYOrANeodRXBvv78HhPU7a5Xuj7yEzEjxmfAa/GfQBKCDvaLlcmh9sRMc9PrDpHPolIDQDdoF3BeW1hr1Rbm9vzTOP8mmwYHmem30nUPqN99BNFDueQq/4vp+9yF8IRKQEDKWU8mUliqIsSZKLKIp+UqlUftPzvM5qtaq4rmvigwANo9FIHjx4ILPZTBaLxU58djabmeRHPOxQ3Ngy+5133pHJZGIa7CDEwAYHoQhQrVBwnJsgcp94yMleHFeHUsZn2fCx951lmQRBIIvFQhaLhVHa8Jh0XT7nOwDk6LIukZdDCfx9/v91UkStF33/VWwFBKBHe+GcKIgfHdPW52IwVcRucBIgPGP2hjWg0F41jCjH77EG8Fk20LzdMx+rqGpg399vIgwaeU0VzQsAre41wWsUIQEkMHJ7ZG60hFwAtFJHdREn8oE9KAKuIvchI31vGawx8NpsNjKfz+XJkyfyySefiOM45t5x9dR4PDbMIQBoGIbms6hMQdOwVqtlxlev18V1XUmSRJ49e7bTvhtrBiyj4ziyXC7NfRa5y8c4PDw0zCZCLy/yHdIkSbw0TcP8LZB6CRhKKWWPfPTRR/kf/MEfeHEc/6RWq12GYThxHKcym812SvJs25bj42N59913ZT6fy2azMXXmQRDI1dWVNJtNabfbxigBPDSbTel2u2bjIygM5D+g+QsaByE0AO9LKzf2MCHsaemQABsOkV26HeVp8/lcbm9vJQgCU7rG59BZ7zBQ2K+BGyKxkf9FGKq3BRlFsi9UoQ2MNv5FsXjNBuwLXWgqnRT5TkY+PsNMDh9LA0WdHFjEQLBB19520fqA7GMh9v2t5xWsgK640fkcAMu4XlQraGaBwSjCZqhU4twDfW/53CKyE77hjXUEpLEAACAASURBVMMQNgCrgB/Q/9PpVJ4+fSqfffaZiIjZZv3hw4dydHRkNjJjIJCmd83d8DzjOlDNgJCViBhDv1wuZTQaieu6slqtTL7EarWSLMvk+vpaFouFuK4rg8Fg57lEnw/kMJATsc2ybJ2macjA7nVSAoZSSnmFOI6zrVarP6/Vah8HQfCrrusezGYzG0YeLZhHo5E8fPhQbm5u5LPPPjMeAOKQ3FUQYYxGoyGWZRkFByULIwLlDYXKShhKgTPhmaLW3jxe41g85yjwZ1lRB0Fg8iSYMtbHZs8WXi0aI0EpQjgMwfImRv+LgozXMRH6b+0di9x3H9TJc/r7OlTCx8P/zCjA0+amXLrdN/7m+8U5DTCybPD1ePl4/H+R0X8VOOD7x4BoH/Di13SIisGPBsAMivBcMPjgcTLToI/Jx8B7DMoAZnX1BocxACpA6WMH2jRNpdfryXA4lNPTUzk7O5NHjx4ZRpHDd5y8CcDAbA/WAq4HDB4afB0cHIjnebJer80+M9jJ1nXdnbwLZjCQeK2Yxq2IuFmWRWEYlgxDKaX8IuTDDz/Mv/nNb940m83/EkXRf3Rdtzmfz+vj8VjiODb9FXq9npycnMiDBw/k+PjYUKkwBLPZzFQ6IMsZIQZkQhfV7mt6t0jZM2jQnmURe8DH4L9ZWSLpEtQ3e0JQQJoy1542MsABILg88MvK2xyD5w9G4VXH0kaQw0tF1Q36fhQZYByDAQPWiDbS2qNmAAC2qIgJYAOHz3P1ATMbek18mXkuYl3063wuDWhxf4pybl6VZ8Egugik6MoLDVCKGK+isQEI45iorKhWqzIYDKTVahmwMJlM5OzsbCcxUo9BPwcMFng+EFLBs2TbtqnmiONYHMeRLMsM66D1BVgTfBdznKZpvt1uo+12u9putyXDUEopv0hJksRPkuRHcRz/3PO80Xq9rgVBYHHNO3anPDk5kffff3+n9l1ExPd9ub29NeEL7HgJL361Wu2URbHi0n+LyA4g0H0P+Bgc89TMAI7HnioUFSjyPM93WvKiwRBn8mtvkXsecHIoK7Q3YQRe9xltkPZ9lz3+NzkuHx9zzCWsOplOf157+jxW3CMk8mFfBYRw0FWSjZXIvVHRoJDZDu11c1khjHERw8Dz+DoA8bZSdCxeq5xrg+dJ3yNd6cDzgWtiUMrzwnOmr03n1eC8KFnWzBu+Y9t326MfHR1Jt9sVy7JMrkKv1zMJjjDuOBbCMUUAhkEt5gb3jDuVct4LGkQFQSCWdb8hF8+Jdh5eODBZHMd+kiQ3SZKEf/7nf14yDKWU8ouSKIqSMAw/PTg4+M9BEHzd87zOZrM58DzP0IbV6t0OiKenp6aR02KxkM1mI7Ztm4Yu9Xrd0Iu9Xs9sVrVcLsX3faPc4BWI3HvFHJoQ2aV5mUYtosq1YtznEbKyQlVEp9PZSfpqt9svJTLiWNqrxfh1EuCr5FVUfxEbgPf0Mfg9NpZv6jWL7Hp/bHj3zTODryJvlV/DcdFREpU2nMfC58L95dAPqG0GERCAVmT1w+hoIKP/1/NY9HrRHBYxCnwcHSrgKomiEkg+Hp4LfSwdqsBn+fgMsrhJFlf84F7jeeIcIByLk3qx/4fI3frGJmJctQEmgCuTuHW5ni9mVnC/ASwB3lutlsltyvP7cmfkVFnWXWdY5E9wBVWaprJer2W1WiW+7ztJktyEYRi/dCNfISVgKKWU18gPfvCD/Fvf+taqVqv95zAMf9PzvJPValV1HMfChk9QPuPxWEREHMeRTz75xLAKYRhKlmWy2WxktVrJYDDYKa90XVccxxHf96VWq0m73RaROyUDQMBeBxs/NiAMIrRS14aOPVPNYuB4AEQAMEzPsuemvTH2HLlrJRu0ItnnufPvIiliG3SohV97nTBA42oTHocep46Ta69fe8I4DnYwnUwmcnx8LJZlmd01OaTEIYeiclVmDzBW9C9AbgRi5HpO983tqyj/V80/zxG/pxMddZjnVfdQCyd0wnPnEk0YbnjfWMcMFJgdY4ZBJ+nC6GPOAerwGlfPcIgQ5xARwzBo4MjMF68ZkbskRe70iARKVD0ggZKrkvr9vrz77rvy7rvvmqqrPL9LrJ1Op3J7e7tdr9ezOI5vwjBM5S2kBAyllPIGEkVRkqbpx2EY/pPv+/9utVq1lstltdvtynA4NA98s9mUk5MTOTo6MpvL+L5vFEgYhuK6rgEFjUbDKE5sJIMyKygrKEOm/EVkJ3QB7wkhCVZUbMQ5Ds6GTWQ3xwFJUkjQ0lQ5f6eoIiDPc+NhwcvRHneRN7vPc38T0dS6Ps6bMBsQ3BM0xWKDIXLvjeJ7DIbyPDeePxt2jEPnfCCnBXtJgMbGfeJ8CQ28tCFnA8fJb7gX3LXwTZkeDRr2gb6isWiWgf8uyrEAs8LnLxIGyZgP3pGSjw0GsF6vG8Cgnw823hzS0/F9BuO89hEiwGc00CkCd3w8fr65xDMMQ1mv12ZbbGzLbtu2yX1CvxZUWfR6PTk9PTU7n2I9RFEk8/lcZrNZ7HnedZqm8yRJSsBQSim/aPnwww/zb3/728sgCP7J9/3/c7FYjGezWbXX68nDhw93FFCz2ZRerydHR0cymUxM5jZi4Ov12tCa2GQGW85ih8t+v/+S9wclyVS1VkJsVKB0dIyUPVF8hvs+wCPDZ0F5whAytc2Mg8h9IlqWZaYfP0oxmY5lg8vyKrr8TUQbziKFvU/YOHHOAkpYtZHga9GeKs8PH5vnhwEhPOCDg4OdfQMQj4cUnYfHz4YSn0f1AAAD3uP79rr55PW2j/1hw7vP2DPg0SALc6lZFRxfn4urFyzL2tlsilk4eN9gy/YBHgbk+C7/cLIizzVfM88rrofvPeaA54LDSzxuAILZbCbT6VTiODabkyG8MJ/Pxfd90zES3R1PT0/l5OTE7HILpsJxHHEcJwzD8DzLstV2u33zbmlSAoZSSnlj2Ww2SaVS+bfNZvPD5XL5jfl83hiNRpUgCF7yGnu9nrz33numDTQSkwAMKpW73fiQ6FatVk3Pg2q1Kv1+X5rN5o6hA4MABSCya/x17wWu+eZ4L7rFidwbIFZWeZ6/RJvjmBBWdFx5wMoRXSLRnIaN7qvkdTT5F5HXUep8PvbS99X0Y27QxlszNkVUOn+G6Xg+dxEYZEocxykyqkXvQXSC4evYAozpVYwNX9M+0SCV8wfY09dMBF8HsylFyaR8XH5e8D+8cpQxM/vC16IZI54jBjd8j3F9DAI088CAXTMZfAwGIJZlied5slgsZDqdGr3Q7XbNc71arWQ6nZqQBHa97PV6MhgMZDAYmNAF1loURWkURas0TT/LssyL47gEDKWU8suQjz76KP+d3/md+cHBwf9zcHDwf7iuO3Rdt+W6rkkIhGd+dHQkv/ZrvybValWePn0q0+nUHCcIAkM12rZt+hWgGYtlWdJqtWQ4HJp4JRQgb0ykwwJ4LY5jUye+XC4Nw4HETDSR4m6D8EKZGkZiFVdOgJ7nWDArRijWLLtvK91oNCSKIlNiiTFr0QaqKGTxJiBCGzAGC68DDEy945qQdAbQAEOnNzzS7IE+N5+D4+08XhgyZijAEujr0+wJxsIGT4dEOEzBLBMfTxtkPY8sbDy1oSwKCWmvmsfH3rVOfuTvwXPHmDWTwAm2lcpd+2VOImZWTWSXaeHjagaGmT5mfzRA5PHiXPo6+F7gegBkANax5T0qqJiJQJhiuVwa9g8J1egB0Wg0zD1GPkW1Wk0qlcqVbduf5XkeffTRRyVgKKWUX5Ysl8vIsqyf1ev1H3me9yur1apxe3trIycBlGe/3ze0IjKqoSgQF1+tVmYzmXa7bUosoXyCIJDBYCC9Xs+0fNWGnA0SSrlWq5Xc3NzIYrGQi4sL09+h3W6bfvVZlu30U0DOgogYcMFAgvvzW9Z9FYfeuVLHdNGMKAxDabVaL2W0a9n3epEXW0SN83v7jHaRYdz3Oq4f9wzvYc5EdsMd2nByMiq+x0qcQ0ZF3ro2Rgxo+NoZbOl4edEc7JtTvP460MDj1VS7HnsRECwCD9qz11UhbGzZ6CLujzg+nhN8XoNaLkPW4SW+NmYENMvAv3X/CH6/6N5AuJKjKFzoOI6sVivxfd/kYGCnXDxT2OvEtm3TEA5lz3im+TyWZUWVSuVSRK7SNH3zBgwvpAQMpZTyFvKjH/0o/+3f/u1FmqY/DMPwtxaLxfDy8rKOigfQnjAovOEU8g+gZNbrtannhjH1PE/iOJaLiwuT73B8fCytVkva7fZOG1uOoyLmvl6v5erqSp48eSI3NzdyeXlpvI/Dw0OT/JbnuanuQBUDFKuImNc8z5MoisRxHFmv1yYBEooLlDyHM5hGR3kZMr15i2KRNws7vA4s4P99rIUGCq/7DjMA6GOgvURtjGFMeKdS9vDxeQA/ZgQ4pMGGiQ2bNkZFxpk/x4ZKAxMGFG8y53xunst9LIKeewa02mjjc9zimSsodEWQHoeu1NHArWgOeB70hlw4tg4VgJXRa0CHGV63nhn88aZZeJ0ZOIB0y7Lk8PBQBoOBjEYjqVarsl6vTeI0wi3NZlOGw6F0u90dJhJNnhaLhQRBEKRpepllmRNF0VuxCyIlYCillLcW3/eTLMt+EkXRf3Ec54Orq6uDXq9nA+Wjg6Nl3VdNYAOnJElMrfZms5FOp2MSArG1NXbAc11Xut2uOI4j/X5fut2u6bSIvAfOFXBdVxaLhTx79kw+//xzubq6ktVqZcojmSUQETNOKBgoUPwGY+E4jlxfX8tqtZI8z2U0GslgMBCR3VJCFryGUAZXTLDyf12YQVP8bOhexTDgtTdhEbQHj7AOfjhEw+fnMjo2+Di+vk6O32umAaBE53mwMeFr0nNQBCw4Jq7zJfQxNODjYzBroueLY/gaxGhQqM9XxCAw28LH4++yF477wNel2Q99j3As3h9CrxOdB6IZB5xP5x0wO4Lv6RATXi+6t3g9Te/2cUmSxIQaxuOxnJycGCDbaDRkOByapnGDwUDOzs7k6OhIms2mGYvv+zKbzeTi4mK7Xq/XURSdJ0kS/NVf/VUJGEop5ZctURTlURRduq77fcuy/td6vd65urqqZ1lmoWOfZVmmJvqDDz6QOI7l448/FsdxpNVqmT0mPM8zezWgA2SWZfL8+XM5Pz8XEZGbmxuTz4D8A+wYmed3W9uu12vUWMvV1ZXc3NyYzWnAaMCAMyBAUhR6zovcsQvwfhzHkel0Ks+ePRPHcUzeAxtSjj+zJ8mGgVtlwzjAmyoCDcxUsKfJRpup3jcRDWwY7PBYUc6GvAWcVxtSzkOAMHWuG2pxbJ0NFQAVaGacp1KpmO6fbEz3MTr6WjlHAn0ddG4ADD4bODb+rwKDRcYS7+P4fC+L7jGzApwLokstNRjTgJMBAT7DLACEwxe4DzpMxuNiQIP3Ae54LfD5eG6YTeGGUPx5ziUBeAS4T9NUut2uHB0dyenpqYzHY1ksFjKbzcS2bbMnzWAwkMlkIu+//74pp4S4ris3Nzfy9OnTcL1ez4IgeBajxehbSgkYSinlLeVf/uVf8tFo5NXr9R/VarUfBkHwcD6fH2VZVun1etLv900IotvtyqNHj2Sz2ZhsZ3h8iI2vViuZz+fyzjvvSK/XkyRJZDgcysXFhcznc5nP53J4eGhaMyOxqdvtmi5+6/ValsulzOdzWa1WxpvnckjkR9TrdZMcVqlUTH03aE3kWwRBILe3t3J9fW0YD9Ce6DAnIibUUkRXc/wUgIF3t9xH4xZ5ozCiRQbodX+zV4zXNa2O83B3PdT062Q1GDO0d8Z7SCKFsCfNYSQGSXEcG+CIJFHtReP8RTsw8t9Mk/O8cevlopyJovACv76PqdmXt6DnHN/nkAuzCrxGOHRRBEr3rRH84D0udebxaSPNhlsDXu4Mqdcjzzsfjz/H7a41y4CwAa8nMIZo4pbnuck9Gg6H0mw2RUQMwETfBVRGnJ6emg6POP+LZOr85uYm8n3/WRzH51EUvXX+gkgJGEop5QuJ53lZp9O5TJLk/46i6H/yPK8rIq3b21sZDAZiWZapcDg6OpLj42M5OzszW9QyDb1cLqVarco777wjo9FIWq2WPHjwQC4vL03uADxPxMBrtZpJlmT6Fe1puXQsjmMJgsC0oXYcxwAJdJlEJjma2+C9xWIhy+VSPM+TIAgkyzJxXVeCIDAbJwF4aC+Px4UESKbji2L+WqD494Ut3uR1Nj77jI7ILq3OHfZ0KaLIy9uHs8LnkkHtrSI2jzbTGqAA6GFsmEvMr8humIABAxs+Fq5yQcxce7vssTOQ0yESBhYMaDQw23cvMD6ea8wBN5ViELcPhPA4mYXR95PBoR6rBiVYa1wFg//ZsGsQW5RjwUBHXz+eYVw/M3CbzUbm8/lO22eUYc/nc7m+vjYhQuxdgcZf7XZ7Z6MqsI+e5+VhGHpxHD/OsmxWAoZSSvlvKD/84Q/zb33rW1Ecx/+SJMk/hGH4nmVZddd1K/P5fGdXx2azKePxWE5PT8VxHENDZ9ldq2jf9+X6+lrOz89NoiQ+j0RD9HFgzx6ll81m0/yAiYBx2mw2stlsjPGCIVytVqYqA/kQMOCsUJmZEBHDZiAZEgZSK0v8xjhAu0MRs9Fg+lsDAIR2iqj3fSBDyz7vmSltvMbVImzIODTBlQ8wKpwcqa+Ryy/BWuC+h2G4E67ga9RUNydDssfKXjEbSc2KsBfPc/qqBNSicAOfl0GDPoYGbfpHgydmB0Re3pkV11lkgHXnxqIwAQMdBiUcXsC9A+jmJmV8PXiPz6FBEzMpXJHBISkImD6AezgV+A6YSN/35fLyUqbTqURRZPalQbiSx4GeL+v1WuI43mZZtkyS5EmSJOsPP/zwrfMXRErAUEopX1i+973vZd/97nenQRB81Gg0/pdqtTqIoqjpeZ4NQwBvAlteQ9mHYWi6+02nU1ksFvLZZ59JtVqVs7MzOT4+lnfffdcwBefn5ybGyU2bDg4OjHfB2dKWddckCg1fYOQQBgnD0OxroY0ClCbKuDBOzm3wfV9835c4jneMT5HRg1FALTmqBDiOrLP2izxofk9np+N1liK6XoMM/TdAAI9HU9AMFuD95Xm+k6OBY8CTZCYly+62JHZdV+I4Nv0xuLkQPsfGSLcQ5jnWhq8ohMKbMWlDrJNJse60l67vjQYSek5ZeC2AUuf+Fnw9OA6uoajsUo9FJ2UW3Xudc8FAQidwcotmBikcAnkVG6IZHwaQWDsMYpAI7TiOeW7RqTEIAtlsNrJer2WxWJhwBTbFAjMI1ghgF42f1ut1HMfxVRiGnwdBEBbeoDeQEjCUUsqXkOl0GluW9f83Go0fNJvN/yFJkhPP82q8O2ClUpFOpyPvv/++ecjRXAk11ev1Wp4+fWoeejAM8HjBBiAJ7uDgwCRCTSYTkwRZrVZNnBOeZK1Wk1arJZ1Ox3i38FZeeB9GIeZ5bj7f7XbFtm2TN4EWz4iPAjRwOWaRAYExDcNwJx7MhojLLbU39ya0977P4m8NHvRx9Gc4g54NAjx8jBeK/+DgwJSP4nNIEEUnPt/3zb2fTqcym80kjmNpt9syHo/Ndsmgp7F2MCe65XARaCgCArhWTtIsAk58vzih8YuwOkWfBcPieZ7xfDEnIru9FfQ1AHBpNoSbUPHr+8AiAwyeT7AFCNfoHBsNCvSa4ddxDmYQeBwMRgAU4EQgeXmxWMhkMjFAAGACraBxLMwdGE1cU5bdVTi9AAy54zhBFEVPgyB46nle8kY3sEBKwFBKKV9CPvzww/z3f//3Z3Ecfz8Mw9/yff9wvV4feJ5nRVFkeh3A8B4dHcmv/MqvSBzH8sknn5jNpgaDgVGiUBgABIg7X15eyu3trUkcRP/4o6MjOTo6MvkM3A7Wsu5KOzebjQkjuK5rDB3yI+CpiNwlY4GpgMJCCSa8ISixIAikVqsZoKOZApH70AYYBm2c2DsqYhv08YqMf9F7b0KV8xg5FAFlXuTRIosfir/VaomI7FDKMDz1et3smIgcgiRJZLlciuu6Jgu+3++bvUX0xlUYMzLtMUaOj+ukQG3UNGAoyk3gOSvywHk+tTev7wmDBcwZQCOSO7knyOtYnyIjz+Mouq88JrAz+A4zRWz0sYEUxsS9G8DuceIoPss5LnhGsI64myOzQfwscEXScrmUIAik2+2anCaALDzDAKXQBZ1ORzqdzs414ZibzWbr+/4iSZJPgiCYJUnyhfIXRErAUEopX1ocx4m63e7PGo3GP6zX66/VarXWer0+8H3f5BbAAA2HQ2NsUXmAMkt47PP5XG5ubuT4+FgGg4FR1ugOic2JwCaMRiM5OTmRdrttPA4YCIQsgiAQz/PMBjTId3AcxzSL4m558FiwnS56QHA5JtrUAgjwlsAAF0yhgyVhLxfKNk1TQ9EWJZGJvLrJk2Yd9rEQr/OOQduLvJw0x6EJVsz1el0syzIGEYod14KERYRlUGPPm5AhpMRdCmG0dPY/0+C4Vr5ezT7o13XJIo5bRM3r13lO3lSYVUPyLe8CyjkFDDZ4fGB1+NxF3j0bbP5cUVIiH58TMNmg87XzvBaxNxqAaaDFoR5OYEWJ9Ww2k6urK5OfcHh4KJPJxHQUnU6nJvcF9wLPIiqn8Hxija1WK3EcJ/Z9/yKO45+v12vvn//5n79Q/oJICRhKKeVLy0cffZR/5zvfWfq+//2Dg4N/V61Wj+fzeXcwGNhshC3LMkb35OREJpOJ2e4axgMlVVdXV/Lo0SNjtE9PT03nxjC8C0EidokSy06nI1EU7Rga9NKP41g6nY7EcWw82s1mI8vlUtbrtTH6YBPg7YI9aLVaZvtcjuciI3ufAYFiZkXM5X3oeQCAwmwD18u/CYDg/7WxfBMDx6Bg3w/HnAHIECJCOAGNtFAaB1aBxwWgBUDJ163pa90/ged1HyOg8xTYyOkYvJ4DjsHzvGhg8iphYw4QhiqQot1OmSHhplZ8PzAmBqY8Ns6J4XWnWQrdzIm/w3kWOiSBda/LNfW6KwIrfO/5mrFWFouFKV9erVZi27Z0u10ZDodmB1ORu54KSGJGbgwAfafTMcfEzrcvmMXI9/3P4zh+HEXR/Q5yX0BKwFBKKb8AcRxn22q1/tW27Q8ty/q16XT6QbvdriNEwErJsu72dXj06JGI3HkOqJBIkkQ8z5PLy0u5uLiQPM/NfhLYLhvxTBHZ2QipWq0aw6RL+lAymWWZAQ5BEEiv15PNZmPaNiM8gu6PiOEjuQ/KUCePsdfLBkl7V/A0kSCIUkuEQNAHArkXGAOXuPFvHPtV8ibMBHuGYEO49FFn53OiHuYGPSpAfwdBINPp1HiMSCBlYwfjUZRgVzSX7PUziNHXpA2cpt5hiDn+XwRAcK/1XO2bU77fPJ8ADVw6ySEo/mxReIPHzKwDb4jGzBj3TYDg+6D0ce+wK2y9Xjd9IBjUcOUQ7jWPtwicYl4ZWOB8uGbkMaEx2tXVlSyXS0nT1JRMo/trtVo17eR93zfVEUhMxuct666iYj6fy+3trWw2myyKIj8Mw8/DMJwmSfKF2QWREjCUUsovRP7+7/8+/73f+72ViPxDpVL598vl8qjVah2JiI0OiqD1K5WKtNtt+drXviZxHJvqiEajIVmWSRiGcnl5KZ9++qnk+V3jlsFgIA8fPpT1em3CCxx+4B9W6DD4SMCzbVva7bZkWWZ2kAyCwIQEkBwJRoRjsRxH1p4TDKv+LbLb8hbKlcsswYK0Wi1THgZFCNaBlbJWxDjHq/4vkiKgwcaoyCCzMeb4NOaY5y5JEmMQ0OIX8WoO22jDyOWcvFeHHid7yXw/+P7ragncF/zockS+Vu2Zv00YglmNImZIswts/LHGeIdJDZQArMHOxXFs9m3p9/vS6/V2qhCQBIgEY6xFPAt4/hg4IlkVY0aFD0AU1rkGePr6+H+AhSzLZDqdytXVlVxcXMgnn3wit7e3ppfKaDSSTqdjejVwi3XkGwEwgJ0CqA7DUG5ubuTi4kJc102SJFklSfLY933/X//1X0vAUEop/z1IGIZpvV5/HIbhX3me9/5qtfqfbdtuN5tNCwoQFHatVpPRaCTHx8dmB0n0jvc8T1arlTx9+lRarZa899570m635fj42PSFv7y83PHYdHwVSoypZ4xB5N7bgUdiWdaOV89GUStEKD5O2mKPlsej48ZsrBiAwEsEHVyr1XY8ez4etvsuYhveRjB2vja+Bo7bw7iL3BsvNmD4HkAOrhWNumzb3il3RZIcMy8AWAwY+PgaEDDIKDLuPE7cRzAnuusjzwmukV/7oqBBRHa6JbJBhveO+UZXQt4cDWwTrgfr3fd9WSwWcnNzI/P5XNbrtWHhxuOxpGlqNkjDc+L7PpIAzZrHZk6NRsN46Joh4FJIzt1BJcu+kA1XBCEsCfbJ93159uyZPH78WJ4+fSpPnz6VLLvbQbbf75v9IGzbNiWVCEXyWDBHDPo2m43MZjO5ubmRzWYTb7fb2zRNnyegH7+ElIChlFJ+QfK3f/u3+Te/+U2vWq3+k+d5f++67kMRebdWq9VQlWBZ1k5Dp9FoJO+9956JYSKmmWWZzGYzmc1m4rquUW55nhtFicQmdHCEMYd3pMMCOnyAMbBCh5GBQiwyygxCYIiKEu2KDAyzEZwLwEYZbIf25NDzQUR24v375E1CFTDsOD5yELhBFpd8sqfPRlmHDTqdjkwmE5Mfcnt7a47NxhiNtHTFAI5bFA7hsb/q+hlUcKiFW17jfJqZKmJsivJIis5Z9D0uP+UERz4ue8ibzUZc1zUgW5e4BkEg8/lcLi8vZblciuM4O7+RTIwEYyTcIq8EVSywoc1mU3q93kt7lXDIiMN/WMd8vQwwce14pnCM7XZrtp//6U9/Kk+fPjWbxKEqYjwey9nZmVQqd7vXTqdTuby8FNd1TUgEuUvHAKf2hAAAIABJREFUx8fS7/cNEEG4EmW7URSFaZpe5Hk+3W63u4kwX0BKwFBKKb9A+Zu/+Zv829/+9qLVav1do9H4hogcVqvVUaVSsaHsjo6OjGLqdrvy9a9/XSqVivzsZz8T3/clTVNDm7qua/aTQM+Fb3zjG7JcLuXq6kpc1xXHceTo6EgODw9NGR+Sy9jzAACAwtbGiL1teLjsZbGnqqsc8AODif4R2uvi0InIbu4AQiwiYhQ6t0+GJwgBZc3ePx+TGQR9ffw6DDlK1lD6B2PCfSZ0MiFXQWDe8B0kq263W2m1WqadL+YGgMD3fZPMhi3MMY9IYuWcA5HdJkA6D0EzJ5rKx9oo6sfA88fCRv5thUMMoM4ZNMEAY+fWzWZjAAHWJoAGAzeuGBARWa/X4rquXF1dyfPnzw1dz3kUoPTBqGEPpna7LYeHh9Lr9QyDhbEzqBG5z4XgLqB6XTF4xtyhauHx48fy+PFj+fGPfyyz2Uw8z9tJnD0+PpbJZGKSIZ8+fSqPHz+WxWJhrqnb7crZ2Zl88MEHcnJyYnqkuK5rEpl9309FxMmy7LM8z1dpmn6pcIRICRhKKeUXLmEYpmEY/jwIgr/Osuxd27b/Q6VSadm2bbXbben1ekb51Ot1GY/HkmV33f+m06npGY8Nic7Pz6Xdbu/0XHjvvfckTVO5vb2V2WxmyvJAsbIHD6UHL1p77pxrIPLyhkOsCPXffAycD4Zc5zZoBYq/+VgYB7xIHBcAgvd2gAepaXQeH3v+DGCYjkfXQfSkQI8AzeBqD1wDEnjwOC4AzmAwMHS6iOwkUkLJT6dTaTabxnCCPcE94yZgIrs0P3vtmK99oQYcrygvgj9X9NoXDf3gu7xXCYAWe+TNZlOSJJFOp2NCBwBu+Ay+j/j9eDyWMAyl1WqZzd0QtsNnmakR2W3/nGWZ1Ot16fV6MhqNTMdNnI9BmshuTwnuq8FggkEsflBue319LR9//LF8/vnncnt7K57nSZZl0m63zU60zWZTWq2WuK4rs9nMhC3QHRaVTKenp/LBBx/IZDKRZrMpYRjKxcWFzGYzsJTbPM8vkyT5WZIk3k9/+tMSMJRSyn9v8nd/93f5t771Lde27X9stVrvW5Z1UqlUHlmWdTAYDIwhhNLqdruSZZmcnZ3J7e2tBEEgFxcXxog9fvxYoigyJVaNRkPOzs5kvV7LbDaT6XRqYpposMRUKBsRLmfUYQtQriL3+QYi9yEIBhD4DifRwYjqjZd0OaL2MPlzOLdlWcZQwhDDkwYjgAQxGFIen8h94iJ7gjxeblOMHhgIR/B8FYVZ2EDovhIissOWcE4DvFqcG701IEEQyNnZmWnCxYluIvfVL0z1s/HVeRUMHPA/575otuVN5IsAh6IkPWah8H673Tb3JMvuyoI3m435G3F7bLKE+Vyv15LnuTiOY0AlcmFEZGcjJzAduL9I9h2NRnJ4eCjdbtfsJaEBoshu51KsGc1CoIOryB2DtVqt5Pr6Wi4uLuTzzz+Xq6urnTAHNpDqdrumeReqp87Pzw3bAgZkOBzK6empvP/++3J8fCwiIovFQp48eSJXV1cSBEFerVbDMAyfJEnySRiGX2g7ay0lYCillF+CfO9738v/8A//cGZZ1n+yLOvrtm0f2bbddxzHXiwWhgKFh9jtduXBgwcynU5ltVqZ5LkkSQxt+fDhQ6nX6yYhCqyC53lyfn5uWlCjjTN6PiDuj5gtjA8UJos2hvyZIkPBbAQrTWS+c/yc49QaSGg2A1ntACVcmgpjjzEC7HBPCCh1KHbkCMAjhOHE+7xbJPaD4PEArHAIh+cH4ykKXyDmjFAUvEqUyPm+LyL31PzBwYHZupjZADBDGJdOzsM9ZuZAsy24PjAWev5/WYKxcikgDDt/Bt5+nufSaDTk8PDQsAxgKdCbBMAjSRJxHMeE75DrgrWPc6AFOrd/RiULtoYfj8fS7/dNWIjnTs8rEikBVrh5GYebUF6LTq2r1cqwCmDkcK2c6LharWQ2m8l6vRYR2QFVYBoHg4G0Wi3DiCF/I47jTESWQRD8m+/7157nfeHujiwlYCillF+S/OVf/uX2O9/5zqfb7favROTrIvLvb29vm41Gw0IsFwmQ9XpdTk5O5N133xXHcWQ4HJo67dVqJfP5XH7+859LtVqVIAhkMBhIs9mUfr9vtqCO41hs25bJZCKTyUT6/b6JibNhYQaiiFbnRMCiigf+YcPKND0bUgYM/B1tACEw9jgGDD0UMpQj2IMoinY2ygI9z5tswRMEcMA14vjczIfHw2EdBgx8XWBA+Nr0nCAR0rZts3FQnuc7JX4AeYvFwpS86mZE+r7pfI2ie4RrZSDD1/i6REZ85ssI33tcZ61WM0wRxo6SY8TpuSMkg85ms2nyIXD/Z7OZHB8fi23bBizX63Vj1JGAyjkNWZaZfImrqysZj8empJHXMrM33DcDRhr5PvV63bBgQRDIcrk0hn82m0kYhlKr1aTX65myyVqtJs1mUwaDgbTbbRG5a9C0WCzM+mi1WlKpVOTw8FCOjo7kwYMHcnR0ZJqpiYgBMC+elyRJkgvf93/ueZ4bBMGXDkeIlIChlFJ+qbJYLMJOp/NPlmX9tYiMZ7PZo4M7saAABoOB8awePHggnufJs2fPjCFCPgM2p9put/LBBx+IiEiv15NGoyHL5VIuLi6MAgNdirgsFBmXeonce6RMvetcA1acnDmO9/EevlvUH6IoeUwDFj4WxsQ5Etzoh0MKQRCYfTXAMmRZZgAC9+BHa2qUjjKogRFgqlzkfjMqHJdj1nx9fG08T2AOYCQxbjALmHvQ5QyoON6OOQQoErlnWIoaFUEYCOFzDCD5On/ZAi+Z9x/h0Ah73M1mcycsBgOPOQBgAPU/HA7l6OjINNHCMZBsCAOMcAfWGpILLy8vTQdWhCk4xIPzcqO0NE3NPi0i/5W9N/mRLb+qhdeJLiOjj8hoss/b3+rdFGVbPCT8PUCFQWCEYMAABkwQhv+CAQMbGCAMEmYADCzxSUb297Apu/y56vEAY4xd3e3qdtlnRkbfnSZO9wb3rp07zs3i8UQ1t0xsKXWrMiNP8zsnf3vttdfe+7SxE0ujT05OpHrDNE2kUilhF6nBIVtItoBpqk6ng8FgMKNxqNfrWF9fx+bmJur1+kwJNN/Nhyk727Ks+5PJ5N5wOJzev39/DhjmNrfH3V555ZXwxRdf7Liu+z9c1700Ho9L3W63mkwm40EQCE1NJ5DNZrGxsYHnnnsOpmlKTTUjlk6ng3w+j2KxKBtioVDAZDJBr9fD8fGx5L3b7TYajQaKxaJEM5pdAB6daghgJoqi0+aGDWDGEUarLKJpDDokLb48KzoGZnsf8Pv69zSgoNMOgkDEYByERcdOZmIymQhQIJsQLcnUlD5TN1HQoNdMf0+DMM0AaBo+DEPJp5dKJQwGA9E2MCW1vLyMtbU10apEu3VqZ8/1ZmQbZYD0/2tQoUFIVEvyfhjBl242pN8xGq9Vp7CiYIhrT4aOguIwDMXB5vN5uK6LQqGAbDaLbreLfr8/M8SJz5qliJ1ORxgMvT7UHWm2hzqT8Xg8k7rjbAg9/4HvgE6fUXfUaDRQLpeRSqUwGo3QbDbR6/UwHo9n3pF6vY61tTWsr6/PzKUhUHjIuAWO4wwdx7nhuu6R4zjvClgA5oBhbnN7z+2ll17yf/7nf/5+Mpn8qmma55LJ5I8nk8lsEASG7/sSbZBWr9fruHr1Ko6OjtDtdkXw5Hkeer2etIwtlUqyKXKgT6/XE/V1s9lEs9kU+pNNXhjp6ihN06x6U9QRvnbkZ31Fc776mPy+FkzyeFGnFY3so4Iz4DTi5IbNvG+0YoAMhM5fE9ToKJ1q+GgJqU6vRK9NO2r+jmZeeG+8B31tjC7pNCqVClZXV7G1tYVcLidrpatYNCOjxYtsG6zbFmudBa9XsxUaMLwfzAKN66G/mCLSXROjwFKvu34H+NyYpigUCgAgwshSqQTDMFAqlYTNOzo6QrPZRLfbnal2iMViaLVaODk5QTablS6jWiOi33deg+d5AkAIQgjgB4OBaGmi7yWfRblcxtramrAh4/EYe3t7whQyvVIoFFCv17G8vCxpE6a4dMrFtm3HsqwDy7LesG17cHh4OAcMc5vbh8l6vd50cXHxX23b/moqlVqZTCaXAaSZTshkMiiVStINrlarYX19HScnJ2g2m7AsC6ZpYjKZoNPpIJPJIAgCSWeUSiXZ/AaDgQirNFDQPef1wBq2Y2ZUxamJdCzM1UbTFnT80eibUS2dkU4jnFWGGRU96nw3f85zkR3QESd1CAQpdCCaomVXvqjynU7Zsiz5vqb8+XP9u1HBIa9DAyQNPngsrgPzzlwfPr9arYaVlRU5J8WX2onyvnUVBCNkVhFw/eiIyU4wDUCQeBbYe68tWtnBNYjqBPR9RpmgKItC9oTdGoMgkHedvUmCIEClUsHS0pIIIUejkThzACJOPD4+ljbljPp1i2eCBAIN3/cl9TUYDOT77PGgG3/xPHz+7Pi6vr4uf7u9Xg/7+/sCYnjPvJ5CoSD7RBiGUkbKQMFxnLHjONds2775blVH0OaAYW5zex/sn/7pn8IXX3yxl0wmv5VKpS5ZllWNxWKN0WgUI2CgaI+iqI2NDYxGI3Q6HWln6zgO+v0+FhYWADyIcBiBcFridDpFu91Gv9+HYRgSyZK25VexWJS++/zK5XLSN4BOCDitXdfphag+QTvLs9o/A5gBB1GGQoMHrZPQjETUsfFYjNoYyfNcuoxSMx80npOlrgQ63JB1Dj16Tl21EY3SeU+k1LmG2vQasetmNpuFZVkzQ8Q0GNPgRAMLRqwaDBCc6Zy//jnXiI73vTT93PX6RNmnsxiPswSommnh8RYWFgRIEzwQFBP0sk8JU1msQOAadjodHBwczLx7BB18DrZti5Cx3++LoJYsH0Et+zlE33eCQP6tsSEbA4Ner4deryf6BjIRuVwOlUpFBlJxTSzLEsDgOE7ged6R67rftW27OZ1O31UkOAcMc5vb+2QvvfSS/9nPfnY3k8n8f5ZlPRuPx0v9fj+dzWYNUpPcINLpNDY3N2EYBvr9PobDoURAo9FINh3HcYRlSKVSKJVKmE6n6PV60seBmyodCL/f6/WQz+eRyWSErmVDGAoDqc4Ow1A2KR19a+odOHVkVIrrHD+BAB0WHZVmEjS44O9EgYk+t2Y5dI6fx+dneRwdsTHKZU2+ppWXl5dlCJZmEaKgRV8jf64BRZR5YdSsRZu62oNVHJo1OAtM6e/R+bG/AxkSpiqA0/kDCwsLMwJKvbbvtvG4GvCxjFU3o9Lrw/+Oamo0+Ix+8TNkGQAIOGYTJOoaqHkggArDUFozu66L8XiMg4MD0QxZloVarSbNtMLwwayGwWCAbrcrZZJMjVBbRBZJg2HadDpFKpXCpUuXcP78eWxsbCCfz2Nvb08aVgEQVpBsYLlclo6uvHYAME2T3WBDAE4Yhrc8z/uhZVnWzs7OHDDMbW4fVptMJm4ul3szmUx+C8C5MAw3B4NBip3dGJUkEgkpreSsCX6xlbDOxVPYWCgUMJ1OUS6XJeohO8CRuFp0RXHgcDgEAJmqSJV4EAQz6QlGOzp6jW722qHqCFYPvqLz0A2maNEUB43f04BFp0m0qO8s9kIfRztd3h8Aie7ZQEcPR9KOTx83miLhOXQjLH6PugNdysn/J2DQUTP/1c5dH5/P5ay+EbovgJ7loEcsR5/ff9aiz16zPKxIYGqNfRj0PUWvSQMO2lk/18Ax2iCK7znXpFAoYHV1FUEQSNOsIAjQ6/WEwdPX3O/3JarXvRV4HwBEg8QeEVFwHWV0stksrly5gvX1dZTLZQCQPhKTyWRmuBSZBX7l83lhSZhaGY/HGI1GXhAErTAMXwuCYNdxnHel94K2OWCY29zeR3v55ZfDz372s30A3/I87+npdFpIJpPVRCIRq1arMjGP5ZLFYhHnz5+H7/toNps4PDyEaZqwbXuGzk4kEqJNqFQq0h1vPB7Lz8hgcEMFTpsF6RLF4XAoeV8qu7PZrDgmKrOjmzj/1VGwNjo1OsjJZCLRbvR6NOWs2QWtG9CfiZ436lx1NK4ZAwKZTCYjgrPxeCw18br5z1nXQ8erz6fZC4IJfp9ASWtCCHwIGsgQRPP6wOyAI4IdDex4Lfy5VvTzXpiaoEjy3WQXotfq+/4Mc8I5ERToaeD0TsAlCiDPer+4VlwvLarkzymqJBMXi8VksBvZBU6LJeNjmubMu89j8W+IAIRpQab7AMxMs9Si4XQ6jWq1iieffBLVahXpdFrawjebTfT7fWn2xcqIzc1NbGxsYHl5GYVCQSp5KHh8CF5s3/fvAXg9CILxvXv33nVhyhwwzG1u77N99atf9T/zmc+8ncvl/l/XdRvJZPK/pVKp3MnJCQqFAmKxB0OpDMOQNtDJZFLG4DLlYJrmTCOcQqEgFRdsYDMYDBCLPWgaVK/XhYng6F+mDhjxARDWgZMV9QapqX86zyilTaemKyV0oxs2pRmPx8Ko5PN5oZWjXQijKYCoUBJ4dJomr0OnPPizqL4CgIjcOItATztcXFyc0TDwfDrdwu9F0yPR9QnDUNaWDoVAgjS41hhEr5P3QHaHz58/j/bV+PfAgj7Pu2X6memhXvqL90nwFAWf0bkZZ6V2osBQV41o5scwDEn58By893K5jHPnzsEwDGHZCBrDMJRr1cJTvg+sUmB3Rl3mTEBNtoqgiWBwdXUVGxsbuHTpEpLJJAaDAfb29rC/v49mswnTNKWMslKpYHNzE1euXMHW1hYqlYq8jyy57vf7mE6nYRiGo+l0ems6nd7zPO8/Pcr6LJsDhrnN7QOw8XhsJRKJf06n02u+7686jvPUcDiMsz6fzjiZTMqwqgsXLuDq1asAIBscnT2Fk/l8HqlUCrlcDr7vi6aBToniKW506XQavu/LZs6++Fo4x/QDN3IdQetmOjTtNBgF87P9fh97e3s4PDyE67qo1WrSDldTzNEZDsDZ/Q8AzAgjo7/Dn2sHYxjGzFAs3g+HI8ViMWFamAfXAkd9TB3xa0emqXLNRlCkNh6PYdu2XC9L8zjCmLoK3caY967LPOkUyQhxHbQTJr3N+4vqGPRzi9r/LaDQYIGUPRtnkcqnAwdOhZ9aA6IZm6ieRT9/nk+DBb7jZ6Vpou8I035aOMpeDHrqKOn/MAyxsLAg3RZXVlak2RLbsTPtRg2QHj0PAPl8Hpubm9ja2kI+n5cKh5s3b+Lg4EBEmGz/zHkRly9fRqPRkPfT9330+31sb2/zet1EItGaTqdvOY7Tejd7L2ibA4a5ze0DsH/4h38If/Inf7KXz+e/5XneU67rrgyHw3Kv14un02kMh0NhDuiwzp8/j263i3g8LsIoziIwDEM2LpZdZTIZFAoFiZjoZNhVksNuDMOQFsq6dbLOc+tNVztB2lklcbqcLwgCDIdDHB8f486dO9jb2xMHpp02nXlUFxGNMqNOlPqAdwIZUeNnda6f0ePCwoIo6Fk9Eu1vEHVaOu2ggYTOnXN92IWTpaB0sOPxGP1+H+l0+hEnp58Dr0M7VTqR6EAxAjuCEDq1aGfIfw8YRO/v3/usFjYSAA0GAxEQstRQl6hGUz1R5kprUoBTUau+bq1j0dUi/Jk+F9M/YfigH0atVpP12NnZQTKZnBEekllj+qpQKKBarUqzJT0Mi6CS8yzi8fhM06ZKpSLdJOPxOIbDIXZ3d3H9+nUcHR0JC8FhWCsrK1hfX8fa2hoKhcKMYHg0GuHg4ACdTge2bdsA9mzbvm7b9uQHP/jBHDDMbW4/Svbqq6+Gv/Irv3Lg+/5XPc97ejKZfLLb7Wbj8biRTqexvLwsDjeRSGB5eRlPPvkkwjBEr9dDGIbY3t6WaoTBYCB0KIVUnP5HYzSnh/jE43Ep6fM8b0aMxmiWEanOxeqNmP8PnDozCuxisRgmkwmOjo6ws7OD7e1tHB4eYnV1VToVniV2005K17LrNICm+6MRpXZ0ulJEdxbU59aljQRidOwEDXQ40TRDNPXwTvdB+luXe9LBDgYDqZAJgkCiZK3F0KkRfe36+BpkMBVB8KkV/NF7OMv0O6AB1r8HxAiI2DKZJcHUK/Baz0rXRN+5s9ih6HVoIS/fA4IiHu+d0jqJREIqgTQQ7ff7sG1b3gddWUE9ECsWWMKpn9d0Op2Z8UB2olarSdrQNE20Wi3s7e3h7t27GA6Hol3QI7epp9GppzAMRXcxHo/heV7P9/3bo9Hovm3b70k6ApgDhrnN7QO1fr/vLiwsvJZKpb6aSCRWe73eRd/3U7FYTBTeVEVXKhWEYSgDmABIf3xd6QA82FDITnBzDMPTgUw8DnPgCwsLsmHrZke6m6Bu4qQ3fH1OTdHTMfm+L3nanZ0dnJycSASn6WM6u6ioTQMFvamfFfnq9ESU8YiCCBp/j5MAmXenlmE8HouzZfkcnRYwq5k4CzScFcUTeDAidxwHw+EQsVhMwAlTRlGtRlTMGBVW8rp0moXPmO8Un5O+7uj39M8IcPheRqta+DlWDzxU7UtbZM1+REWreq10JQqBA5+7fjd08yfqa/QAML5XZ4E5PjMCNvZMaDQaAmDb7TbG47EABv4tEdDpviU6lUWGg6kX27blb2dpaUmYAgBoNpvY29sTAG0YhjBAnG5aqVRkpLUGrFpI+nAY26Fpmm9altV+tyZTnmVzwDC3uX2A9vLLL4c/9VM/NXBd9yUAzyUSiSXf92vxeNzIZDKyYRYKBWkjm0gkpE7/8PAQ9+/fF8qXG2bwsOEMS7x0XTk3cvbdZySkf5c5XX7pDZ4pCx3tcaPXkSgjPja6OTo6QqvVkjp06gN0xButYqBpIZumZaOf0XbWMaLpDYIPbuq89+PjY+njz4mi7KJIcBONIKPpGq6PBjCaISFjQwqbra1N0xTVfTqdnmFfNNtA9oCOhO+EBkBcX73GZJw0cOBzjqY09HMl66GbP+lj0JFp0MDR4dpp/59YDX2v+p3Sa6g1IbxXVtpwbXTKSB9bgyOdOlhcXEStVpO/M4oPCbgIGMjO6dbRUVDH4zO9lslkROyYy+XgOA7u3buHO3fuYHd3F6PRSIACn1uj0cDy8jJKpdLM34dt2wJkPc8Lp9Opa1nW9mQyuW6apv3aa6+9Z20754BhbnP7gO3b3/528LM/+7M7pVLpG5ZlPRWPxwvj8Xih1WoZiUQCxWJRaFFu/Jubm2i321hbW0O325Uad8dxMBqNZAOjGIsDkAgWBoOBqLCBU3o7WobHDZKggZtslAUATqM2AEKt0gkxWrcsC7FYTASa+XxenGNUuwA8OoI5SlFrypmfo+nvaUerhYSasTAMQ0aGJ5NJmfzJrpjValWcE++R962drI7O36ncT7MkdCyMFieTiTh6TmzUzls/Kz0/QgMLnodry2tm7l4P1+K5o6CBIEEzD9HeD7wHAh9WfzACPmuIl7aoM9dfUWGjBhy8Pv2Mde+DaBpDvwf6GLw+AgxWD+VyOelhwvtlGSUBky5/PeuZ8/6TyaS8P8ViEWH4oJ3z7u6uMG58bxYWFpDL5bC0tISlpSVJYeg0ENko0zQRBIHveV7Htu3bk8nkwLZt//+w3fynbA4Y5ja3x8COjo7cUqn0r8lk8tV4PH4unU7XB4NBgu2eudFxk+YgmvPnz6PT6SAMQ9mgWG5pGA+G7miwQeFZq9VCPB6X3gwc5aujN25QmhLmJgtAHDyAGeeiHRqdT7SUkNUaBDS6AkFH6TzeWUCCjhaYneOgaegoqNHOT9PvQRBI5EjBqGEYkp5g9YjWSWhang6TP4uuCe+JDigqVGSkS/EpgWG0aZam46O6Dt2QS/ch4Gd4LqakWPLHtFNUNKm1HtH3T3/xngk+9O8Dj4K4sxgkOt6osFW/h9H3kefT74yepREFGu9UNaF1OTrFwZJf3VxMA0YN+DTA4fOkGJkDoyqVChKJhIy93tnZwf7+PgaDgTBYpVIJ586dw7PPPou1tTX5++Q9BMGD7q4q1eP6vt90Xfe2bduD69evv6dDQeaAYW5zewzs9ddfD9fX11vpdPrlVCr1Qj6fL0yn0xzFYtQRcJNKJpMolUq4cOEC2u22dHwju0CKu9vtAnggfmR0xJ75QRBIWaMW22nQoNX2jM51l7no5msYhjjE6AYNYAYEkOqNtirm56KsAjdkHpMCTQ0WGGXSWfFY2qLHodMAIFE9B3DZti1A7J0Ag06XRNX/Z+kmtCPnOlI3EovFMB6PBSRo4aimwPWaRZ0rr0UzIBoQUGipNSpaFKqf51kNuqKMjX42GgxoZxqN9rVpIKCBXlQMG9W18DwanERBDO9LH0+nkLTpsmGm1Pg3p0GKfv/0OjA1xNRfGD6owlhZWcHq6qqkIprNJu7evYuDgwMZGEXxZa1Ww8WLF/Hxj38ca2tr0taaRvCtqk5cz/OaruvuOY7zrg6aOsvmgGFuc3tMbDKZTIvF4lumab7qOM4Vz/MWHceJs5bdMAyhRROJB8OmNjY20Gq14HkehsOhzI4gC9But8UxsRER1dWWZaFQKMiGW6vVJI8addbRKFk7FBrBAmv++TkOxNKOKSpcAzADOuiQeT7+NzduRsqsDCGdm06nHykZ1CkLfX7txPh9PfYbgFDrvE8dCetUABkSTefraFoLJPX9cH20DoHNf7RYMdrSmykmff6z1lNXhWiAoNmFaB8Erp0GDny++me8L31OzfJoxom/p53+WZoPzWTpNdTMg37f9LVp9oPHp4hRszK8Z8uy5HnzSzNiLAfmGutzaq0On4thnDYmcxwH2WxWKh2oQep2u7h79y5++MMf4vDwEOPxWISX8Xgc2WwWtVoN586dk0mZet31fU2n03A6nZqe5+35vt/09B/je2RzwDC3uT0m9sorr4S/8Au/0FtYWPjH6XSLUCGoAAAgAElEQVT63x3HqTmOkx6NRgYdoy4dKxQKWFtbw2AwgGEY6Ha7ODw8lPI1agf0Bqd764/HY9y5c0dKBw3DkL4MjGCB2XK+aNQHnDoCOlqq8QFIKoKlmtoB8Xf5r47EtTOOOljeD6lZngvAzH/r40f/X1PIWntABwBgJhevQQdNAw4dFUe/p//lV5TCJpNB5oWOjILFdDot5X+6AkA71agugmtOoECQoPUWdJ76GfxHTD83Hd2/0/f1e3LWMz+LQeI7S0cf/blmCDRY4LsZbQqlhabss8E1JbPE7o5aaKn7kWgwREaLf1PspdHtdpFKpdBoNNBoNESDYNs2ms0mbty4ge9///vodDpSPkqNBNvBMxWh37Xouruu67uu25tOp7dd1+25rvuezyifA4a5ze0xstFo5JfL5bcdx/mh67rPTKfTlGma8fF4LIIpAOJYisUiVlZW4Ps+9vb2UCgUMBgMZtrhjsdj2fBKpZJEMolEQihSbkjsLsdBVZrK1TlpRnRnRbn8OfsLsOOfpnDprCg60+eJRp16s+aXrosHIKkJ3ZWR54mCG30P/G8dUWsRYjRoo8Olg2LKiIO0NKjQ6R3tKDX40iwMndRoNJJySvZQYMtwPaJa6wvoYDXDQWZHAwXtiHktUdFolFGIrlf05/q56LQDv6fLG3lO/Vyi6Sr+N6+Na8X1jAKbs94RDUw1q8HjmKaJfr8Py7IAnA6PIgDTzES0p4NOR+k+I/1+H4PBAMPhEEtLSzI+PplMYjgcotVq4fbt2zKVMgxDqYJJJpOoVCoolUqSDqPpvxngFGBOp9PA9/12GIa3giCY/PCHP5wDhrnN7b+SvfLKK+Gv/uqvdieTyffz+fyLjuMUHceJmaZpRPPyFA42Gg0AwPr6Omq1GlzXxWAwEAfNfCojuVwuh0wmg8XFRRmnu7u7C8uysLy8DNd10Wg0UCgURDBJR6M3cK3Qj6YwtFJcN+/hNTF65/d4TG7MZ+W7dUTJiCyfz8tcAjpdOik6Dh0V6vU7K69OoEUgEGUOtHbDMAzRjViWJX0T6AR0CkeDCa4jf6ZTAwBkzWKxmFRtUMlPgag2ggM6Og0edFmsXkeCBs0CREGBduoa9GgGRYMDbXwG+plGG15p0HnW9/Tv6GcXfRejPSE0AIzeF1kKihLpuBcXF1GtVuWaqVnR6833VKdiyCy02220Wi30+31hiFjWbBgG2u02bty4gddffx2Hh4cIgkDSZwS/1WpVRMp6TTUTw3SjaZpwHMcOguAYwJ5hGO+5fgGYA4a5ze2xM8uypqPR6M1SqXTDtu316XSajEa7ekOuVqsAIC1kGdFTpa2jV7IAnDkRj8cxGAzQ7/cxGo1kfLZt21hbW5MNk4wAz63p72hkSEfNlMhoNJKSSh6DUZKO0KPlaWdR11o/wF4OBCDa6dBRELhEv4BHWwzzPjS7wDXToINiyzAMcXh4iGazifF4jKWlJTQaDQEzvGZS6poS1zM4eJ+MVnXJIiNc0tVaG6IZmmj/BOAU/OhqFjpbfX8Ef1pUq/UH0cidx+G/GkjwHjV41MCNv69TMtEUjk5H6U6g+tj6GnXET9NgRwsymX7gOh4dHclI92q1OsNe6T4YuncF3z3DMGBZFk5OTrC9vY1+vw/f93HlyhXUajVp5cwWzm+++SZef/11KaPM5XJyb4lEArVaTVIYem24XhrMPvy76QdBsA+g5eto4j20OWCY29weM5tMJmEikTiYTqffcxznx2zbzk6n0wQ3fy0sMwxD2siurKzg0qVLsCxLqFEA4qC4IadSKeTzecTjcWlTGwQBOp0Ojo+Phd5PJBIyAVOnDHicqAIeOI3gmEMfDodC1XIkNx0THR7z9/w9DRaix6fz4/7IJjfRcr+zSix1xKrvIxpB66oCGjdrsiZse0yK2bIsbG5uCoghpawdJx21bdvSM4POguxEJpMRKjufz6PRaEj9PtMt0ZQJ34koDR99JnoN6Hg0A0KLpn80OxJ11Pxe9PeimgpalLnguhBMELzotQNmy2Z5T1H2ge+UvpYoKOTzyefzyGazGI/HmE6nMnK6WCzOlLQSLBK48J0jc9dsNnH//n20Wi0YhoFyuYz19XWZMGuaJprNJu7du4f79+/j8PBQ5kVwfVzXRSwWw9LSElZXV2X0djT1w/eHIPshYLgXhuHQ87z3PB0BzAHD3Ob22Nl3vvOd8Kd/+qdN0zR/6DjOnm3bDcuyEpPJRLo56npz5u43NjbwiU98AkEQ4OTkRKbucYOnKItiuul0iuXlZXFMZBtGoxGazSZyuZzkVXXFghZB6k1NR8few+mL/X4fnU5HxkaTWudGzhIx27YfqW7QESq/ryMt/kwLQTX9TNOAQTscDRZ0Ix6K5Qho2L1wNBohDB+MPW6322i327h37x729vZkNHgul5MSVq4HHZllWWi32zg5OUGv14Nt2zKHoFgsCjgjNU3xW7lcRqlUkjkhTL/w2dLRniUo1UAoatrpE4hpDYoGOzpNoJkRLVbkz94JYHDd9Xm1NoHvUdTZ87p07wrNVOjzAKfaEZ0u0+xLPB6Xzo2+72M8HqPVaqHT6YguiOfT68i1SSaT6PV6OD4+xvb2Nvb395FOp1Gv17G1tYW1tTXRGw0GA+zs7ODOnTs4OjqSHim6ZJlVEpVKBaurq8JM6PeVn3vYyyT0PM97mI64HQSB/eqrr84Bw9zm9l/VXNf1PM+7N51Ob9m2/fRkMlkkta8FhrRkMomlpSU8/fTTaLfbuHbtGg4PD6ULJDd4x3HQ7/claiqVSsjlcqjVakLV0rl3Oh20220Ui0XZRLVGQeekddkaUwS9Xg+9Xg/tdluG+TCyIiVMAMCoKxqdasDAiJ+AQfceYLmppr21k+B1auCjnZNujESnrEWbw+EQvV4PhmEIoNrf38fR0RE6nQ5c10Umk5kZSJTP52eYlOPjYxwdHWF/fx/9fh+e50m0u7S0hHq9jnK5jJWVFWEZqInQuXVd8QA8qh/Q9x+tLomyMJp1AE77S2j9gQYF/AyPz7XU6xwVJ+r112CTx9IpgygbEr1m/XOe96xUE9cl6nC5fhrM6WFZjuPMrJ8GWnzX2MdkZ2cHu7u7GA6HuHz5MtbX13Hu3DkUi0UYhoHJZIKTkxPs7u5Kg6YgCKRMltdJJq9arUoq4yzQy1SY53m+7/vdMAzfDoJgNwzD97ycUtbg/TrR3OY2t/+4OY4TTqfTjuu6b1uWNUwmk+XRaGQMh0MZwxzN21LMuLq6ikajgUqlguFw+Ai1zmFAvu+LlqFSqWBpaUkofjrxVquFRCKBlZUV6WmvqyO4uTJCNwxDyh2bzSZarZboIsguMKIuFovI5/PS94HHI0iI9hTQqQngUSaCTipaPcDP0Hh87cg0AIv2LrAsC/1+H81mE7FYDKPRCIeHh9jd3UWn0xE9w2g0wvHxMZLJJIIgQKPRQC6XE1U+KWnOqQiCQFJJjUYDGxsbWFpaQqVSQTablW6TWhOieyloJ6w/R+eiaX597zrC1Y6WqQH+XvT9AmZFie/ECvDZRNMPZx0rmvLQ7wHvheCUrBKPz+fG+43OnDjL+FndsEqvmX7u0fQK8ECQ2mq1BCxQu3LhwgWcO3cOq6urAioPDw9x9+5d3L59G81mU0Axq1xYrVStVnH16lVcuHBBRtPrNeJ1s3+KaZqu4zh7vu+/GQRBOwiC94VdAOaAYW5zeyztu9/9bnjhwgXHdd1dx3H6pmmuTSaThGmaBtX72nS0mM/nsba2hpOTE7RarUfEhNQX9Ho97O/vyyZZq9VQKpVQrValN8NoNJL/dhwH+Xx+puSSx+X52Xa62Wxid3dXBIHxeFx65DPHu7W1JdH0wsKCOAY6QB0FR8VyOgLWkauOmLUok6adq65W4PcpxmQE7/u+pCAYYZqmiePjYxwfHyMIAumUGYvF0Ol0ZN06nQ6y2SyC4EHPi4ODA7TbbQFx6XQapVIJGxsb8sUyPO0o6cD089OaFJrWBGhAp502HTQdLTCr/ue/es11pK+ZGg0K+A5EmYiovkE7ZV6vTuFoMKSvJyqMpRZHT4kkmOI1arZDM0jsw0AQy0oFvids1BWGD6on+DxYgnzjxg0cHBzAtm00Gg185CMfwTPPPINyuYx0Oo2TkxMcHR3h2rVruHfv3szoat09cmFhAZubm3jhhRfwyU9+EvV6Xcpp9d832a7JZIJOp4Nut+uMRqNd13Wv+74//trXvjYHDHOb2391833f833/2HXdrud5fhAE8vf6ThEU8IBpqNfrEuGySgKYpVmDIJCNjM6wXC5LHTh1CI7joNvtIgwf9HSo1+viJLVDp8jx8PAQh4eH2N/flwic5YFra2s4f/481tbWsLy8LJssHTidgXZwNO38zqLLoxT4WZS4jrjPEu9Np1NMJpOZYVuWZaHT6UjUzkgvCAJks1mZuslo1bIsmcrJ87BREI/NklACqLW1NVQqFRmhrSsg6GD1dfN7jHyjQCvq7KNMRFQQyM/qtdYVClq/otdfP5MoU0AwBpzqS+j86KxjsdOW15pN0hE+o2uKYwk2crmc9C1g8yQAMx1FNcOkRYz6GnjtwGm5JTVCemhXr9fDzs4Orl27hmQyiUajgQsXLuDSpUuo1WqIx+NwHAdHR0e4f/8+rl+/ju3t7ZkGTVpQWS6Xpe8JBbMayGlmybIsGRlumubA87xbD9MR70s5JW0OGOY2t8fUHqYluq7rtn3f9+PxeJhKpQxS51HQwI2cvRnW1tZECc4NVEemzN8yB8+oOp1Oo1KpiEPq9/vo9XqYTCbIZrPwfR+VSgWFQkEcHEfuHh0dYXt7G3t7e2g2m9JEKpfLYW1tDRcvXsTVq1elt34ULGjRHfDoxEcdzUY7QPLz0Ug5yq7oCFQb0zW6hwXTCdPpFMPhUBxIGIbSxrdcLiObzYoT4uebzSZGo5EANpbo8RkRLKyvrwsI08wGQYtmSehACCj4LuiyTaYbNEjkNfO+9RrrJlf8vGZq9PepQdFONsrS6OfB95KfZ6prOBzKEKxsNivtvfXvR1kfsjNkgGq1GjzPw8rKirAUfE/0devza9DFaiB9TjIPnucJwCBrtre3h+3tbezu7uKJJ57AxYsX8cwzz2B9fR3ZbBamaaLX6+HOnTu4desWbt26hb29PblHAgayI6VSCZVKRTQvWqSp15wg9uGk2dCyrLbv+zeCIOj95V/+5exAjPfY5oBhbnN7TM1xnDAMw2EYhidhGE5jsVg62iKXpiMpMgwrKyszo5hJg+rOe/7DnvqMJum0dTSWSqWkM954PJaIx7ZtGY7DHP/BwYGM7CVYSCQSUm527tw5bGxsoF6vC1DQFtVbMG2gFe50UFHnpzdaOsOzxHrv5Ehc15VJgqZpynrRaXHOA0sg4/E4VldXUavVpNkOmy5R8DkcDgWwGYYhHQWLxSJqtZroFgjEWG0BnJbv6fSEpvR5Dxo46TQRfydaRREVQGo9h2YFzhINaobhLKYiqmOg6XOQ3mffAuo8yDLwPnkvrKTpdDpotVpSYTIcDiUllM/npX8CGYqofkMzM7yXVCo10zDLsqyZ4WoEJ3t7e9jZ2UGv10O1WsXm5iYuXbqEra0tlMtljMdjtNtt7Ozs4Pbt21Ju2+v15J3RDaBSqZRUwERbQOv3lO8E+6q4rusAOIrH4ztBEJy+LO+TzQHD3Ob2mNo3vvGN8Ld+67cmYRgeAbANw8jFH9jMRq6dJfOu3Iwo5iIIADDjfHQr4clkIvXk0+lUHKMedDSdTnFyciJpCjIE7OHQbDZxcnKC0WgEz/OkfK1er2NtbQ21Wg25XA6pVGpGka6dj3aQ2olpYaO+d1o0tx4V4mkHys+Tqg7DB+PBT05OsLe3h/F4jEQiIZ36yMBkMhmp4U+n02g0GqjX68jn8wKeptOprAcBB+d9kIIvlUqo1+tYWlqSNWR9PStINLDTw7sInHRTJzIMes2iDIEGWFqhz+j6rLXh+vLc0YqJaNpIgzB9HQQoLGnkunDNTdOUxlS8F76vrGDo9XpoNps4Pj6WPiOe50mXRh6X76m+Xl6DfuepKeD/E+wRMBiGgeFwiMFggP39fYxGIxSLRTz11FO4cuUKNjY2BOhxAuXNmzdx9+5dHB8fYzKZzKRqNDvEipp6vS5tv/Ua0vjsVTqrC+BeMpk8TCaT70uzJm1zwDC3uT3GFgSBFQTBQRAEY9/3S77vJ4IgkB0lSq+TEcjlcsjlcjOUK1kDOgaOVOaGSQdOBmFxcVEqL+icGCVxE2czGfYlGA6HMjeCDYnK5TLq9brQ94uLixK164hWR7n6S4MFOlGt7tc5dTrJ6O8xwmbDI0aYFMP5vo/BYIDDw0Pcu3dP5m8QNNGhMprN5/PiqFjVUKlU5Po4oZDpGrZuJstQKpVEZMrza4dNQKBLAbXT5nUTCEZBJNdBMwy6fFGnL/gsNJvD70eFo2exEPw3+hVlNXjdi4uLKBQK0np7Op2i2+3KO6aBqmEYpOKlCRiZBtM0AQBLS0s4d+6cCEZ1Cobn1FoPXVHBvx0+J93fhKkIAuBisYjV1VW88MIL0mApCALpx3Hr1i28+eabuH//voAZAjoAUk3Dv8Xl5WUsLy8/UkYZ1TA8ZFPCwWDgTSaT5nQ6vQag+341a9I2Bwxzm9tjbEEQeEEQND3PG9i2vcL8uHaW2qI5ftK03DiB02Y5OuLUojrmiw3DkJbE9Xod1WpVgIjruhiNRqJvaLVakoKgs4vH4xKRl8tlqYbg+bSDVPf7SFRKFoD3pJ2hFtzpCY66tJLrpOl0ahToOKfTqaRV9vf3Je/MNs9cQ/ZFyGaz0reCTpUpDB0ddzodnJycSGtsANJyOJVKIZ1OS+Sr7xeAsBqWZc3MtdDporNMMzTvlM+PpjJ0SWKUoeE7o//V54qyDBqgaaDheZ68TwRKCwsLGI1GImbU/TV4vRpYamGjZVnSenw0GsFxHBHs8poIqLhmepYJgRy1IpxMyjUfDodoNpuYTCYoFArY2NjAhQsXsLm5iUKhAAAYDAa4f/8+bt68ibfffhs7OzvSY0N3IWXqLwxDqTSq1+uoVCozKYlo2ozt1QeDQTCZTPq2bd/xff86APNLX/rSHDDMbW5zOzXf94MgCDpBEPRs23Y550E7S2A2R6wjPLYbpjPjZknHrAVsWhjJoVA6z83IL5fLAQAWFhbgui6Gw6E4BAASHbLnAp2rblaj2YSznJOOinXDKJ1K0UJJ6hDYZRLAIywE14SUs3Y+pLwZUTLSZDtmRooagNHR6uvh9bP9NhsyTSYTHB8fIwxDEb8xr61z9kxHAJjpgknBoXZ+UQYhytBE9Rz6v88CG1HNgv43Wh0R7cqpjxH9bJSh4HvB0d0U5jqOA9/3ZSKnBoiG8WD0erFYlNknAKQLJ3U4Ggjp1A3XjWtGISFLKKm14boTCBPkbG1t4YknnsDly5extLQEz/PQ6XSwt7eHGzdu4O2338b9+/fRbDZn9C88Jlki9km5dOmSpCMIovWaM0U2Ho+ZfnFGo9G2aZr/4nnefd/339fqCNocMMxtbo+xBUEQhGE4BNCybdsxTTOwbTtOJ/VOkSY3bJbv0UlRAc5Nko6YEWxUP8BNnPl43/elIx0ZByrcmdJgTnZhYUFEfgQqdKrc1DWbAJw6JtLt/G+mTjgZUjtZVmqEYSgRO1MsjCj1WOgoRc0yyOPjY3Q6HYzHYywuLkr7bAIQfp65dzpqRrR0FOl0Wp5BoVBAo9GQhj+WZcnvMNXDagECBoIv5tQBSMMfRqN8RmxmxGvRrI3WKWgNgQaXvB/S5Bpo8Hf0sTTFr98X3q/+4ud0WkI7db6TnDjK56WBnU4lkWWwbRv9fl/SPGQL+Jx0XwUNGHgtZBD4Luk15BC24XAI0zSxubmJ8+fP45Of/CSefPJJrK+vi2aHrMKtW7ekKRe7gXKt2D+D/1+tVvHRj34UH/vYx6TvggZFWnvSbrfR6XSCk5MTbzKZHFuW9QPHcf4hCILOH/7hH77v7AIwBwxzm9tjba7rhgBGYRgeeZ5nOo7jWZYVdxxnJoKJRpPcLNl6mBsmN1majmy48UfTAkEQYDQa4ejoCL7vY2lpSWYfLC0tzQgRJ5PJTGUGHbOmgAkaSOdrZ6CvTXcrpEPp9XpUiyMIAhFPRgWc7DZJupmOVkfwdBzdbhcHBwfSgRGYbfDECgl+j/0V4vG4AIfpdCoOm1EyAGQyGdRqNZimiYWFBfm8ThkRSPF7PAbvi2CBzkWXDmoHr58ZHZCuqtFiRP1so4yA1gBEQYBuG83riFZJ6DQRrysqxuRn6cwXFxcFnGlQqcEdUzRMmVGYSiaG74TuOqrnltAR89142DVRej5weiqfdy6Xw+XLl/H000/jySefxMbGBtLpNLrdLra3t3Hr1i3cuHED29vbODo6Et2CThkx/cRW4ZcvXxamgjMjaLw+9oJotVpot9tuv99v2bb9/SAIXvJ9/5ZlWR8IuwDMAcPc5vZY28ON1jQMY9/zvNHDtMQCRYkEAnpz53+z5TMjWC0807l33XMgChaA0ymAw+EQhmHg3r17SKVSmE6nKJfL0rQmn8+j2+2i3+9L3p3pjclkgsFggMXFxUdSFFpTQIfxcBqfOA9Oeez1esJ6kMXgZznWmwI23ZiHx0qlUuKkx+Mx+v0+Dg8Psb29jcPDQ1iWJemCTCYjDpyRIqNdOutEIoHxeIx8Pi8ODYAITtPpNMrlMiaTCXK5nDwLrrcWXQKnLYDp/OLxuOT96YR0VK+ddTTi1+JI7fSj96CBmtYJaMFotJySn+X3tLYhmhrTX9F2zPpzfJfJFJCJ4bui3wl2MdUAgMwTWR72qeDx+VkKdk3TlFSGrkApFotoNBrY3NzEpz71KVy5cgVra2tIpVLo9/u4c+cObty4gVu3buHOnTtSQjydTgXk8B0qlUoiblxeXsbW1hauXr2K5eVl+RvUz5TsycNukX6v1xuMx+Nbvu9/JwiC7zmOM/qzP/uzD4RdAOaAYW5ze6ztb/7mb8Lf+Z3fcYIg2PF9v+s4zibrxTmWV2/iNNLbpVIJnHLJiZDcgLlxMwdMRxJlHAgs6GSZnmAao16vyzTFXC6HRCIhPQiAU4Far9cTB8DcMEECo2wKz/gvWQYehxEgMDv2lyWJTLnwnpgzp1NgFM88dafTwf7+vijhDcOQyhCdtng4JXDmWnltzDVzzfn7jDSZqydAYrrBcRwZcU36muCKYjyCu6hoTzMCwNmakKjolZ+LChy5ljp9AJwyRJpt4Zrr80QBQ7QyQrMN0Ty9ft/0NUa1FLFYTDQhtm2jVqtJ90WWHWrhox5uxveXugVW8uiukQQWmUwGGxsb2NzcxJUrV/DEE09gZWVF3umDgwPcuHEDd+7cwe7urrBSTHsRxLIyaH19HVtbW9jY2ECtVpMOrKyc0OtJITEnYXY6nb5pmrds2/52EAT/MwzD1he/+MUPDCwAc8Awt7k99vZwcuWB67pNx3Fsy7JCy7IMRrNnaRi4cdXrdViWJd0LNUXLaC4ej8+I66I5bIrHgAciM47NZn49FotJySTr2oHTTRCAUP8EKVSKA5A5FXSkdPaMxpPJpAAjAgAt/tP5cWoSCJJ47ZPJRDZ0RnKcxnl8fCyUNiNDzb4QnDFCppOjsyGgYLmg1jdoh8xzUyja7XbR7XaFjidNPhgMxAGxVJAiTJ3jjzrwaNQebcDFa+b1nPUVbe98Flg4S7dAi14TcKqh0OyFfmYEYPr80TJIgp9isQjHcbC8vCxrxRkLnU5nRkioARQ1LWyvTGaBvRiSySTy+Tw2NjZw+fJlbG1tYXNzEysrK0ilUmi327h79y7u3LmD1157TSaV9no9KbdlymhxcRHr6+t45plncOnSJWxsbKDRaIgAmNU3et2CIMBkMkG320Wr1Qq63a49HA7ve573P6fT6dc9z7v3e7/3e6eCiA/I5oBhbnN7zM00zWBxcbFl2/a+4zhjy7I8y7ISjuMYBAFRo37h/PnzSCaTaLfbIkCkM9YbtK6K0N0E6WQYaZKRoCBPO5dGo4FUKoVisSiqfuaIfd+Xlsnj8VgcM0VrjKjJLPD/SS8Xi8WZdAZLGgl6dPRPQRvZBgAzuXwyJd1uF71eD6PRSESOvE9egxb+aVGaXmc6SZ2Dp+Pm9XCGBMFFt9vFzs4OYrGY1POzSoMTScvlMnK5nKQWgNmyRp2CosMl66DTEWQvtHPWqQBdMRJ9l3S0z3PyOrSOIipU5O9Gq2A0Y8Hf4zUxBaNLKpkOIoBaXFxEpVLBysoK2u02jo6OMBgMZODZ0tISMpmMNMTiu8XOku12W9IHiUQC+XxeWjSvra3hwoULuHjxosw5IUC+fv063njjDdy9exc3btyQ94bHIYBldczGxgY+9rGP4emnn0atVpNR51wLzeLxPgeDAdrtNk5OTsx+v39vMpn8M4C/933/dr/f/8B0C9rmgGFuc3vMzXGcMAiCfhiGO57ndafTad227Zxt23E6dh390WnkcjlcvHgRtVoN4/FYysC2t7dx+/ZtqQZIJpOo1WooFArSgpaULdMCFHPpUjmWljHFwM6PdPKFQkHy8cwZj8djnJycCPPATVT3DNAzFBKJhAAHgiNdQqk3XzpIAgquDcEN14ZdLdlIhxULFCpqupxRKL8PzObuWQlSKBQE1DCiJpNwcHCAg4MDqZAwDAOTyQR7e3vodDoCsPiMKLizbVsaXVHDwGPzmgA8Uv6q0wRkJaj6Z5tqsjbUDXD9NADSKQuaPgc1BZZlwTAMWQvNhuj0kU6V8H3llFK2aI6+xzyO/hnLMlll4vs++v0+jo+Pkc1m5d4LhQKCIJAZD4eHhzg6OpLUE0ECv849bP7EAWy2bePevXu4c+cOrl+/jp2dHWGjyNRwDQGI8JWNudjJk8A4ytDwPee7/QzS0dEAACAASURBVJBZm1qWdWLb9g9c1/0fhmG8NRqN7D/6oz/6QFMRtDlgmNvcHnN76EztMAy3fd8/dF1307KsjGmaceZPddTGDTOVSmF1dRXVahWe52EwGKBSqSAej+Pk5AS2bUtfhUKhIDMjRqMRBoMBRqMRut2uqL+j9f4ApAcDtQ35fB7VahVLS0tYWlpCKpWSKgtS7RzwpKl7HXHSIUa1C2RCdG5adyekMdJlnwiyFWRKdJTMYUCMEHkugg1gloKPOuZkMolCoYBKpSLOnWWq7BS4s7OD/f19iUbT6bREvI7jIJfLSY6dzzOfz8P3/RmGgWPFdcSvWSA+cy3y02ORe73ezPwGtrPW+XTNAOj71uJIzUJYloVmswkAKBQKopHRLIMGDdGSVr5Lujw1Wn2h+03w+TGaJ9MxmUxwdHQ0kwaqVCrCcp2cnIhWhTNQisUirl69iq2tLRkCRm2PbdtoNpt444038MYbb0hDJrIKAGa6n2oAce7cOayvr8u0WL2eek0Gg8FMOexoNPKHw+GJbdtvO47znYegYfj5z3/+sQALwBwwzG1uj7195StfCT/3uc+5vu9vh2F4w/O8i6Zp5vr9fjKZTMKyrJkomKp6NhtaXFxEGIYSDTmOg1arJRFasVjE+vo6isXiTPVAr9fD0dERWq0WOp0Out2uOEJWD7D3AnsZMDIOggC5XE4a87DjIxkI3edBR1+GYUhOmV8sH2W0yQ2bkbXejAkOAIjz0vSv1mQkEglJr5DJ4BhhTe/rdIOm3WOxmLSKLhQKMpGQAMm2bRnG1Ww2BaCQkXEcR3LwfHYs8eP1AqcDuSgu5fox8iaY47pxnSig5BTRdrstzYhIt3MuBs+vqyr4PKIVM/yZ67ro9XrY3t6GYRio1+vyvPX7SJaGYCEej8tas7Miu4IyGufxNavASF6vjT5Hr9cTRsE0TRnq5bqu0P2j0QgLCwtYWlrC1tYWnnrqKayuror2IQgCdLtd7O/v4/r163jttddw48YNdLtdEdZqgEO2LZVKIZvNYnV1Fc8++ywuXbqEYrE4c836Wk3TRLvdlmFjhmEEvV5vaJrm3nQ6/V++73/Pdd3B4wQWgDlgmNvcPhQ2nU4Dz/MOPc/7F8dxLo9Go2I8Hl8IgiCZzWYNHfVlMhkZHU2a3TAMGZbEMczLy8siQFxdXUWlUgEAqWgYDAY4ODjA0dER7t+/D8N40LBmOBzO1OIzR0ywoZ2E7/solUooFApSSZFKpVAoFNDtdkV8Rmrb9/2ZvgPaCepzMievI37gtFafoGBxcXGmBbNON5imKdfoeR4mkwkmkwnG47FE3kzD6F4CjOQ5a4OAiEOs2I2z1+thd3cXrVYLk8kE1Wp1ZgwzAZ2m/XVUzRJSUvkEa2RtNHPCGQ3AA6dEoetwOJShTXymvF+dduE1ZDKZGYEmj6dZLLIAFI7ev39f1r5UKmFpaWmmPbMGWno92VdjNBpJCmFpaUlArmYaCNz43Dg5VTNqFKcShLFSgZ09WfpbqVSwsbGBS5cu4dy5cyiXy0in01KKu7OzgzfffBP/9m//huvXr+P4+Fg0P1rvocXDtVoNKysreOKJJ/Dcc89ha2sL+Xx+5m9Yl05yuqVpmvB9PzQMw+r3+/umaf6r7/vfMQxj9/Of/7yHx8zmgGFuc/sQ2Je+9KXwd3/3d0eWZb1mGMbFeDzeCIIgbtv20uLiYhJAgor4TCYjFG4+n3+kTW6tVsNHPvIRnD9/XqLKQqEgdLpt26JnyOVyqNVqkptnedlZeXM6sW63Kxt7t9tFpVLB6uqqCNFWVlawvr4uTXhImR8fH6Pb7QpDQG0B1efvJO5kRKydC+9LpzvY34GgQgtGqdswTVMqHqIVAPr41GiQReE5WRLJiLbT6cD3fclrMx1hGA/KNxcXF0XsSYGorhRwHAcnJycwDENy8RyGpaNdqu8fOiAMh0N0Oh1JLWkRKAEJ2yrrFA7XlE5Rt7vW1RJMn7Tbbezt7Ql7srGxIesX7Q+i0x08vud5ODg4kMZWy8vLqFarWF5elnXn8+MQqna7je3tbenDwGdFwaweUc1qnEKhgNXVVaRSKdTrdayurso7aRiGjM/e2dnB66+/jtu3b+PmzZs4OjqaGaamUwhc93K5jI9//OPS4OnSpUszbJNO4zmOI6WTqtOkE4bhwXA4fHMymbxsWdZbo9HIfvd3kf+8zQHD3Ob2ITHHcfwgCE5833/VsqxV3/cz0+k0NE2zFIvF8qS7AUgVQVSlDjzIs7IMEoDkhOk8WRrJXDwAbGxsyH93u10p09R17Px95udJDXc6Hek70Gg0UKlUZOgOnVs2mxVHRoEiwQC/dLMpLaDT4ked89Y0uE6fEEyRyie7wUoRrXPQHQqBU4DC7n06784Il0Cp3W7DsiwRGLKNNnP6zPVzKBVTOcyL08GYpolmsyl5b47Dphh0YWEBxWIRtm2LDoMppeFwOKMVoXMlG0LGgo2iopUO0b4P+vvD4VAmSCYSCQFL/B0NfLSQEjjVj2QyGUmRUSTKBmGsgiHIIAg6OTnBwcEBRqORpJ34rHgeDgjLZrPCetRqNWSzWdRqNTQaDRSLRSQSCWkFvbOzg7feeguvvfYaDg8PRe9AFobvBv/OFhYW0Gg0sLGxgWeffRbPPPMMLl68KCPRdZ8JgjsyP4PBgCmZqeu6Tc/zbliW9fe2bX9vMpmM/+AP/uCxSkXQ5oBhbnP7kNif//mfh7/92789NQzj9nQ6fSWRSNRt244nEol4IpFIZzKZZBAEUiGgRVbaqA0AZltDa6Gbjg5TqRSWl5cRj8dRLBbh+z52dnZwcnIi3RR5XDpPPfmPQjH2OjAMQzZyOicK9FheRnCi6/CB09HMmg7WYIUggPcTdeakhCeTCUaj0QyrQJDBNI5W+dMBUh+SyWQkiiRVzuNSA8I+EsxvE8TlcrmZhlRkBQi89HwBpl94vHa7PfNzVqSMRiMR2FEEyEZGACS9Q1Ek112XZEYBmi6x5drzdwgYODRK93zQVSzAaUkrUwwEH2yNXKvV0Ov1ZsajB0EwI8gMgkAabXH4FIEBQSJ1BZlMRsapswcC/5+ak2w2i1QqJSPN9/b2cO3aNbz99tu4e/cuut2ulAFrYS17QXA8+blz53D58mV85CMfwcbGBsrlsoA5MjhkY5gK7Pf7nF7q2bZ95LruDdd1XzZN89XRaNT5whe+8FiCBWAOGOY2tw+V/emf/mn4uc99zozFYm8kEolqIpHIJB9YCkApmUwm6OTYo4AAADi7yRNNi9voSPg9lg1S+X3z5k3cuHEDh4eHGI/HsmHrFACBA+l/lmrqfgW5XE4cFlXtLMEcDodC3/OatGPi+fRwoSibwioB3eWP+e9+vy+AISrMoxPi/VN8yfHeLHMkC8Av6iCY89ZOlM+EoEu3NNZNqpj+IfBhC2Mek6WwtEQiIcyDZlv43BcWFlAqlZDNZmfYCbIK+plH9RT6mRIIEBwxzcESXqa1mKLhczir6oKpM5b+ElgeHx9jd3cXvV4PxWIR2WxW3sVutyvpAdd1ZZ0I2HQr5rW1NUk9VKtVVCoVFAoFYVbYq+P+/fvY3d3FtWvX8MYbb+Dk5ETAGTDb0XJxcRH1eh1PPvkkNjc3pWfDuXPnsLy8LKCVbczH47GMNR8MBpL2evh+eEEQdKbT6XXf978+nU5fsizr6Atf+IL/n9ge3nObA4a5ze1DZl/84heD3/zN3zyJxWL/GIvFaul0upBKpXKpVCqRSqWKpmkak8kEmUxmpkZe99UHHh2Jze+x6RMAiY7pOIrFooxs3tjYwI0bN2RwE8EAaX/gNO8/Go1monV26WMpHiPDSqWCarUqUTJFkWQaNFCINknSHQUJlliJ0Gq10Ov1RPinHTt7TBAwMBpmNM31W1xcnHGIdDy8Rt3WmgCKgEJfe7VaFa0IAZEWVEb1BKwo0GWeOv1C4EEWgakSUv7ZbFYmi1JkyfvntVK4ykoALSQFTktVCQYpcLUsSwSgFIES0Oh70pUfWgsSj8exuroqICQIArRaLezu7go4AyCaGA3sNKPAXiLLy8tYX1/H2toaqtWqlLqS4TEMQ8S8h4eHuH79Og4ODnD37l1sb28LwNUAx/d9ZLNZbGxs4Omnn8ZP/MRPoNFooFqtzvRaIPPCd7vT6QjLQ+bkIfhzPM9rhWH4ehAE3/Q87xuu6+7+/u///mMncozaHDDMbW4fQtvf33czmcx+KpX6X7lcbjWXy9Vt206mUqlsMplMMt+fyWRmouTofADg0fa+bJNLoZ5uG51KpZDJZKTRTaVSwfXr15FMJnF8fIzBYDBD73PTpcKfDWqOj4+lbwO7962urspGz1y7jtZ0IynNYACQyggNIOiQO52OTBMku0DHwOukk9WAgU45GvkzhcI1YZUH6Wv9e2xVrfP6rARIJBIi9oueU3cOnEwmApJ4rbwOnlN37iSrQFaIwlU6VopKNctA+tw0TfmcbtTF/+ezZPTMqamsFiFwSKVSM7M8gNMmXXx21MlUq1WpHOHz3t7elg6cwGmFAcEUWRuyCpVKBZubm9JPYWVlRdIOTMEwNXV4eIi33noLb7zxBq5fv45WqyU9FnitnNtBlmZlZQXPPvssfvzHfxw/8zM/IyCaVTwAZio/2u02ms2mdPh8+P4Gpmk6tm0f+L7/uuu6L4Vh+G3P8/b++I//+LEHC8AcMMxtbh9K++Y3vxm++OKL03Q6/XYsFnvV9/216XSatCxrIR6PFxOJRJI0Kh0DywSZS4+mJ7SjYx6b0RwFlCzfY+6e4i3msRcWFqSrIDdcTXmTeufgn9FohHQ6PTOyOggCEamVSiVxiFSY09mzAoCAhjS5Hs7FXHuv1xOHSHBBR0IQlE6nhT3QoEQzMDymBl68N91fgmCELbEBYDweSyUDBX0UTzLy14CDn9EzM/TzYHStZ1lwnDlz9ex9QSZHN7liuoDn1dUjwGljIjrGhYUFEeyxpwP7bfA8vJdkMjkjtgROAQMA0ZJ4nodsNotcLoeVlRX0+330+33cvn17pkNntNSTrEa9Xp/p1kgxY7FYFEaBYGMwGODo6AjXrl3DW2+9hTfffBP7+/vCOJFJ4NqwxDeTyeDJJ5/ECy+8gCeffBLValVSG5o5obiR7A3fN76X0+nUsixr13GcH/q+/3dBELwKoPknf/Inj3UaQtscMMxtbh9Se+mll8Lf+I3fGCQSiX8Jw7DieV7MsizPMAw/FouVfd9PJhIJg/XlFOlxgwdOS9a0Ml4DCdLQWh9AhXuhUECj0ZCInQ6LERsnCWoHTfobgHSQZIdJKuR7vR7W19clciWtHgSBVANwUmcymZR+BZxA2e12pTKDUasWVb5TV0hS4HR2dKBkMXgMXU3A5leMxpk60akJDq5iJQFbcjO9QacUHSzF6g5NvxPEEeSwrwPBIQEDf05gQS0AUxsUH2rHx2vV1S8EDAQsg8EAzWYTh4eH6PV6cF0XhUJBhITUUejGTVqwyvNq1onXWCqVsLKyguPjY5TLZXmGuuKCa89Kn4sXL+L8+fNYW1uTmQ08HoEbK1f29vZkJsTNmzdx9+5dKREmA8S0D43CyR/7sR/DRz/6UWxtbc2ARP69kGVi6SfTXQ91C+FoNDI9z9uzbfufHcf5+zAM/yEIgtZf/MVfBPgQ2RwwzG1uH2L7q7/6q+DXf/3XW+l0+psAfNd1P+153rOe53m2bVcALFLsR8qY5YUUwDF1oYV0UU3DWWCCQ37YXIjOXZcLapW5VtmTqtd9B9rttkxwHAwGEiFWKhXJv+dyOXEC0bHRLL2Lx+PiJHguLbzTyn+t4yCVr4V2VLbzs7wfpnfo7OPxuJyPjiJ67+w7QRGj7nxIEEDwplMquueFTlXkcjlUKhUBBqzeoPPWWotEIiEgCDjtr0BnDkC0EqZpih6CTprXvb29jbfffht37txBq9US0FMsFqUBEo+v9QtaQKmrDjRgZXqhXC6jUChItUwYhtLXYXFxEUtLSzh//jyuXr2Kp59+GpubmyiXywIWmGLTA6cODw/x+uuv4+2338bt27fRbDbR6XRgmqZcF1keArWFhQU888wz+OhHP4rnn38e5x7OmmDaQrMLk8kE/X4fzWYT7XYb/X4fg8EA4/E4GI1Gw9FodNP3/e9Op9NveZ73Pc/zel/+8pc/VGABmAOGuc3tQ29//dd/Hfzar/1aM5VKfSsej/dc1536vv8J13WDWCxWsywrPhqNkow+uVmzUVO03l2DBf57VvqCjWtqtdqMI6IQkNGsTkEwWmb/fa110E6WA5h830e9XsfKygry+Tzq9brQ4zwOnS2dJOnxTqcjYj5eA2dfaGEbnYseBkR6maWX7GFA50KFf6lUkjw7Ffy6A6N2mjp3H51Twesho8M0A0s+AQgTwghat90mY8HJnhw1rtMkvE8yIrrFNp04u3jyGRC8mKaJVqslI545TIvn1mkJru9ZgEELVKPvFsGp7glCsJdIPJgsubS0hLW1NWmSdOHCBTQajZkx3sCDbqXD4RCHh4e4desW3nrrLXz/+98X9kkPP9PnBiDHWlpawvPPP49PfepT0l9Bp1X4nJgeOz4+lo6aDzUeU9M0B+Px+I3JZPL/h2H4sud5N2zbnnzlK195bEsn/z2bA4a5ze1HwL785S/7P/dzP9fM5XKvptNpOwxD3/O8Zw3DsBcXF/OO4yz5vp+k8yClz6iUjoEiN11eyO/TuGHSieqqB9Liy8vLWFpakhkUzWYT3W73kc1Wf2lhWzwex97enpTTjUYjVKtVAECxWJyh5T3Pk/kAy8vL6PV62NzcxPHxsaQ5bNtGv98XZoCloPziDAnqM3S/AOby2egnkTidllgoFGbEmTqK12kcLY7UraujOgKdp+cxCaqiJZr6+nVDKl3VwWNrcSMZCwIBsgf8+WQyQa/Xkz4J7IFwdHSEe/fu4fj4GJPJRBgZpkYY4fMd0doFAgMNEMggEWRo7QnXh6wVn+3q6iq2trbwsY99DBsbG6jX68IIkT2ybVuGTd28eRO3bt3C7du3cfv2bUkz6fec7x7LfBuNBs6dO4crV67gE5/4BC5fviwlmZpVADAzgbXZbOLk5ATj8TiYTCbT4XC4Y5rmm5ZlfWs0Gn3L9/39r371qx8KceM72RwwzG1uPyL29a9/PfzMZz4zjsfj3zUMw/Q8778FQfCJIAguh2EYTyQSpTAMk1SLMxqlk+ZGyghe19MDs+kIrWXgps/IlYr5paUljMdjNJtN3LlzB7dv35YIXwMQ3SCJ18FhVmzkNBwOUavV4Ps+1tfXkc/nZQPXY5pjsRhWVlYwmUxES8Ha+larhWw2K3Q3ywg1RU6HyeOyt0A6nZbW1mQxmMZhMx46OzIF2sg40BmSLSAQYG8EsjBcBzrOaAWHbgxEwR0Fi2w/HdUTUCgYhqE4drZcJmgwDEM6NxJIuq6LTqcjoI/MRCaTkS8994PPlikW/b4Aj/Z3YLqGzabG4zEAzLxHq6ur2NjYwPr6Ora2tvDEE08Io8Fnx5RPu93GzZs3cfv2bfzgBz/A7u6uDJ7iOcnw6LTLwsICqtUqnnrqKTz//PN4/vnnsbW1hVwu90h/C6bFut2ujM5+2HjKM01zaFnWHdM0/9G27Zen0+n3bdtuf/3rX/9Qsgra5oBhbnP7EbJvfOMb4YsvvjjJZrP/lkgkDjzPOwjD8GeCIIgB8KbTaTkIgoWHzsYATrspsmxQt76lRoDtirlpAqc0LoEHHTqd1MbGhjgbRoHHx8fS2ZCpAuBUXEkBGXv7s0yN3f1IAdfr9ZnOhsCDiJ45fI7YHg6HqFar6PV6wj5Q6c9GOuPxGKPRaCZ/zYiyUCggDEPpEUFhH3UDVN/bti2Mgi4d1BGpTg1oTQLXmFoBADMljTplpJ0V1y2dTsvobKZHmI5gxQQ/R2DGdtAER+xzwJSQTgWwJTU1BdRRsLqBjawIaig41PQ9TWtG+NwIEOl8mepga+f19XVsbm6KsJGdG7XWgymTXq+Hg4MDXLt2Dbdv38Zbb70lIEeDFz4HDXqojXj++efxzDPPCCjhe0kWwvM8aSdNBq3VaoW9Xm86HA6PHMd5y3Gcl8bj8Xem0+n90Whk/yiABWAOGOY2tx85e+mll0IAzqc//endQqEw8jyv63ne0Pf9pxYXF9eCIFhLp9Op6XS6QMHWcDiUKJG0PBs4ZbNZqefXjANwyjpUKhWJyLvdLhKJBFZXV0VZz1kRnH7JCgnHcWacIlX6bPRkmiYSiYSkPNgcqdvtol6vI5PJyHWwVwLLCZeWllAul1Gr1TAcDqXkjfltdpRst9vSlpiVCmx0BEA0C2QV0um0rBGdWxAEWF1dRSwWmykr5frQoVLQR3aCICebzYpeQkf4lUpFBogFQSApBD2zgYCDTAQZA9u2sbKyIs2LuM46uiYYpNbBNM0ZxkFH1mw+pcWhUaErGSqCL11SSyaJzA5BFJmSdruNwWCAZDKJ8+fPS2fRixcvYnV1Ve6D4kQCS5ZL3rx5Ezs7O7h79y729/dl+BebY+lupwQ2jUZDBlFduXIFTzzxBC5fvixCW9472R42yeKsELIKrVZrOBwO745Go39yHOfbnuf9S7fbbf/d3/3djwRQoM0Bw9zm9iNqr7zySvjpT3+6l0wmX43H4wexWOwF3/c/6fv+c77vryUSiWoQBEnbtuO2bYsTZLQci8VEDEjHogVpwKmegREn0xuJxIMJmIzqKpUK6vW6NEEaj8dIpVIYjUbSHCcej8uGTIfHiBaAbPyxWEzYAebZtWCuVCqhXq9LOoGlh2QOmOdm/4jhcIjRaCT1+K7rolgszox65v1HmxM5jiNVCUEQoF6vC4vB9AMdFGcQrK+vo1gsSlOmxcVFFAoFKQPt9XoAIKWSFFYS3BHoMOLVVDt7SDDNwmoRikV1GSVZI4I1AJLqICABTqdX6hy+1iPQobKqQ9P8uksnmQQ+X/6MYCWVSqFaraJWq8n7Uy6XsbKygmq1KikcrgPTTsfHx9jb28OtW7ewt7eHo6Mj6dFBMSnfVcMwZIx2vV7H1atXsbKygnq9Lh0i6/W6ACBqTtgVk9f/sGzY73Q67nA4bA6Hw++Zpvmy4zj/6Lrufcdx7B81sADMAcPc5vYjba+88koIwPrFX/zFa0EQ7Lque83zvJ92XfdTyWRyfTqdriSTyYLrugnHceLJZNJgqRnbEjMvrtsVa1pXdycsFAozugZGlblcDtVqVRyBbdsol8uS+2clAFtZG4YhswqY319YWBCqn2VrLOUjPR2GIUqlEsbjMZaXlyUqpW6A0TSPwxQHZ10QNJBtIeBhVM7Wx2QbOAq8UCggnU7j5OREWlCzSoTOdnl5GaVSSVpfU4C4uLgoWhK2VGZXzVwuh3K5jFKphDAMBTDoOn92EiQI4DoSDHFQE9cikUgImOGzizYgAk6HlHHN9GAvmgYlZG8IQMgGEaCxERMZGOCBE2f6hxNMOZeC7xyfBcW61CkcHR3h/v372NnZwf7+Pvb29kQgyx4PND4HjtC+evUqrly5gueeew7ValUYNKac+Dt64iqv++F9usPhsNvr9baHw+E/9fv9b9i2/YPRaNT/27/92w9dueR/1OaAYW5z+y9gX/va1wIAg1/+5V/+t+l0eui67rVEIvF8Op3+aCKRuGBZVjWVShWSyWQilUrFqSCnUUBHYR7b89IIHMgu0Ag8crmcOEzm8hmJs80wqV5dGqdHJi8sLEilQa/XQ7/fR6lUQj6fFzDhui4ymQxOTk6kUqNYLIruQA+O4j2QZmcZJUEKc/vsxUDmhXoA3UKZQtFKpTKjkdCtp5eXlyVdwkZVdPpMLxCkUJPAvgSVSgWGYSCXy6FYLIrj4npRi6ArNujo2u22MEece0Cdgk4R8Fr13BEyP9HeFQDEgfNeWDlCxoiAQZeIch0BiEaGg7GYBmIaBjjtccD3g6kpAoTt7W3s7Oyg2WyKxoWgh8CWQCedTkuK47nnnsOzzz6Lp556aqYrJNeFLAvfT/ZtGI/HgWVZU9d1D03TfH04HL48GAxe6XQ6d8fjsfvNb37zR45V0DYHDHOb238h+8pXvuL90i/90j6Adjwef8PzvE/EYrH/JxaLfTSRSDTi8Xh2YWGhmE6nE1rI1ul0JOIqlUr/u72zi5HjrNb1qv/q7unumemZsT12bMeMnRAfNmwIOdGWIqGDiCDcIBEpIHHLDSBEIiFxE+AGoSBFibhAiCDIXUAKKDcoOiAdztnAgc3mJ3sD+SOJE3vG45menv6vrqqvqr5zkXk/f9Pb4ewNAfLzPtLIdrvdXV0z8lrfWu96l+ldz48G2tMPInJoWyL+I0f/GJbOEDhub2/L5uamBEFgTKUwAmkHbvyKQLW4uGi0DJhS2NzcPLQPA3qGlZUV06qo1WomiUCghlDRdv6D5qHf75tEwS61YwmTbRttb5SEqVKr1TL7DUTEOFdioyE0Bp1Ox9w7nLShD8Bpu16vm22O0JaIXLVfhjkUtjI2Gg0TcJeWlkRrbdZFQ7+B9s/CwsIhq2vceyRM8IJAmwe6h4WFBdMeQQJm7/gQEbPWvNlsGrMlJHDYH4JkAxqF3d1d2d3dla2tLVO9uXLliuzv78vu7q6pCs07QtqC2kajIWtra3Lu3Dl529veJufPn5eNjQ0zoovvB9oPqOJgYdRoNNKj0SgfjUajNE1fUkr9c5qm/zNJkiem0+n+97///deNvfNfAhMGQt5kPPbYY1pEZnfccceFRqOx4/v+c1rr/+F53s2u656J4/jEwsLCUqPR8DzPc0WuegKgl4t+LgKHvV8CZW4RMWVye5QOvXP0uGF8s7y8bHrL/X5fer2eWeQDBfze3p4xY7LL4BgBRCBHORo969XVVVlZWZGjR49Ku902uoFms2k0AjA2QrBCyyJJEun3+0bMGcexLAzPnQAAIABJREFUDAYDWVpakjzPzSZCtF9swyZMQeD0jqQEf4cWgb3LwbaMRjJjCwiRgKByAxGlvXESLQ9MVFy+fNkkWbhXg8FANjc3ZXd312gioPmAJgJBE4mDLf6E+6Zt+mX7G6AFYDuFIjGAPgGTLvjs8DXA93c0GsmlS5fk0qVL8tJLL5kNkGhl2fcdySImMJBALC0tyXXXXSc33HCDvPWtb5Ubb7xRNjY2jOETng+Rba/XM8uoDhZsFYPBIBkMBhfG4/GTs9nsn/M8//F0On1hd3e3fKNMQPxnYMJAyJuUA9+GJIqiJ7TWO47jPKm1vlUp9W7Xdc+JSNv3/WZVVR5KtDhFp2lq+r2+75vTor1DYN7BD4t9kDggsKDiANHb+vq6OXWPRiPZ3Nw064dxEsbJFaRpalohtk+BUsqM6yEBsUcmFxYWpNPpGIFjnudGR2Gr+CGMxLVfuXJFGo2GEcFBUwDRJyyjIY6M49hsVcQ2TghA9cGOB1RbWq3WoWkVgKBmWxkj+LZaLdNj73a7RjsAbQhaO/1+3yQj0+lUtre3pd/vG9EqKhZhGJrkB14PWM6ECsHi4uKhz4alT51Ox7Q0kCBea/MlKidoBYzHY+n1ejIcDg+tIr906ZLZbmovO0OSgOoFzKlsq2+svb7pppvkne98p5w7d06OHz8uS0tLJmnFzykWlcGi/KAdMZ3NZlem0+nvkiT5WZZlP8+y7A95no8ffvjhN6xW4ZVgwkDIm5jHH39ci0hx2223bQZB0NVaP1WW5bO+79+mtb7Bdd0zWZYt1Wq1IMsyL89zBwnDaDQyY4bzxjzz+gacMm2RHU7hECOGYWjaB0hQZrOZHD9+XJaXl2V5eVmUUiZpsIMDkggROXRiRB/dFt3hhI0AubS0ZNaA40SOz2L7HiApsYMMgtdkMjEnXOy8wGie7Y8AnQMCKJIKbOwsy9L4AtiVBWhHUPnAa8LAamVlxSzewn3BlAsqLtAb4J7bOzlQqVhZWZHFxUWJ49gkCBB6pmlq3BWXl5dlcXHRtCdarZYsLy/LkSNHTDAWEZMQzjtU4vuIysJ0OjUroXu9nvmC4Ra2WKKigO+7vV0T9xPGWkhqzp07Z7wVMKGC76/tOwENTa/Xq3q9nhoOh+PhcPhEmqa/SJLkx1mW/T7P8/63vvWt17Vb418CEwZCiPzkJz/RIpLecsstL7iu2/V9/0ml1LuVUjdHUXReKbVeluVyVVVhVVVumqZuFEWCcUxMMmCngN2iELn2Xgrbz0FETBkbLQ6ccGEKtbGxISdPnjSK9X6/b8rT8DCwtxuiHI4ABS0E3gcahl6vZ8YWUd5GG8U2qcK1YVoBXhEiYrY74gsBHSLLWq0mq6urZi/G4uKi0SSMRiNxnJeXbOV5Ls1m00wl4DOhxYIgifdAlWRpacloGtA2CcNQBoOBSXRsZ8l5R0ZUNDApgM2mMJOCGBQTG1g9Dp0Lqh34vW3OhMoLrh2aB0xwjEajQ1UFtBqgDUFbBO0n/KyIiGnziIjxVDh58qScOXPGjEmisoPE0B4FReXowLxLDwYD1e12x6PR6KXRaPTzwWDwv5Mk+dVoNNp65JFH3rSJAmDCQAgx/PKXv9S33XbbOE3TJ6qqelFEfpvn+a2O49zsOM6NInJERNp5njfSNHUQjG11Pk7BCF62YY6NHYyBrcyHgA1qegRfJAhIGDY3N2Vra8voHGCvDPEiqgyoBqAMjiAHTwiRq2OFMDqC5sAuoWM+H6OM9kQBPgOqJtAELCwsyNramqytrZnePQLX2tqauK4ry8vLZswSi6CgS7D3H6AcDxMm3/dN1cJxHPNZB4OBiLxcaof3ABILaCjQ2kASgdYQTupoF0CzEsexWboFQSaCN8SN9vhjlmXGadFeAY0lUGg7IGhjgykqTKggoN1gL4jCvYaW4qabbpIzZ86YlddHjx6VY8eOmSQGbSZ71BNJysHOkXGSJJvT6fTfZrPZT/I8/1mapheSJJk+8sgjbxqdwp+CCQMh5BAH1YZCRPbe97737cdx/KTneb9xHOeftNb/KCLXB0Fwpqqq2HXdoCgKrygKZzKZOBCsoa+MUj+CtM384/O6B3uTIHrh9XrdBBVMAjzzzDOm7w7hIhIApZSMx2MZj8eHNlKKiEkCbEMqe+shxHioSiARiqLIBEBUItByweujbQHhIsyk4BuBzw33R2gGUHXIssxs20TfHtcEcR7+De6zyMvJAUYt0XJQSsnKyoqcOXNGNjY2ZHV11SQ1IldtpFEdsbUlAJUXPI5WBBIoiC0RjFH5GQwGcvny5UNtIVQY4OyI7ydaSmgDoVWAnw0kMxhTxc8ERK233nqrbGxsyKlTp8xESrPZND9nuG+4hgPfjXI4HGaj0WgyHA5/M5vNfjGdTn80m83+sL+/P37ooYeYKFgwYSCEvCI/+tGPqve85z3jOI5/7rru0yJyo+M4N/u+/46yLM9UVXVCKdUuiiKczWZxnueOyFVhI07AdgkcQQnJgf24bQYF7OcHQWD8/dGbL8vSzPvjNAyjnzRNJQgCM/4IJ0cENgRBGAQhkMLWGYHM3vBo73JAcEMygbFK3/eNNwGqCfbII6YS7FFMJC6tVstUFIbDoYjIoeoF2iw4edttEegU4HIIfcPp06dlY2NDzp49K2tra4faJ/g+2QkdzK1svwaMxOI6EOhhuY0gbCcE+/v7cunSJVPdwb3Hwi6MQ4rIobFItDTs60H7BdoNETFC2dOnT8vb3/52uf76683ng5ASP1P484GvQzmdTtV4PO7OZrM/TiaT30wmk5/mef7b2Wy2fd99973p2w/XggkDIeRPcuAWqe68885uWZb7RVE8Fcfx/y2K4hal1M2+77+1VqutBEGwWpZl7SC4OTDdQU/dLiPbS5fsEy6YH88UuZpYIHii3bG0tCRHjhwx5fuiKEz/fTabGWMgWPpCjY9gi2AI3YOImCCMxMEuzSNIYnzRnqjA8/M8PzTfDwEhdmPgfe0tnWhf4DXhACnyslgS12tbL6N8DxOn7e1tuXTpkuzs7IjIy339o0ePyvnz5+XEiRNm54ft8ngt/wKYR+Fz2ls28fdYHY6SfpIkxrBqMplIv983q5/xWXFv0JqYzWaH9A5ItmydBVxDjx07JsePH5dOpyOdTse4N3Y6HdnY2JDrrrvOtGaQPG1vb5vKxYGluE7TVI3H416WZZdGo9GvZrPZT6fT6b+ORqPLSZKkDz74IKsKrwATBkLIf4pHH30UrYruRz/60f1Go/F8HMe/D4LgtizL3hFF0fV5np/SWkdZlsVYsYwTPAIAyssQ12H00FbTz9tP22JJkav9cnsBEwIsgq29zAoiOugcarWa9Pt9SdPUaDAQJO0NmEhu7PE/JA62XgMCTTgN2mN/WJCUZZm0Wq1DOwpEXk4G4G+A6gKCHoKlLRq01zlDD7C1tSVbW1ty8eJFuXDhggyHQzl27JicOXNGrr/+ernxxhul3W4bW+jZbGbuHa7dPtmjagPzJwR2VDew2rnb7RqXxSzLzOZOiBWhfbB9KezpFoyV2i6SttskRJr1el3Onj1rxiKXl5cPWYGfOHHCVIjgnDkYDOTKlStmLNTzvLwsy0me55eSJPlDmqY/HY1GP03T9IVutzv76le/ykTh/wMTBkLIf5lHHnmk/MhHPrInIj8vy/JCVVW/U0r9U1EU73Ic5zql1LGyLGtY4oOEQOSqJgH6ASQO9gifnSTY4kj8HgFtOByaoLW7uyt5nh9ycMQWRxgwdbtd6fV6srS0JLu7u6bqgACOiQSMLtq9evt0bRtRiYiplCCYoyUym82k3++bUzrGKxGsHccxSRPuQa/XMyI9BD+U8fF60GTs7OyYE/3e3p4RfS4vL5uJgaNHj5oKBdoy/X7ftGdQMbEDORZF4b7Y2gy0F7ByHImXXfFAogA9C77ntnkXzKdsYay96AtJBHwesE1yfX3daGOQLMZxbESWk8lEROSQXXaWZbMsy14Skd+VZfmLPM9/mWXZ07PZbPD5z3/+TeHS+GrAhIEQ8mfxne98R4vI7M4773xxYWGhG0XRH/M8f0lrfWuapueUUhthGEau64ZBELh2woAAgtM1diSgRA8tAQIJQMIAtTscGBG0MHsPPwG4Joq8vO0SLpJHjx6V3d1dGQwGcunSpUPufqg6QDiJ6giYH7HE50GQg6sjBJjQLUwmk0PW2aikNBqNQ0uWrly5IrVazVQ6cALHWGG325XxeGy8FOr1unS7XVNNieNYOp2OrK6umjFCOGSidYHPi+AOkaHta4HlWXh/JAS29wSqCQjuInJI92DfM4DqEqpCWO8NPwpMe+B14Wlxww03yOnTp802S7t9opSypx1QMaqqqkqrqprOZrMnR6PRz6qq+l9VVT1RFMXws5/9LBOF/yJMGAghfxGPPvqo/uAHPzhtNptP1Wq1naIongyC4L+nafqPcRy/xff9k3EcLwRB4DqOY/7PwVIj9Obt6QV7UkHk8Agm2gdwgsRJcm1tTU6ePGlMhZAs4LXyPJfFxUWZTqdy6tQpYzXd6XTk4sWLcvHiRXFd1/g1INjP+zGIiKky2GJEe8RS5KpBEYIprtN2ucSYJLwh0IKwd2ng86NKcbAESRzHkeFwaEYdYRENG+wwDI3PAAIpphdw31A9QGKAFgvGItGagQ7DnmDA/UFVxQb3IAxD0/JBVanZbJr14WjFdDodOXbsmKyurh5yv6yqythInzp1ynxfASpHg8FAtre3ZW9vT5IkkTiOszAMB47jPJWm6RPT6fSng8Hg10qpy+PxuHjggQfYfvgzYMJACPmL+cEPfqBFpPjwhz+8V5blz4IgeKYoil8XRXGL7/s3V1V1JoqiZcdxOo7jBFprxxY7ooQdBIERBpZleWh0D6OLdhDDfoMwDKXdbsu5c+fMdkqc8hG84GoILwZoGrBGGRMYo9FIut2ucW+EgNFOYPD+IldbJRD12ap8CBjtiRBoNZB0IFiLXE2MkEzgV3hKlGVpbLMxSRHHseR5blwj0c7Y3983mx63traM38F8RcFe1GSLMeerDpgoQbvGnprAfbCTIXtnCD5/rVYz5k+oKiwuLsr6+rq85S1vkePHjxudA9okSDCQRNlaDmgVdnZ2ZGdnR3e73aKqqrRWq70Qx/GvgiD4P0qpXyVJcmkwGMzuv//+N52d86sJEwZCyKvG9773vUpE0ttvv31rcXFxZ2Fh4fdhGP42y7JbgiA477ruhuu6J0QkrtVqodba9X3fgSeC7/uSZZl0u11zYkd/H+JIBOSFhQU5ceKErK6uiogYN0XoFmwrahExLQaML6IFgPdYX183Kv+trS0EIdnb2zMBe15TgdM1gu68MFNEDmkdkDDM+x7Y/hMiYq5/vscPcD14b8/zpN/vi4iYpWBwoxwOh7Kzs2OEjrgGGFOhEoIgbVdV5oWWtpsj7rM9EoptnNAhYMGWiJiphkajYUYk0YrCYrBOp2O0IEhW7O2l0HNARHqw50P3+/0iSZJpWZaXi6J4uizLfxkOhz9WSj2Vpmly7733sqLwKsCEgRDyqvPDH/5Qi4i66667tpVSvbIsf+d53jkReZfnef/guu7ZsiyPO47T8H2/XhSFiYjYF4CSN0rSeZ6bBVYiVzdR2kEYI4d24AZ2YLMDOBKTTqdj/BxWV1dla2vL6B9wTaga2AJBO7jhuuwvaBrwfjhxY+rgWgnD/IIuuzVhj0PaZlRhGEqe58bhEeusMeII0ykEZFQJ8BlErlZN8DiuDZ8bepN6vW6WZEVRZBaRQYOAe+15nqysrIiIGF0DDLhgI47pEOzFwHXZ+zxw/+EzcSAkrbIsK8bj8Ww6nV5J0/T3IvJLrfW/5nn+tFKq97nPfU79hT/KxIIJAyHkr8Z3v/vdSkTSD33oQ5fCMNx2XfeJIAjOep737qqq3llV1Q1a63Xf9zu+7/tFUfgHY4kOxvEwojiZTIyjIWb17W2QtgHUfAAGdkvBrkSEYSirq6smKYBLIHr23W5XRqPRIetjewkSAioCPV5b5OoIqMhV7QMeV0oZ3YNtVoTXQMXFbh3YBlLYnYGkIUkSU9LHKCm0D0iqsFjKvi60cDDOiXI/gj7ec2lpSTqdjrTbbTly5IhpF8C2GyZZEI2GYShHjx419wIVDlQpkGSg0jOfeGEpFKyjDyoM1Xg8LouiGOR5vpNl2fNJkvwmTdNflGX5+zRN96bTafHlL3+ZVYVXGSYMhJC/Oo899lglIrmIdD/wgQ/se5731Gw2+0Wapu9K0/QfiqI4m6bpiXq9fkRrHZVlGcEBEYHR1jOEYWiWLtkuhDiVY4JhXjRpg+diwgGgxI8kxPM843MwGAyMfgAlfBEx7QFUBOwxQtsQydY44Jrs18IIIpIgBF87QanX64dMsKAvgHjSnh4QEXPKhzDS8zxjtKSUkiiKzJKmA3Mj49pYq9XM9AJ2VsA4Ce0gTGNEUWQ8G6bTqUkYVldXBeO1APfH9r/Ae9oJQ5qmsre3B01JUVVVrrWeKKV2ReQPSql/z/P819Pp9Mk0TXeSJCnuv/9+Jgp/JZgwEEL+pjz++OPle9/73kEYhr9O0/RZrfWPHcc5n6bpu+I4frvneadFZN33/SiKIs/zPB9TDiJikoMkSSTLMhmPx6Y8jhMrAtR8yR//3mZ+RBInaSQmjUZDjh8/LhcuXJCdnR0zymmf4OEBYE8a2K2I+aQB12G3APB7tFVwbfg7VFXsrYsQImI8s16vm5FTGCeJiKyurppWQlEUcuXKFdnd3ZWyLKXZbMpNN90kGxsb0mq1jGNjv9+XOI5N+wGWzNhqicoCWgloNWDCAskTlpDZmhK7FYIRTfhLzJtTTafTajqdprPZbK+qqs2qqp7O8/y3juM8oZR6Xik1GI1G2X333cdE4a/Mf2z0EULI35Dbb7/daTabQa1WW43j+Hwcxzd7nne+0WicqdfrRxqNxmoURWEYhm5VVa6IOHZZez6QwfwJwjwkD6/UphA5vPhK5OpeBtvR8MUXX5Tt7W3pdruHLKYxtdDr9Q6NUs5PUdgJD9oB9igmkhtsX0SCAF0FjK3W19el2WwaIaAtLoRBE8Ym0XI4duyYqQIkSSKXL1+Wzc1NGY1GsrKyInfccYe84x3vkHa7bZKw3d1ds3FzcXFRms2maVHYC6rQsrAnPtB6sD+v4ziHFkzhC/bSuJdpmlZpmlZaa1WWZVpV1UBr/VxVVc8qpX5dVdVvxuPxC2maJl/5ylc49fA3hAkDIeQ1wfvf/36n2Wz69Xq9WavVTsVxfL5Wq/23RqNxNoqi01EUrXqe1xKRmuM4ruu6nuNcXVMdRZHxIsBkBR6zDYGu1Z4QuZo02BUArV9eYIUAansYTKdTUy7f39+XK1eumKoHzI3sagNO/DhBi4jZZhnHsdFjYJ03bKlhFb22tiarq6ty+vRpWVpaMgkRAjd0E0VRyGw2MwuuHMcxWzJ935c0TaXX68nOzo6Mx2NZWFiQW2+9Vc6ePSvNZtO4aA4GA6N5wJSK3Vawmb+v0B8URWHsouH5gBYLDJ5wrQeLodI0TSez2Wyotd6squo5x3Ge9TzvKc/znlVKXc7zPLn33nuZKPwdYMJACHnNcdddd7mNRiOu1+uter1+rFar3RSG4dvq9fqNjuOcdBxnSUSWqqoKgyDw4zj2XNd1Wq2WCaRQ7i8vL5ukYX6C4pXaFiJXKxEI+rCNtn0Ker2eXLlyRXZ2dmR7e1tGo9GhhAGtCqWU7O/vy2g0kslkYiYlFhYWZG1tzSQ69v4EJENaa6nVanLy5ElZX183CQOSBHs8U0QOlfMRyJGAYEoDy5+m06mIiKyvr5vFTUiU4FeBKRT7/lxrvNQWgWLldZ7nsrOzY1wq7f0UB4mT1lqXWuusKIpUKfV8lmUvpWn6ZFVVvyuK4qmqqnZEZDybzahP+DvDhIEQ8prmYx/7mNNut4MoipaazeZp13VvcF13Q2t9vdb6RBiGR+r1eicIgmaz2fSDIHBc13XDMHR83zftCluMaC81QkVifiTTrjTYfXfbZGkymZidCkgWcIK2T9Q41Q+HQxmNRiaYt1otWV9fl1arZfr5WmujxWg2m8ZCGw6Wq6ur0mg0DgkHbeZdKecfB/b2TXx+W8th6yvsEUdUBuz3gW5hOp2ayQ1UEbBLw/5KkqRQSuVa62lVVQPHcV5QSj1XluUf0jR9cjabPSMi+0mSFF/72teYJLxGYMJACHndcPfdd7u+7we+7y+4rnvUdd3roijaaDQa5w7WbB/zfX/J87yG67q1siwDBEIRMUkDevOtVstUIBCcEYSvFXjng65tk4wSvG2TjEpElmXS6/WMTfNsNhPHcaTZbJplShBRirw85thqtaTT6Zj3n/c5sMdIbexrnLe2vpboEs9BsmQnRvZroYpgu0Di32A51t7enkmc5qdAtNa5UqrM87zIsmxXKbVVluUfi6J4tqqqp4uieK4oiu08z8eDwaD6+te/zkThNQYTBkLI65KPf/zjThzHTr1eD1ut1qLv+xtBELw9DMPznue9xfO8o2VZnvB9P9Ra+yLih2HoOI7joroAl8HFxUUzGWGL+OwAagdoOymwRyXn/wxxY1EUEPSZBVcwWzpy5IjEcWyqFNANtNtt6XQ6IiImOGPz5rVsqq9lWGVXC3A98+ZR+Df2Y2i/2BbMtkkV9Bl4DMuq+v2+DIdDmc1m4rpu5bpu5XlerrVWjuNcVkr1iqLYzrLsBaXUvyul/i3P862yLKfj8bjkiunXNkwYCCFvCD796U+7CwsLtSAIVuM43oii6JzneTf6vn+d67pHfN8/7vv+gud5dcdxIowMttttWV5eNuOBqEDMn+LtRAInbHtfhb3RUuTwSR9lfBgRoYQvItJut8X3fSOkxHWhJWFPGVxrwmM+8NvPt69lfqwT12NXU5AcYLHXfOJgP8cWcCIpmkwmOk1TpZSqPM8bep43cRznpaqqLpdl+cJBFeH52Wz2klJqP0mS/IEHHqCA8XUCEwZCyBuKT37yk0673fbiOI49z1sKguD4QfXhrVEUbfi+f0JETvu+H4dhGNVqtXhhYUEajYZzoH/4DyZQ8HhAOwDmRJ7nGbtlmCLZJ3F7bBIn8b29PRmPx2Z98+LiogRBYKYoWq2WtNttMyaKk7ydtMy3S+yWA0SPSG7wvlg3jeemaWpGNlFdwFgo2iPYJGqvrxYx68X1gU5Bl2WZKaWKNE2neZ7vaK17ruu+6LruCyLyXFmWL5RluZVl2VAplfX7fbYcXocwYSCEvKH5xCc+4bRaLa9erzdqtdqJKIo2ROSs7/vXO45zned5Z8IwrDmO0zjQPviO47gi4oqIV6vVpN1uH9qYOBqNZH9/XzzPM7sujh07ZqYa0OeHYBGOlaPRyBhATSYTcV1XVlZWJI5jc2LvdDqyvLwsS0tL0m63jXDyWouo7CqCfdK3128XRSHT6dQslsLzoKdIksQkN3blwJ6ysKorhYhUIlLleZ4opVKl1DTP84t5nnezLNvM8/xFpdRzVVVdUErtFEWRzGaz8pvf/CYThNc5dHokhLyhOVDZFyIy/OIXvzgqy/IZz/NqRVEsi8hRrfVRx3HWXdc96fv+GcdxVqqqWtFat7TWy7VaLcjz3FVKhdiWORqNZDgcmmoDRH6YtMBYo73ZUSklg8FAut2umRyAMRPGGLFgC9MEqAIkSWKqHXYbxNYf4D3n91rA68DWIxRFYayYYRFtT03YUxCe52Wu65au6xaO43S11gPHcfaLonixqqqtsiw38zzfStN0O03Tbp7nwzzP0zRN9Te+8Q0mCW8gWGEghLxpufvuu50gCFzXdf04jmtBECx5nnddVVVnReSM1vpUHMdrjUZjqd1ur7uuG1VVFUwmkyBJEt/3fadWqzmNRsNptVqOveMB1QUkDPA+uHz5siRJYtZFoyWBJGF1dVUWFxel3W5Lo9Ewa6rxunZrAhUAJAJoIdjYo5BoOeC5SimdZZnO81xnWabTNM2UUkVVVaooCuV5Xu667kXHcfoisltV1cWyLJ93HOeFsiwva61HRVGkaZqqwWCgH3roISYIb2CYMBBCiMVnPvMZJ4oi33Gchoh0wjA8Xq/XTzSbzeNa62NlWa7NZrO1qqpWwjCsR1EUh2EYu65bFxHPcRzX9303iiInDEMnDEPP918u5iJpwLQC9jugUpGmqSwtLUmj0TDuiqhm2DqCa01xYLQT1QEkCgdiRV2WZVFVlS6KoiqKoqyqqtBaJ0VRJEqpWZ7nSZIkm3me96uq2iuKoisiuyKyrbXeLstytyzLSVmWeZqmmi2GNx9MGAgh5BX41Kc+5SwsLDiNRsOL4zh2HGehqqrFsiwXtdadKIpWarXaEc/zVvM8P1IURVtrvRAEQSOO47rv+w3XdZue5/m1Ws3zfd/VWjuu67qO4zgHi7I8EXHRfsCeCOyTGA6HMhwOjTBRxAgXteu6xUH7QR8IGKuyLLXWuirLslJKFWVZKq11UlVV33GciVJqXBTFuCzLflVVOwdfu0VR9PI8H2ZZNsrzfKyUSqqqyquqqvI81w8//DAThDc5TBgIIeTP4J577nFWVlacWq3miUg4m83qSqm21no5DMO1OI7XfN9fE5FFz/NajUajEUVR7Lpu7Lpu5DhOGMex5/t+qyzLMMsyN8syFzbWmNQYDAZ6MBhorbU+mJAApYgMqqoqPc8r8zwviqLIiqLIHcdJi6JI8jwf5XneK8uyJyK7ruvulGXZTdN0lGXZtCgKpZSq0jTV3/72t5kQkD8JEwZCCHmVuOeeexwRkVqt5sRxLJ7neVVV+b7v+7VaLYyiKAqCIIqiqIbEwXXdsCzLIM/zoCgKv91uC2ytRUQPh0M9HA6rqqpK13Urx3EKESm01vhSjuPkWZZleZ5nSqnc8zy4Kqosy4qiKCq0Jh588EFKO6zpAAAB9UlEQVQmBuTPggkDIYT8HfjSl77kQIdQVZUDvQFWScPTYX9/X/r9vpl8CILABHyttXzhC19gAkAIIYQQQgghhBBCCCGEEEIIIYQQQgghhBBCCCGEEEIIIYQQQgghhBBCCCGEEEIIIYQQQgghhBBCCCGEEEIIIYQQQgghhBBCCCGEEEIIIYQQQgghhBBCCCGEEEIIIYQQQgghhBBCCCGEEEIIIYQQQgghhBBCCCGEEEIIIYQQQgghhBBCCCGEEEIIIYQQQgghhBBCCCGEEEIIIYQQQgghhBBCCCGEEEIIIYQQQgghhBBCCCGEEEIIIYQQQgghhBBCCCGEEEIIIYQQQgghhBBCCCGEEEIIIYQQQgghhBBCCCGEEEIIIYQQQgghhBBCCCGEEEIIIYQQQgghhBBCCCGEEEIIIYQQQgghhBBCCCGEEEIIIYQQQgghhBBCCCGEEEIIIYQQQgghhBBCCCGEEEIIIYQQQgghhBBCCCGEEEIIIYQQQgghhBBCCCGEEEIIIYQQQgghhBBCCCGEEEIIIYQQQgghhBBCCCGEEEIIIYQQQgghhBBCCCGEEEIIIYQQQgghhBBCCCGEEEIIIYQQQgghhBBCCCGEEEIIIYQQQgghhBBCCCGEEEIIIYQQQgghhBBCCCGEEEIIIYQQQgghrw3+H+5NkIO2NngPAAAAAElFTkSuQmCC;" vertex="1" parent="1">
          <mxGeometry x="40" y="40" width="199.37" height="203.94" as="geometry" />
        </mxCell>
        <mxCell id="TbX4qZF48fod9gwZH-tJ-3" value="WMH" style="ellipse;whiteSpace=wrap;html=1;align=center;fontStyle=1;fontSize=17;" vertex="1" parent="1">
          <mxGeometry x="130" y="220" width="100" height="40" as="geometry" />
        </mxCell>
      </root>
    </mxGraphModel>
  </diagram>
</mxfile>
